<svg width="16" height="16" viewBox="0 0 16 16" fill="none" xmlns="http://www.w3.org/2000/svg">
<path d="M13.5 5.99999C13.5016 5.10183 13.2832 4.21693 12.864 3.42263C12.4447 2.62833 11.8373 1.9488 11.0948 1.44341C10.3523 0.938019 9.49735 0.622155 8.60463 0.523418C7.7119 0.424681 6.80858 0.546074 5.9736 0.876991C5.13862 1.20791 4.39738 1.73828 3.81466 2.42176C3.23195 3.10523 2.82548 3.92102 2.63078 4.79783C2.43608 5.67464 2.45908 6.58579 2.69776 7.45166C2.93644 8.31753 3.38354 9.11178 3.99999 9.76499V15C4.00006 15.0825 4.02055 15.1637 4.05964 15.2364C4.09873 15.3091 4.15521 15.371 4.22403 15.4165C4.29285 15.4621 4.37187 15.4899 4.45405 15.4975C4.53622 15.5051 4.619 15.4922 4.69499 15.46L7.99999 14.045L11.305 15.46C11.3667 15.4863 11.433 15.4999 11.5 15.5C11.598 15.4992 11.6936 15.4697 11.775 15.415C11.8438 15.3697 11.9003 15.3081 11.9396 15.2357C11.9788 15.1633 11.9996 15.0823 12 15V9.76499C12.961 8.74668 13.4975 7.40017 13.5 5.99999ZM7.99999 1.49999C8.89001 1.49999 9.76004 1.76391 10.5001 2.25838C11.2401 2.75284 11.8169 3.45565 12.1574 4.27792C12.498 5.10018 12.5872 6.00498 12.4135 6.8779C12.2399 7.75081 11.8113 8.55263 11.182 9.18197C10.5526 9.81131 9.75081 10.2399 8.8779 10.4135C8.00498 10.5872 7.10018 10.498 6.27792 10.1574C5.45565 9.81685 4.75284 9.24008 4.25838 8.50006C3.76391 7.76004 3.49999 6.89001 3.49999 5.99999C3.49999 4.80652 3.9741 3.66192 4.81801 2.81801C5.66192 1.9741 6.80652 1.49999 7.99999 1.49999ZM8.19499 13.04C8.1333 13.0139 8.06699 13.0004 7.99999 13.0004C7.933 13.0004 7.86668 13.0139 7.80499 13.04L4.99999 14.24V10.605C5.8927 11.186 6.93489 11.4952 7.99999 11.4952C9.06509 11.4952 10.1073 11.186 11 10.605V14.24L8.19499 13.04Z" fill="#66789C"/>
<path d="M5.00011 6.41499L5.66011 6.91499C5.69206 6.94179 5.71531 6.97751 5.72689 7.01758C5.73846 7.05766 5.73785 7.10027 5.72511 7.13999L5.47511 7.94499C5.39585 8.18778 5.39681 8.44964 5.47785 8.69185C5.55888 8.93406 5.7157 9.14377 5.92511 9.28999C6.11679 9.42974 6.34789 9.50502 6.58511 9.50499C6.83439 9.50283 7.07634 9.42043 7.27511 9.26999L7.93511 8.76999C7.96108 8.75051 7.99265 8.73999 8.02511 8.73999C8.05757 8.73999 8.08915 8.75051 8.11511 8.76999L8.77511 9.26999C8.96984 9.41604 9.20669 9.49499 9.45011 9.49499C9.69353 9.49499 9.93038 9.41604 10.1251 9.26999C10.3345 9.12377 10.4913 8.91406 10.5724 8.67185C10.6534 8.42964 10.6544 8.16778 10.5751 7.92499L10.3251 7.11999C10.3124 7.08027 10.3118 7.03766 10.3233 6.99758C10.3349 6.95751 10.3582 6.92179 10.3901 6.89499L11.0501 6.39499C11.2541 6.24363 11.4041 6.03072 11.4779 5.78765C11.5517 5.54459 11.5455 5.28423 11.4601 5.04499C11.3859 4.81147 11.2393 4.60763 11.0415 4.46292C10.8438 4.31821 10.6051 4.24013 10.3601 4.23999H9.50011C9.46376 4.23837 9.42881 4.22547 9.40013 4.20306C9.37145 4.18066 9.35047 4.14987 9.34011 4.11499L9.09011 3.30999C9.02083 3.06911 8.87507 2.8573 8.67484 2.70654C8.4746 2.55578 8.23076 2.47424 7.98011 2.47424C7.72947 2.47424 7.48562 2.55578 7.28539 2.70654C7.08515 2.8573 6.93939 3.06911 6.87011 3.30999L6.62011 4.11499C6.60975 4.14987 6.58877 4.18066 6.56009 4.20306C6.53141 4.22547 6.49647 4.23837 6.46011 4.23999H5.66511C5.42008 4.24013 5.18144 4.31821 4.9837 4.46292C4.78596 4.60763 4.63936 4.81147 4.56511 5.04499C4.47748 5.28946 4.47258 5.55595 4.55117 5.80347C4.62977 6.051 4.7875 6.26585 5.00011 6.41499ZM5.50011 5.38499C5.50699 5.35011 5.52564 5.31866 5.55295 5.2959C5.58026 5.27314 5.61457 5.26046 5.65011 5.25999H6.50011C6.74918 5.25986 6.9916 5.17957 7.1915 5.031C7.39141 4.88242 7.53818 4.67345 7.61011 4.43499L7.86511 3.62499C7.87392 3.59057 7.89394 3.56006 7.922 3.53828C7.95007 3.5165 7.98458 3.50467 8.02011 3.50467C8.05564 3.50467 8.09015 3.5165 8.11822 3.53828C8.14628 3.56006 8.1663 3.59057 8.17511 3.62499L8.43011 4.43499C8.49994 4.66703 8.64069 4.87138 8.8326 5.01935C9.02451 5.16731 9.25793 5.25147 9.50011 5.25999H10.3151C10.3507 5.26046 10.385 5.27314 10.4123 5.2959C10.4396 5.31866 10.4582 5.35011 10.4651 5.38499C10.4819 5.42458 10.4851 5.46859 10.4742 5.51018C10.4634 5.55178 10.4391 5.58862 10.4051 5.61499L9.74511 6.11499C9.54783 6.26509 9.40164 6.47238 9.32648 6.7086C9.25132 6.94483 9.25084 7.19848 9.32511 7.43499L9.58011 8.23999C9.59533 8.28117 9.5962 8.32628 9.58259 8.36802C9.56898 8.40976 9.54168 8.44569 9.50511 8.46999C9.48069 8.49077 9.44967 8.50218 9.41761 8.50218C9.38555 8.50218 9.35453 8.49077 9.33011 8.46999L8.67011 7.96999C8.47275 7.81673 8.22999 7.73354 7.98011 7.73354C7.73023 7.73354 7.48747 7.81673 7.29011 7.96999L6.63011 8.46999C6.60569 8.49077 6.57468 8.50218 6.54261 8.50218C6.51055 8.50218 6.47953 8.49077 6.45511 8.46999C6.41854 8.44569 6.39124 8.40976 6.37763 8.36802C6.36402 8.32628 6.36489 8.28117 6.38011 8.23999L6.63511 7.43499C6.70938 7.19848 6.7089 6.94483 6.63374 6.7086C6.55858 6.47238 6.41239 6.26509 6.21511 6.11499L5.55511 5.61499C5.52201 5.58797 5.4987 5.55083 5.48877 5.50927C5.47883 5.46772 5.48282 5.42405 5.50011 5.38499Z" fill="#66789C"/>
</svg>
