<svg width="16" height="16" viewBox="0 0 16 16" fill="none" xmlns="http://www.w3.org/2000/svg">
<path d="M15 5.5H13.5V3C13.5024 2.88303 13.4636 2.76893 13.3905 2.67757C13.3174 2.58621 13.2146 2.52338 13.1 2.5L3.1 0.500003C3.02737 0.485691 2.95246 0.487686 2.88069 0.505844C2.80893 0.524002 2.74209 0.55787 2.685 0.605003C2.62633 0.65259 2.5792 0.712853 2.54716 0.781266C2.51512 0.84968 2.49899 0.924465 2.5 1V5.5H1C0.867392 5.5 0.740215 5.55268 0.646447 5.64645C0.552678 5.74022 0.5 5.86739 0.5 6V15C0.5 15.1326 0.552678 15.2598 0.646447 15.3536C0.740215 15.4473 0.867392 15.5 1 15.5H15C15.1326 15.5 15.2598 15.4473 15.3536 15.3536C15.4473 15.2598 15.5 15.1326 15.5 15V6C15.5 5.86739 15.4473 5.74022 15.3536 5.64645C15.2598 5.55268 15.1326 5.5 15 5.5ZM1.5 6.5H2.5V14.5H1.5V6.5ZM3.5 6V1.61L12.5 3.41V14.5H10V11.5C10 11.3674 9.94732 11.2402 9.85355 11.1464C9.75979 11.0527 9.63261 11 9.5 11H6.5C6.36739 11 6.24021 11.0527 6.14645 11.1464C6.05268 11.2402 6 11.3674 6 11.5V14.5H3.5V6ZM7 14.5V12H9V14.5H7ZM14.5 14.5H13.5V6.5H14.5V14.5Z" fill="#66789C"/>
<path d="M5.25 6.5H7.25C7.38261 6.5 7.50979 6.44732 7.60355 6.35355C7.69732 6.25979 7.75 6.13261 7.75 6V4C7.75 3.86739 7.69732 3.74021 7.60355 3.64645C7.50979 3.55268 7.38261 3.5 7.25 3.5H5.25C5.11739 3.5 4.99021 3.55268 4.89645 3.64645C4.80268 3.74021 4.75 3.86739 4.75 4V6C4.75 6.13261 4.80268 6.25979 4.89645 6.35355C4.99021 6.44732 5.11739 6.5 5.25 6.5ZM5.75 4.5H6.75V5.5H5.75V4.5Z" fill="#66789C"/>
<path d="M7.25 10C7.38261 10 7.50979 9.94732 7.60355 9.85355C7.69732 9.75979 7.75 9.63261 7.75 9.5V7.5C7.75 7.36739 7.69732 7.24021 7.60355 7.14645C7.50979 7.05268 7.38261 7 7.25 7H5.25C5.11739 7 4.99021 7.05268 4.89645 7.14645C4.80268 7.24021 4.75 7.36739 4.75 7.5V9.5C4.75 9.63261 4.80268 9.75979 4.89645 9.85355C4.99021 9.94732 5.11739 10 5.25 10H7.25ZM5.75 8H6.75V9H5.75V8Z" fill="#66789C"/>
<path d="M8.75 6.5H10.75C10.8826 6.5 11.0098 6.44732 11.1036 6.35355C11.1973 6.25979 11.25 6.13261 11.25 6V4C11.25 3.86739 11.1973 3.74021 11.1036 3.64645C11.0098 3.55268 10.8826 3.5 10.75 3.5H8.75C8.61739 3.5 8.49021 3.55268 8.39645 3.64645C8.30268 3.74021 8.25 3.86739 8.25 4V6C8.25 6.13261 8.30268 6.25979 8.39645 6.35355C8.49021 6.44732 8.61739 6.5 8.75 6.5ZM9.25 4.5H10.25V5.5H9.25V4.5Z" fill="#66789C"/>
<path d="M8.75 10H10.75C10.8826 10 11.0098 9.94732 11.1036 9.85355C11.1973 9.75979 11.25 9.63261 11.25 9.5V7.5C11.25 7.36739 11.1973 7.24021 11.1036 7.14645C11.0098 7.05268 10.8826 7 10.75 7H8.75C8.61739 7 8.49021 7.05268 8.39645 7.14645C8.30268 7.24021 8.25 7.36739 8.25 7.5V9.5C8.25 9.63261 8.30268 9.75979 8.39645 9.85355C8.49021 9.94732 8.61739 10 8.75 10ZM9.25 8H10.25V9H9.25V8Z" fill="#66789C"/>
</svg>
