<svg width="16" height="16" viewBox="0 0 16 16" fill="none" xmlns="http://www.w3.org/2000/svg">
<path d="M15 12.5H11C11.5186 12.1051 11.9534 11.6107 12.2787 11.0458C12.6041 10.4809 12.8136 9.85682 12.895 9.21001H13.02C13.6435 9.20005 14.2407 8.95744 14.6945 8.52981C15.1483 8.10218 15.426 7.5204 15.4729 6.89862C15.5199 6.27684 15.3328 5.65995 14.9484 5.16901C14.5639 4.67807 14.0099 4.34852 13.395 4.24501L13.465 3.59001C13.4786 3.45098 13.463 3.31062 13.4191 3.178C13.3752 3.04538 13.3039 2.92343 13.21 2.82001C13.1134 2.71571 12.9956 2.63321 12.8645 2.57803C12.7335 2.52285 12.5921 2.49625 12.45 2.50001H3.55C3.41046 2.50034 3.27253 2.52988 3.14508 2.58671C3.01763 2.64354 2.90349 2.72642 2.81 2.83001C2.71607 2.93343 2.64484 3.05538 2.60092 3.188C2.557 3.32062 2.54136 3.46098 2.555 3.60001L3.105 9.07001C3.16698 9.74158 3.36735 10.393 3.69349 10.9834C4.01963 11.5737 4.46447 12.0901 5 12.5H1C0.867392 12.5 0.740215 12.5527 0.646447 12.6465C0.552678 12.7402 0.5 12.8674 0.5 13C0.5 13.1326 0.552678 13.2598 0.646447 13.3536C0.740215 13.4473 0.867392 13.5 1 13.5H15C15.1326 13.5 15.2598 13.4473 15.3536 13.3536C15.4473 13.2598 15.5 13.1326 15.5 13C15.5 12.8674 15.4473 12.7402 15.3536 12.6465C15.2598 12.5527 15.1326 12.5 15 12.5ZM14.5 6.72001C14.5 7.11784 14.342 7.49937 14.0607 7.78067C13.7794 8.06198 13.3978 8.22002 13 8.22002L13.3 5.25001C13.6388 5.31917 13.9433 5.50327 14.162 5.77114C14.3807 6.03902 14.5001 6.37422 14.5 6.72001ZM8 5.54001L8.75 5.84001V7.50001H7.25V5.84001L8 5.54001ZM4.1 8.97002L3.55 3.50001H7.5V4.66001L6.565 5.03501C6.47197 5.07207 6.3922 5.1362 6.33604 5.21911C6.27988 5.30201 6.2499 5.39988 6.25 5.50001V8.00001C6.25 8.13262 6.30268 8.2598 6.39645 8.35357C6.49021 8.44734 6.61739 8.50001 6.75 8.50001H9.25C9.38261 8.50001 9.50979 8.44734 9.60355 8.35357C9.69732 8.2598 9.75 8.13262 9.75 8.00001V5.50001C9.7501 5.39988 9.72012 5.30201 9.66396 5.21911C9.6078 5.1362 9.52803 5.07207 9.435 5.03501L8.5 4.66001V3.50001H12.45L11.9 8.97002C11.802 9.93624 11.3489 10.8317 10.6283 11.4829C9.90778 12.134 8.97118 12.4945 8 12.4945C7.02882 12.4945 6.09222 12.134 5.37168 11.4829C4.65114 10.8317 4.19798 9.93624 4.1 8.97002Z" fill="#66789C"/>
</svg>
