<svg width="16" height="16" viewBox="0 0 16 16" fill="none" xmlns="http://www.w3.org/2000/svg">
<path d="M8 13.5C7.93023 13.4998 7.86126 13.4851 7.79754 13.4567C7.73382 13.4282 7.67675 13.3868 7.63 13.335C7.155 12.805 3 8.1 3 5.5C3 4.17392 3.52678 2.90215 4.46447 1.96447C5.40215 1.02678 6.67392 0.5 8 0.5C9.32608 0.5 10.5979 1.02678 11.5355 1.96447C12.4732 2.90215 13 4.17392 13 5.5C13 8.1 8.845 12.805 8.37 13.335C8.32325 13.3868 8.26618 13.4282 8.20246 13.4567C8.13874 13.4851 8.06977 13.4998 8 13.5ZM8 1.5C6.93913 1.5 5.92172 1.92143 5.17157 2.67157C4.42143 3.42172 4 4.43913 4 5.5C4 7.21 6.615 10.62 8 12.24C9.385 10.62 12 7.21 12 5.5C12 4.43913 11.5786 3.42172 10.8284 2.67157C10.0783 1.92143 9.06087 1.5 8 1.5Z" fill="#66789C"/>
<path d="M15.0001 15.5H1.0001C0.918195 15.5001 0.837517 15.4801 0.765154 15.4418C0.692792 15.4034 0.630961 15.3479 0.585096 15.28C0.539489 15.2124 0.511092 15.1348 0.502378 15.0537C0.493663 14.9727 0.504895 14.8907 0.535096 14.815L2.5351 9.81501C2.57215 9.72197 2.63628 9.64221 2.71919 9.58605C2.8021 9.52988 2.89996 9.49991 3.0001 9.50001H5.6201C5.70027 9.49958 5.77936 9.51843 5.85072 9.55498C5.92208 9.59153 5.9836 9.6447 6.0301 9.71001C6.7801 10.77 7.5301 11.71 8.0001 12.21C8.4451 11.71 9.2201 10.745 9.9701 9.71001C10.0166 9.6447 10.0781 9.59153 10.1495 9.55498C10.2208 9.51843 10.2999 9.49958 10.3801 9.50001H13.0001C13.1002 9.49991 13.1981 9.52988 13.281 9.58605C13.3639 9.64221 13.428 9.72197 13.4651 9.81501L15.4651 14.815C15.4953 14.8907 15.5065 14.9727 15.4978 15.0537C15.4891 15.1348 15.4607 15.2124 15.4151 15.28C15.3692 15.3479 15.3074 15.4034 15.235 15.4418C15.1627 15.4801 15.082 15.5001 15.0001 15.5ZM1.7401 14.5H14.2401L12.6401 10.5H10.6351C9.5151 12.055 8.4201 13.28 8.3701 13.335C8.32323 13.3866 8.26611 13.4278 8.20239 13.456C8.13868 13.4841 8.06977 13.4987 8.0001 13.4987C7.93042 13.4987 7.86152 13.4841 7.7978 13.456C7.73408 13.4278 7.67696 13.3866 7.6301 13.335C7.5801 13.28 6.4851 12.055 5.3651 10.5H3.3401L1.7401 14.5Z" fill="#66789C"/>
<path d="M8 8C7.50555 8 7.0222 7.85338 6.61108 7.57867C6.19995 7.30397 5.87952 6.91352 5.6903 6.45671C5.50108 5.99989 5.45157 5.49723 5.54804 5.01228C5.6445 4.52732 5.8826 4.08187 6.23223 3.73223C6.58187 3.3826 7.02732 3.1445 7.51228 3.04804C7.99723 2.95157 8.4999 3.00108 8.95671 3.1903C9.41353 3.37952 9.80397 3.69995 10.0787 4.11108C10.3534 4.5222 10.5 5.00555 10.5 5.5C10.5 6.16304 10.2366 6.79893 9.76777 7.26777C9.29893 7.73661 8.66304 8 8 8ZM8 4C7.70333 4 7.41332 4.08797 7.16665 4.2528C6.91997 4.41762 6.72771 4.65189 6.61418 4.92598C6.50065 5.20007 6.47095 5.50167 6.52882 5.79264C6.5867 6.08361 6.72956 6.35088 6.93934 6.56066C7.14912 6.77044 7.41639 6.9133 7.70737 6.97118C7.99834 7.02906 8.29994 6.99935 8.57403 6.88582C8.84812 6.77229 9.08238 6.58003 9.24721 6.33336C9.41203 6.08668 9.5 5.79667 9.5 5.5C9.5 5.10218 9.34197 4.72065 9.06066 4.43934C8.77936 4.15804 8.39783 4 8 4Z" fill="#66789C"/>
</svg>
