<svg width="16" height="16" viewBox="0 0 16 16" fill="none" xmlns="http://www.w3.org/2000/svg">
<path d="M8 0.5C6.51664 0.5 5.0666 0.939867 3.83323 1.76398C2.59986 2.58809 1.63856 3.75943 1.07091 5.12987C0.50325 6.50032 0.354725 8.00832 0.644114 9.46318C0.933503 10.918 1.64781 12.2544 2.6967 13.3033C3.7456 14.3522 5.08197 15.0665 6.53683 15.3559C7.99168 15.6453 9.49968 15.4968 10.8701 14.9291C12.2406 14.3614 13.4119 13.4001 14.236 12.1668C15.0601 10.9334 15.5 9.48336 15.5 8C15.5 6.01088 14.7098 4.10322 13.3033 2.6967C11.8968 1.29018 9.98913 0.5 8 0.5ZM8 14.5C6.71442 14.5 5.45772 14.1188 4.3888 13.4046C3.31988 12.6903 2.48676 11.6752 1.99479 10.4874C1.50282 9.29972 1.3741 7.99279 1.6249 6.73191C1.8757 5.47104 2.49477 4.31285 3.40381 3.40381C4.31285 2.49476 5.47104 1.8757 6.73192 1.6249C7.99279 1.37409 9.29973 1.50281 10.4874 1.99478C11.6752 2.48675 12.6903 3.31987 13.4046 4.38879C14.1188 5.45771 14.5 6.71442 14.5 8C14.5 9.72391 13.8152 11.3772 12.5962 12.5962C11.3772 13.8152 9.72391 14.5 8 14.5Z" fill="#66789C"/>
<path d="M8 2.5C6.91221 2.5 5.84884 2.82257 4.94437 3.42692C4.0399 4.03126 3.33495 4.89025 2.91867 5.89524C2.50238 6.90023 2.39346 8.0061 2.60568 9.073C2.8179 10.1399 3.34173 11.1199 4.11092 11.8891C4.8801 12.6583 5.86011 13.1821 6.92701 13.3943C7.9939 13.6065 9.09977 13.4976 10.1048 13.0813C11.1098 12.6651 11.9687 11.9601 12.5731 11.0556C13.1774 10.1512 13.5 9.0878 13.5 8C13.5 6.54131 12.9205 5.14236 11.8891 4.11091C10.8576 3.07946 9.45869 2.5 8 2.5ZM8 12.5C7.10999 12.5 6.23996 12.2361 5.49994 11.7416C4.75991 11.2471 4.18314 10.5443 3.84254 9.72208C3.50195 8.89981 3.41284 7.99501 3.58647 7.12209C3.7601 6.24918 4.18869 5.44736 4.81802 4.81802C5.44736 4.18868 6.24918 3.7601 7.1221 3.58647C7.99501 3.41283 8.89981 3.50195 9.72208 3.84254C10.5443 4.18314 11.2471 4.75991 11.7416 5.49993C12.2361 6.23995 12.5 7.10998 12.5 8C12.5 9.19347 12.0259 10.3381 11.182 11.182C10.3381 12.0259 9.19348 12.5 8 12.5Z" fill="#66789C"/>
<path d="M9.25 6C9.38261 6 9.50979 5.94732 9.60355 5.85355C9.69732 5.75979 9.75 5.63261 9.75 5.5C9.75 5.36739 9.69732 5.24021 9.60355 5.14645C9.50979 5.05268 9.38261 5 9.25 5H8.5V4.5C8.5 4.36739 8.44732 4.24021 8.35355 4.14645C8.25979 4.05268 8.13261 4 8 4C7.86739 4 7.74021 4.05268 7.64645 4.14645C7.55268 4.24021 7.5 4.36739 7.5 4.5V5H7.25C6.98478 5 6.73043 5.10536 6.54289 5.29289C6.35536 5.48043 6.25 5.73478 6.25 6V7.5C6.25 7.76522 6.35536 8.01957 6.54289 8.20711C6.73043 8.39464 6.98478 8.5 7.25 8.5H8.75V10H6.75C6.61739 10 6.49021 10.0527 6.39645 10.1464C6.30268 10.2402 6.25 10.3674 6.25 10.5C6.25 10.6326 6.30268 10.7598 6.39645 10.8536C6.49021 10.9473 6.61739 11 6.75 11H7.5V11.5C7.5 11.6326 7.55268 11.7598 7.64645 11.8536C7.74021 11.9473 7.86739 12 8 12C8.13261 12 8.25979 11.9473 8.35355 11.8536C8.44732 11.7598 8.5 11.6326 8.5 11.5V11H8.75C9.01522 11 9.26957 10.8946 9.45711 10.7071C9.64464 10.5196 9.75 10.2652 9.75 10V8.5C9.75 8.23478 9.64464 7.98043 9.45711 7.79289C9.26957 7.60536 9.01522 7.5 8.75 7.5H7.25V6H9.25Z" fill="#66789C"/>
</svg>
