<svg width="164" height="125" viewBox="0 0 164 125" fill="none" xmlns="http://www.w3.org/2000/svg">
<g opacity="0.5" clip-path="url(#clip0_176_6763)">
<path d="M58.3404 29.0857C58.2723 29.0856 58.2067 29.0597 58.157 29.0132C58.1072 28.9667 58.0769 28.903 58.0721 28.8349C57.8961 26.4392 56.8236 24.1984 55.0692 22.561C53.3147 20.9235 51.0077 20.0102 48.6099 20.0037C48.3229 20.0037 48.0214 20.0183 47.7138 20.0472C47.6624 20.052 47.6106 20.0419 47.5647 20.0181C47.5189 19.9942 47.4808 19.9577 47.4551 19.9127C46.3537 17.9813 44.7088 16.4176 42.7259 15.4168C40.7429 14.416 38.5096 14.0224 36.3048 14.2851C34.0999 14.5478 32.0211 15.4552 30.3278 16.894C28.6344 18.3329 27.4016 20.2394 26.7831 22.3758C26.7667 22.433 26.7319 22.4832 26.6839 22.5184C26.636 22.5536 26.5778 22.5719 26.5184 22.5703L26.4468 22.5682C26.4096 22.5669 26.3724 22.5656 26.3348 22.5656C24.5161 22.5713 22.7539 23.1998 21.3408 24.3468C19.9277 25.4939 18.9485 27.0905 18.5658 28.8717C18.553 28.9322 18.5199 28.9865 18.4719 29.0255C18.424 29.0645 18.3641 29.0857 18.3024 29.0857H0.268472C0.197203 29.0855 0.128919 29.057 0.0785911 29.0065C0.0282634 28.9559 0 28.8875 0 28.8161C0 28.7447 0.0282634 28.6762 0.0785911 28.6256C0.128919 28.5751 0.197203 28.5466 0.268472 28.5464H18.0869C18.5355 26.6937 19.5906 25.0448 21.0839 23.863C22.5771 22.6812 24.4225 22.0346 26.3255 22.0263C27.003 19.8309 28.3023 17.8799 30.0656 16.4102C31.8289 14.9406 33.9802 14.0155 36.2583 13.7475C38.5364 13.4795 40.8432 13.88 42.8984 14.9004C44.9536 15.9207 46.6688 17.5171 47.8355 19.4955C48.1003 19.4748 48.3601 19.4644 48.6099 19.4644C51.1438 19.4713 53.5818 20.4365 55.4358 22.167C57.2899 23.8974 58.4232 26.2654 58.6092 28.7972C58.6116 28.8325 58.6072 28.868 58.5959 28.9016C58.5847 28.9351 58.567 28.9662 58.5438 28.9929C58.5207 29.0197 58.4924 29.0416 58.4608 29.0574C58.4292 29.0732 58.3947 29.0826 58.3595 29.0851C58.3531 29.0855 58.3467 29.0857 58.3404 29.0857Z" fill="#CBCBCB"/>
<path d="M55.1381 32.5432H10.9918C10.9204 32.5432 10.852 32.5148 10.8015 32.4643C10.751 32.4137 10.7227 32.3451 10.7227 32.2736C10.7227 32.2021 10.751 32.1335 10.8015 32.0829C10.852 32.0323 10.9204 32.0039 10.9918 32.0039H55.1381C55.2095 32.0039 55.2779 32.0323 55.3284 32.0829C55.3789 32.1335 55.4073 32.2021 55.4073 32.2736C55.4073 32.3451 55.3789 32.4137 55.3284 32.4643C55.2779 32.5148 55.2095 32.5432 55.1381 32.5432Z" fill="#CBCBCB"/>
<path d="M21.7586 36.4534H6.95349C6.91808 36.4535 6.883 36.4466 6.85026 36.4331C6.81752 36.4196 6.78776 36.3997 6.76269 36.3747C6.73762 36.3496 6.71772 36.3199 6.70415 36.2871C6.69058 36.2543 6.68359 36.2192 6.68359 36.1837C6.68359 36.1483 6.69058 36.1131 6.70415 36.0804C6.71772 36.0476 6.73762 36.0178 6.76269 35.9928C6.78776 35.9677 6.81752 35.9479 6.85026 35.9344C6.883 35.9209 6.91808 35.914 6.95349 35.9141H21.7586C21.8299 35.9143 21.8982 35.9427 21.9485 35.9933C21.9988 36.0439 22.0271 36.1123 22.0271 36.1837C22.0271 36.2551 21.9988 36.3236 21.9485 36.3742C21.8982 36.4247 21.8299 36.4532 21.7586 36.4534Z" fill="#CBCBCB"/>
<path d="M35.601 88.9239C35.601 99.8873 24.1277 105.133 24.1277 105.133C24.1277 105.133 12.5368 99.8873 12.3015 88.9239C12.1631 82.4798 17.5172 77.2532 23.9512 77.2532C25.4811 77.2532 26.996 77.555 28.4094 78.1415C29.8228 78.7281 31.107 79.5877 32.1888 80.6714C33.2706 81.7552 34.1287 83.0418 34.7142 84.4577C35.2996 85.8737 35.601 87.3913 35.601 88.9239V88.9239Z" fill="#E5E5E5"/>
<path d="M28.0108 105.782H20.2442L19.3027 102.009H28.9521L28.0108 105.782Z" fill="#CBCBCB"/>
<path d="M27.7467 112.233H20.5098V116.011H27.7467V112.233Z" fill="white"/>
<path d="M27.8058 116.07H20.4512V112.174H27.8058V116.07ZM20.5689 115.952H27.6882V112.292H20.5689V115.952Z" fill="#CBCBCB"/>
<path d="M25.6121 106.226H22.6452L22.3047 105.69H25.9526L25.6121 106.226Z" fill="#CBCBCB"/>
<path d="M20.4224 105.781H20.3047V111.558H20.4224V105.781Z" fill="#CBCBCB"/>
<path d="M27.9536 105.781H27.8359V111.558H27.9536V105.781Z" fill="#CBCBCB"/>
<path d="M25.3082 101.945L25.2363 101.852C28.6358 99.2258 32.6882 94.7265 32.6882 88.2065C32.6909 85.923 32.0205 83.6895 30.7612 81.7861C29.5018 79.8827 27.7095 78.3942 25.609 77.5072L25.6548 77.3987C27.7766 78.2946 29.5871 79.7982 30.8593 81.7209C32.1315 83.6436 32.8086 85.8998 32.8059 88.2065C32.8059 94.7744 28.7286 99.303 25.3082 101.945Z" fill="#CBCBCB"/>
<path d="M21.5426 101.945L21.4707 101.852C24.8702 99.2256 28.9226 94.7264 28.9226 88.2064C28.9235 85.9382 28.2612 83.7194 27.0174 81.8241C25.7737 79.9288 24.003 78.44 21.924 77.5416L21.9707 77.4333C24.0707 78.3409 25.8594 79.8448 27.1158 81.7593C28.3722 83.6738 29.0412 85.9151 29.0403 88.2064C29.0403 94.7743 24.963 99.3029 21.5426 101.945Z" fill="#CBCBCB"/>
<path d="M26.361 101.945C22.9406 99.3029 18.8633 94.7743 18.8633 88.2064C18.8623 85.9152 19.5314 83.6738 20.7878 81.7593C22.0442 79.8447 23.8329 78.3408 25.933 77.4333L25.9797 77.5416C23.9007 78.44 22.1299 79.9287 20.8862 81.8241C19.6424 83.7194 18.98 85.9382 18.981 88.2064C18.981 94.7264 23.0333 99.2256 26.4328 101.852L26.361 101.945Z" fill="#CBCBCB"/>
<path d="M22.5954 101.945C19.175 99.3029 15.0977 94.7744 15.0977 88.2064C15.0938 85.8906 15.7758 83.6257 17.0572 81.6982C18.3386 79.7708 20.162 78.2674 22.2965 77.3784L22.3419 77.4872C20.2288 78.3673 18.4238 79.8555 17.1552 81.7636C15.8866 83.6717 15.2115 85.9138 15.2153 88.2064C15.2153 94.7265 19.2677 99.2257 22.6672 101.852L22.5954 101.945Z" fill="#CBCBCB"/>
<path d="M24.0103 77.2532H23.8926V102.009H24.0103V77.2532Z" fill="#CBCBCB"/>
<path d="M22.6266 111.376L20.4688 113.538L20.5519 113.621L22.7098 111.46L22.6266 111.376Z" fill="#CBCBCB"/>
<path d="M23.6744 111.34L20.4668 114.72L20.5521 114.801L23.7597 111.422L23.6744 111.34Z" fill="#CBCBCB"/>
<path d="M28.4232 111.381H19.5977V112.442H28.4232V111.381Z" fill="white"/>
<path d="M28.4823 112.501H19.5391V111.322H28.4823V112.501ZM19.6567 112.383H28.3646V111.44H19.6567V112.383Z" fill="#CBCBCB"/>
<path d="M57.8062 61.1392C57.8062 68.3756 50.2334 71.8381 50.2334 71.8381C50.2334 71.8381 42.5829 68.3756 42.4275 61.1392C42.3362 56.8859 45.8701 53.436 50.1169 53.436C52.1562 53.436 54.112 54.2476 55.554 55.6922C56.9961 57.1369 57.8062 59.0962 57.8062 61.1392V61.1392Z" fill="#E5E5E5"/>
<path d="M52.7964 72.2661H47.6701L47.0488 69.7761H53.4179L52.7964 72.2661Z" fill="#CBCBCB"/>
<path d="M52.6205 76.5242H47.8438V79.0179H52.6205V76.5242Z" fill="white"/>
<path d="M52.6591 79.0569H47.8047V76.4854H52.6591V79.0569ZM47.8824 78.9791H52.5814V76.5631H47.8824V78.9791Z" fill="#CBCBCB"/>
<path d="M51.2124 72.5596H49.254L49.0293 72.2058H51.4371L51.2124 72.5596Z" fill="#CBCBCB"/>
<path d="M47.7867 72.2661H47.709V76.0788H47.7867V72.2661Z" fill="#CBCBCB"/>
<path d="M52.7574 72.2661H52.6797V76.0788H52.7574V72.2661Z" fill="#CBCBCB"/>
<path d="M51.0103 69.7339L50.9629 69.6723C53.2067 67.9388 55.8815 64.9691 55.8815 60.6656C55.8832 59.1584 55.4408 57.6842 54.6095 56.4279C53.7783 55.1715 52.5953 54.1891 51.2089 53.6036L51.2391 53.532C52.6396 54.1233 53.8346 55.1158 54.6743 56.3849C55.514 57.6539 55.9609 59.1431 55.9591 60.6656C55.9591 65.0007 53.2679 67.9898 51.0103 69.7339Z" fill="#CBCBCB"/>
<path d="M48.5259 69.7339L48.4785 69.6723C50.7224 67.9388 53.3971 64.9691 53.3971 60.6656C53.3977 59.1685 52.9605 57.704 52.1396 56.453C51.3187 55.202 50.1499 54.2193 48.7777 53.6264L48.8085 53.5549C50.1946 54.1539 51.3752 55.1466 52.2045 56.4102C53.0338 57.6739 53.4754 59.1533 53.4748 60.6656C53.4748 65.0007 50.7836 67.9898 48.5259 69.7339Z" fill="#CBCBCB"/>
<path d="M51.7066 69.7339C49.449 67.9898 46.7578 65.0007 46.7578 60.6656C46.7572 59.1533 47.1988 57.6739 48.0281 56.4102C48.8574 55.1466 50.038 54.1539 51.4241 53.5549L51.4549 53.6264C50.0827 54.2193 48.914 55.202 48.093 56.453C47.272 57.704 46.8349 59.1685 46.8355 60.6656C46.8355 64.9691 49.5102 67.9388 51.754 69.6723L51.7066 69.7339Z" fill="#CBCBCB"/>
<path d="M49.2203 69.734C46.9627 67.9899 44.2715 65.0009 44.2715 60.6657C44.269 59.1372 44.7191 57.6423 45.5649 56.3701C46.4107 55.0979 47.6142 54.1056 49.023 53.5188L49.053 53.5906C47.6582 54.1715 46.4668 55.1538 45.6295 56.4132C44.7922 57.6726 44.3466 59.1526 44.3492 60.6657C44.3492 64.9693 47.0239 67.9389 49.2677 69.6724L49.2203 69.734Z" fill="#CBCBCB"/>
<path d="M50.1558 53.436H50.0781V69.7761H50.1558V53.436Z" fill="#CBCBCB"/>
<path d="M49.2407 75.9589L47.8164 77.3857L47.8713 77.4408L49.2956 76.0139L49.2407 75.9589Z" fill="#CBCBCB"/>
<path d="M49.9336 75.9351L47.8164 78.1658L47.8727 78.2194L49.9898 75.9887L49.9336 75.9351Z" fill="#CBCBCB"/>
<path d="M53.0675 75.9622H47.2422V76.6624H53.0675V75.9622Z" fill="white"/>
<path d="M53.1061 76.7012H47.2031V75.9231H53.1061V76.7012ZM47.2808 76.6234H53.0284V76.0009H47.2808V76.6234Z" fill="#CBCBCB"/>
<path d="M122.181 71.0325C122.23 71.0325 122.277 71.0139 122.313 70.9805C122.349 70.9472 122.37 70.9015 122.374 70.8528C122.5 69.1356 123.269 67.5294 124.526 66.3557C125.784 65.182 127.437 64.5273 129.156 64.5227C129.362 64.5227 129.578 64.5332 129.798 64.5538C129.835 64.5573 129.872 64.55 129.905 64.533C129.938 64.5159 129.965 64.4897 129.984 64.4575C130.773 63.073 131.952 61.9522 133.374 61.2348C134.795 60.5175 136.396 60.2353 137.976 60.4236C139.557 60.6119 141.047 61.2623 142.26 62.2937C143.474 63.325 144.358 64.6916 144.801 66.2229C144.813 66.264 144.838 66.2999 144.872 66.3252C144.907 66.3504 144.948 66.3635 144.991 66.3624L145.042 66.3608C145.069 66.3599 145.096 66.359 145.123 66.359C146.426 66.3631 147.689 66.8136 148.702 67.6358C149.715 68.4579 150.417 69.6023 150.691 70.8791C150.701 70.9225 150.724 70.9614 150.759 70.9894C150.793 71.0173 150.836 71.0325 150.88 71.0325H163.807C163.832 71.0326 163.857 71.0277 163.881 71.018C163.904 71.0083 163.925 70.9941 163.943 70.9761C163.961 70.9582 163.976 70.9368 163.985 70.9133C163.995 70.8899 164 70.8647 164 70.8392C164 70.8138 163.995 70.7886 163.985 70.7651C163.976 70.7416 163.961 70.7203 163.943 70.7023C163.925 70.6844 163.904 70.6702 163.881 70.6605C163.857 70.6508 163.832 70.6459 163.807 70.6459H151.035C150.713 69.3179 149.957 68.1361 148.886 67.289C147.816 66.4419 146.493 65.9784 145.129 65.9724C144.644 64.3988 143.712 63.0003 142.448 61.9469C141.185 60.8934 139.642 60.2304 138.01 60.0383C136.377 59.8462 134.723 60.1332 133.25 60.8646C131.777 61.596 130.547 62.7403 129.711 64.1584C129.521 64.1435 129.335 64.1361 129.156 64.1361C127.34 64.141 125.592 64.8329 124.263 66.0733C122.934 67.3136 122.122 69.011 121.989 70.8257C121.987 70.851 121.99 70.8764 121.998 70.9005C122.006 70.9246 122.019 70.9469 122.036 70.966C122.052 70.9852 122.072 71.0009 122.095 71.0122C122.118 71.0235 122.142 71.0303 122.168 71.0321C122.172 71.0324 122.177 71.0325 122.181 71.0325Z" fill="#CBCBCB"/>
<path d="M124.478 73.5111H156.122C156.173 73.5111 156.222 73.4907 156.258 73.4545C156.294 73.4182 156.315 73.3691 156.315 73.3178C156.315 73.2665 156.294 73.2174 156.258 73.1811C156.222 73.1449 156.173 73.1245 156.122 73.1245H124.478C124.427 73.1245 124.378 73.1449 124.342 73.1811C124.305 73.2174 124.285 73.2665 124.285 73.3178C124.285 73.3691 124.305 73.4182 124.342 73.4545C124.378 73.4907 124.427 73.5111 124.478 73.5111V73.5111Z" fill="#CBCBCB"/>
<path d="M148.404 76.3138H159.016C159.067 76.3137 159.116 76.2932 159.152 76.257C159.188 76.2208 159.208 76.1717 159.208 76.1205C159.208 76.0694 159.188 76.0203 159.152 75.9841C159.116 75.9478 159.067 75.9274 159.016 75.9272H148.404C148.379 75.9272 148.353 75.9322 148.33 75.942C148.307 75.9517 148.285 75.9659 148.267 75.9839C148.25 76.0018 148.235 76.0231 148.226 76.0466C148.216 76.07 148.211 76.0952 148.211 76.1205C148.211 76.1459 148.216 76.1711 148.226 76.1945C148.235 76.218 148.25 76.2393 148.267 76.2572C148.285 76.2752 148.307 76.2894 148.33 76.2991C148.353 76.3088 148.379 76.3138 148.404 76.3138V76.3138Z" fill="#CBCBCB"/>
<path d="M99.0918 122.954H98.4565L98.1543 120.5H99.0918V122.954Z" fill="#9F616A"/>
<path d="M99.253 123.57H97.2051V123.544C97.2053 123.333 97.2894 123.13 97.4388 122.98C97.5883 122.83 97.7909 122.746 98.0022 122.746H99.253V123.57Z" fill="#2F2E41"/>
<path d="M107.282 121.748L106.737 122.076L105.217 120.128L106.02 119.644L107.282 121.748Z" fill="#9F616A"/>
<path d="M105.982 123.25L105.969 123.227C105.86 123.046 105.828 122.828 105.879 122.623C105.93 122.418 106.061 122.241 106.242 122.132L107.314 121.486L107.738 122.193L105.982 123.25Z" fill="#2F2E41"/>
<path d="M99.256 122.447L99.245 122.447C98.9361 122.446 98.6274 122.428 98.3204 122.394C98.2033 122.382 98.0764 122.37 97.9234 122.357L97.9182 122.356C97.8138 122.325 97.8109 121.345 97.8552 117.988C97.8778 116.269 97.9035 114.321 97.8729 113.08L97.8726 113.068L97.8818 113.06C98.4342 112.575 99.0934 112.228 99.8055 112.046C100.518 111.865 101.262 111.856 101.979 112.018L101.99 112.02L101.996 112.03C102.62 113.088 103.562 114.612 104.474 116.086C106.566 119.47 107.165 120.465 107.099 120.54L107.091 120.546C106.948 120.618 106.841 120.673 106.75 120.72C106.389 120.907 106.018 121.074 105.639 121.222L105.622 121.228L105.61 121.215C103.487 118.885 101.72 116.281 100.627 113.875C100.5 114.696 100.345 115.769 100.181 116.903C99.7101 120.162 99.3918 122.309 99.2637 122.439L99.256 122.447Z" fill="#2F2E41"/>
<path d="M99.8275 113.331C101.093 113.325 102.351 113.536 103.546 113.955C103.588 111.945 102.915 109.986 101.649 108.426L101.639 108.415L101.644 108.401C101.977 107.436 102.322 106.438 102.63 105.445L102.625 105.429C102.409 104.659 101.946 103.882 101.208 103.052C101.128 102.969 101.019 102.92 100.904 102.914C100.789 102.908 100.676 102.946 100.588 103.021C99.9419 103.613 99.4384 104.344 99.116 105.16C98.7936 105.976 98.6608 106.855 98.7274 107.73L98.7279 107.735L98.7265 107.74C98.1488 109.7 97.9391 110.707 97.754 111.596C97.6191 112.244 97.5022 112.805 97.2676 113.607C98.1086 113.424 98.9668 113.331 99.8275 113.331V113.331Z" fill="#CBCBCB"/>
<path opacity="0.1" d="M101.691 107.133L99.812 111.232L98.7383 110.143L101.691 107.133Z" fill="black"/>
<path d="M100.888 102.653C101.626 102.653 102.225 102.053 102.225 101.314C102.225 100.574 101.626 99.9741 100.888 99.9741C100.149 99.9741 99.5508 100.574 99.5508 101.314C99.5508 102.053 100.149 102.653 100.888 102.653Z" fill="#9F616A"/>
<path d="M99.2676 100.557H101.391V99.6297C100.925 99.4443 100.469 99.2865 100.193 99.6297C99.9476 99.6297 99.7122 99.7274 99.5386 99.9013C99.3651 100.075 99.2676 100.311 99.2676 100.557V100.557Z" fill="#2F2E41"/>
<path d="M101.507 99.4661C102.777 99.4661 103.132 101.06 103.132 101.959C103.132 102.46 102.905 102.64 102.55 102.7L102.424 102.029L102.13 102.729C102.03 102.73 101.925 102.728 101.816 102.726L101.716 102.52L101.494 102.722C100.603 102.724 99.8828 102.854 99.8828 101.959C99.8828 101.06 100.194 99.4661 101.507 99.4661Z" fill="#2F2E41"/>
<path d="M139.845 37.5826C139.845 72.8875 102.899 89.7807 102.899 89.7807C102.899 89.7807 65.573 72.8875 64.8151 37.5826C64.3696 16.8311 81.6111 0 102.33 0C123.049 0 139.845 16.8263 139.845 37.5826Z" fill="#3C65F5"/>
<path d="M103.692 122.676H102.913L102.543 119.667H103.692V122.676Z" fill="#FFB7B7"/>
<path d="M102.358 122.453H103.86V123.401H101.412C101.412 123.276 101.437 123.153 101.484 123.038C101.532 122.923 101.601 122.819 101.689 122.731C101.777 122.643 101.881 122.573 101.996 122.525C102.111 122.478 102.234 122.453 102.358 122.453Z" fill="#2F2E41"/>
<path d="M106.614 122.676H105.835L105.465 119.667H106.614L106.614 122.676Z" fill="#FFB7B7"/>
<path d="M105.28 122.453H106.782V123.401H104.334C104.334 123.149 104.434 122.909 104.611 122.731C104.788 122.553 105.029 122.453 105.28 122.453Z" fill="#2F2E41"/>
<path d="M106.519 113.714C106.435 113.66 106.364 113.588 106.311 113.503C106.257 113.419 106.223 113.323 106.211 113.224C106.198 113.125 106.208 113.024 106.238 112.929C106.269 112.834 106.32 112.747 106.388 112.674L105.875 105.384L107.352 105.527L107.393 112.666C107.508 112.789 107.574 112.949 107.579 113.117C107.585 113.286 107.528 113.45 107.42 113.579C107.312 113.708 107.161 113.793 106.995 113.818C106.829 113.843 106.659 113.806 106.519 113.714Z" fill="#FFB7B7"/>
<path d="M103.654 121.16L102.797 121.119C102.724 121.116 102.655 121.085 102.604 121.032C102.554 120.979 102.525 120.909 102.525 120.835L102.465 112.145C102.465 112.104 102.473 112.063 102.49 112.026C102.507 111.988 102.532 111.955 102.563 111.927C102.594 111.9 102.63 111.88 102.67 111.869C102.709 111.857 102.751 111.854 102.792 111.86L106.222 112.359C106.289 112.368 106.351 112.402 106.396 112.454C106.441 112.505 106.466 112.571 106.466 112.64L106.908 120.692C106.908 120.73 106.901 120.767 106.886 120.802C106.872 120.837 106.851 120.869 106.825 120.896C106.798 120.923 106.766 120.944 106.732 120.959C106.697 120.973 106.659 120.981 106.622 120.981H105.697C105.629 120.981 105.563 120.957 105.511 120.912C105.46 120.868 105.425 120.806 105.415 120.739C105.415 120.739 104.717 114.699 104.621 114.702C104.525 114.704 103.952 120.908 103.952 120.908C103.943 120.978 103.91 121.042 103.857 121.088C103.805 121.135 103.738 121.16 103.668 121.161C103.663 121.161 103.659 121.161 103.654 121.16Z" fill="#2F2E41"/>
<path d="M106.21 107.833C106.175 107.808 106.147 107.776 106.126 107.738C106.106 107.701 106.094 107.659 106.092 107.617L105.984 105.652C105.973 105.457 106.035 105.265 106.157 105.114C106.279 104.962 106.452 104.86 106.645 104.829C106.837 104.798 107.034 104.84 107.197 104.945C107.361 105.051 107.479 105.214 107.53 105.402L108.006 107.159C108.025 107.232 108.015 107.31 107.978 107.376C107.94 107.442 107.878 107.49 107.805 107.51L106.452 107.877C106.411 107.889 106.368 107.89 106.326 107.883C106.284 107.875 106.244 107.858 106.21 107.833V107.833Z" fill="#05264E"/>
<path d="M104.947 103.163C105.809 103.163 106.507 102.464 106.507 101.6C106.507 100.737 105.809 100.037 104.947 100.037C104.085 100.037 103.387 100.737 103.387 101.6C103.387 102.464 104.085 103.163 104.947 103.163Z" fill="#FFB7B7"/>
<path d="M106.05 102.837C105.984 102.908 105.9 102.958 105.808 102.982C105.715 103.006 105.617 103.004 105.526 102.974C105.434 102.945 105.353 102.89 105.292 102.816C105.231 102.742 105.192 102.652 105.18 102.557C105.177 102.524 105.177 102.49 105.181 102.458C105.2 102.27 105.309 102.099 105.283 101.901C105.277 101.851 105.258 101.804 105.229 101.764C104.997 101.453 104.453 101.903 104.234 101.621C104.1 101.449 104.258 101.177 104.155 100.984C104.019 100.729 103.616 100.855 103.364 100.715C103.083 100.56 103.099 100.128 103.284 99.8653C103.405 99.7101 103.558 99.5834 103.733 99.4942C103.907 99.405 104.1 99.3556 104.296 99.3494C104.688 99.3401 105.078 99.4164 105.439 99.5728C105.864 99.7115 106.24 99.9723 106.519 100.323C106.663 100.553 106.754 100.812 106.786 101.082C106.818 101.351 106.79 101.625 106.703 101.882C106.609 102.198 106.287 102.583 106.05 102.837Z" fill="#2F2E41"/>
<path d="M106.503 104.207C106.476 104.188 106.448 104.169 106.42 104.15C106.27 104.05 106.108 103.97 105.937 103.913V103.502H104.731V103.883C104.33 103.994 103.972 104.22 103.699 104.533C103.426 104.846 103.251 105.233 103.196 105.645L102.374 111.757C102.369 111.796 102.371 111.835 102.381 111.872C102.391 111.909 102.409 111.944 102.433 111.974C102.456 112.004 102.486 112.029 102.519 112.047C102.552 112.065 102.589 112.077 102.627 112.08C103.203 112.155 103.757 112.345 104.258 112.64C104.622 112.842 105.031 112.946 105.446 112.944C105.776 112.943 106.103 112.884 106.414 112.771C106.466 112.752 106.512 112.717 106.545 112.672C106.578 112.627 106.597 112.573 106.599 112.517C106.628 111.859 106.802 108.473 107.306 106.407C107.403 106.002 107.38 105.577 107.237 105.186C107.094 104.794 106.838 104.454 106.503 104.207Z" fill="#05264E"/>
<path d="M115.405 91.8686H90.3948L87.3633 79.7207H118.436L115.405 91.8686Z" fill="#05264E"/>
<path d="M114.551 112.644H91.2461V124.81H114.551V112.644Z" fill="white"/>
<path d="M114.74 125H91.0566V112.454H114.74V125ZM91.4356 124.62H114.361V112.833H91.4356V124.62Z" fill="#05264E"/>
<path d="M107.676 93.3011H98.1219L97.0254 91.575H108.773L107.676 93.3011Z" fill="#05264E"/>
<path d="M90.9629 91.8687H90.584V110.47H90.9629V91.8687Z" fill="#05264E"/>
<path d="M115.215 91.8687H114.836V110.47H115.215V91.8687Z" fill="#05264E"/>
<path d="M106.698 79.515L106.467 79.2144C117.414 70.7571 130.464 56.2684 130.464 35.2724C130.472 27.9188 128.314 20.7263 124.258 14.597C120.203 8.46762 114.431 3.67428 107.667 0.818098L107.814 0.468506C114.647 3.35367 120.477 8.19565 124.574 14.3872C128.671 20.5788 130.851 27.8442 130.843 35.2724C130.843 56.4227 117.713 71.0057 106.698 79.515Z" fill="#05264E"/>
<path d="M94.5712 79.5149L94.3398 79.2143C105.287 70.757 118.337 56.2683 118.337 35.2723C118.34 27.9681 116.207 20.8231 112.202 14.7197C108.196 8.61638 102.494 3.82208 95.7996 0.929048L95.9498 0.580566C102.712 3.50296 108.473 8.3459 112.518 14.5112C116.564 20.6765 118.719 27.894 118.716 35.2723C118.716 56.4226 105.586 71.0057 94.5712 79.5149Z" fill="#05264E"/>
<path d="M110.09 79.5149C99.0752 71.0057 85.9453 56.4227 85.9453 35.2723C85.9423 27.894 88.0968 20.6764 92.1428 14.5111C96.1887 8.34583 101.949 3.5029 108.712 0.580566L108.862 0.929046C102.167 3.82203 96.4648 8.61632 92.4595 14.7197C88.4542 20.8231 86.3213 27.9681 86.3243 35.2723C86.3243 56.2684 99.3739 70.757 110.321 79.2143L110.09 79.5149Z" fill="#05264E"/>
<path d="M97.9648 79.5149C86.9502 71.0056 73.8204 56.4227 73.8204 35.2723C73.808 27.8148 76.004 20.5212 80.1305 14.3144C84.257 8.10755 90.1286 3.26643 97.0023 0.403564L97.1484 0.753898C90.3438 3.58798 84.5311 8.38046 80.4461 14.5249C76.361 20.6694 74.1871 27.8897 74.1993 35.2723C74.1993 56.2685 87.249 70.757 98.1962 79.2142L97.9648 79.5149Z" fill="#05264E"/>
<path d="M102.52 0H102.141V79.7207H102.52V0Z" fill="#05264E"/>
<path d="M98.0619 109.885L91.1133 116.846L91.3812 117.115L98.3299 110.153L98.0619 109.885Z" fill="#05264E"/>
<path d="M101.439 109.769L91.1094 120.653L91.384 120.914L101.713 110.031L101.439 109.769Z" fill="#05264E"/>
<path d="M116.731 109.901H88.3105V113.317H116.731V109.901Z" fill="white"/>
<path d="M116.921 113.507H88.1211V109.711H116.921V113.507ZM88.5 113.128H116.542V110.091H88.5V113.128Z" fill="#05264E"/>
<path d="M97.503 111.49C97.5789 111.484 97.6528 111.462 97.7194 111.425C97.786 111.388 97.8437 111.337 97.8884 111.276C97.9332 111.214 97.9638 111.143 97.9783 111.068C97.9927 110.993 97.9906 110.916 97.9721 110.842L99.5206 109.826L98.6374 109.443L97.3023 110.467C97.1803 110.507 97.077 110.59 97.0119 110.7C96.9468 110.811 96.9246 110.942 96.9493 111.068C96.974 111.194 97.044 111.306 97.1461 111.384C97.2481 111.462 97.3751 111.499 97.503 111.49H97.503Z" fill="#9F616A"/>
<path d="M98.992 110.758L98.9725 110.744C98.6039 110.472 98.1948 110.191 97.7992 109.919L97.7754 109.903L97.7941 109.881C98.6386 108.891 99.484 107.857 100.302 106.857L100.3 106.853L100.308 106.85L100.311 106.846L100.313 106.847L100.318 106.844L100.296 106.846L100.043 104.866C99.9187 104.66 99.855 104.423 99.8598 104.182C99.8646 103.941 99.9377 103.707 100.071 103.506C100.224 103.29 100.451 103.137 100.709 103.078C100.967 103.019 101.238 103.057 101.47 103.186C101.584 103.263 101.68 103.365 101.749 103.484C101.819 103.602 101.861 103.736 101.873 103.873C101.889 103.995 101.878 104.12 101.84 104.237C101.802 104.355 101.738 104.462 101.653 104.552C101.74 105.513 101.779 106.478 101.769 107.443L101.769 107.452L101.763 107.459C100.891 108.569 99.9337 109.672 99.0077 110.74L98.992 110.758Z" fill="#CBCBCB"/>
<path d="M99.2924 104.671C99.3002 104.705 99.3053 104.74 99.3076 104.775L102.036 106.353L102.7 105.97L103.407 106.897L101.988 107.91L98.8747 105.45C98.7477 105.497 98.6094 105.504 98.4783 105.471C98.3471 105.437 98.2292 105.364 98.1403 105.262C98.0515 105.16 97.9958 105.033 97.9807 104.898C97.9656 104.763 97.9919 104.627 98.0559 104.508C98.12 104.388 98.2189 104.291 98.3394 104.229C98.4599 104.167 98.5963 104.144 98.7305 104.162C98.8647 104.179 98.9904 104.238 99.0908 104.329C99.1911 104.42 99.2614 104.539 99.2924 104.671H99.2924Z" fill="#FFB7B7"/>
<path d="M102.134 106.219C102.13 106.176 102.135 106.133 102.149 106.093C102.163 106.053 102.186 106.016 102.217 105.986L103.605 104.594C103.743 104.457 103.927 104.375 104.121 104.364C104.315 104.354 104.507 104.416 104.658 104.539C104.809 104.662 104.91 104.836 104.94 105.029C104.971 105.221 104.929 105.418 104.823 105.582L103.834 107.109C103.793 107.172 103.728 107.217 103.654 107.233C103.58 107.248 103.502 107.234 103.439 107.193L102.263 106.429C102.227 106.406 102.197 106.375 102.175 106.338C102.153 106.302 102.139 106.261 102.134 106.219V106.219Z" fill="#05264E"/>
<path d="M83.2387 92.6712C83.1899 92.6712 83.1429 92.6526 83.1072 92.6192C83.0716 92.5859 83.0498 92.5402 83.0464 92.4914C82.9203 90.7742 82.1515 89.1681 80.8939 87.9944C79.6363 86.8207 77.9827 86.166 76.264 86.1614C76.0583 86.1614 75.8422 86.1718 75.6217 86.1925C75.5848 86.196 75.5477 86.1887 75.5148 86.1716C75.482 86.1546 75.4547 86.1283 75.4363 86.0961C74.6468 84.7117 73.4678 83.5909 72.0464 82.8735C70.625 82.1561 69.0243 81.874 67.4439 82.0623C65.8634 82.2506 64.3734 82.901 63.1596 83.9324C61.9459 84.9637 61.0622 86.3303 60.6188 87.8616C60.6071 87.9026 60.5821 87.9386 60.5478 87.9639C60.5134 87.9891 60.4717 88.0022 60.4291 88.0011L60.3778 87.9995C60.3511 87.9986 60.3244 87.9977 60.2975 87.9977C58.9939 88.0017 57.7308 88.4523 56.7179 89.2744C55.705 90.0966 55.0031 91.241 54.7287 92.5178C54.7196 92.5612 54.6959 92.6001 54.6615 92.628C54.6271 92.656 54.5842 92.6712 54.5399 92.6712H41.6135C41.5881 92.6713 41.5629 92.6663 41.5395 92.6567C41.516 92.647 41.4946 92.6328 41.4767 92.6148C41.4587 92.5968 41.4444 92.5755 41.4347 92.552C41.4249 92.5285 41.4199 92.5033 41.4199 92.4779C41.4199 92.4525 41.4249 92.4273 41.4347 92.4038C41.4444 92.3803 41.4587 92.359 41.4767 92.341C41.4946 92.3231 41.516 92.3088 41.5395 92.2992C41.5629 92.2895 41.5881 92.2845 41.6135 92.2846H54.3855C54.707 90.9566 55.4633 89.7747 56.5337 88.9276C57.6041 88.0805 58.9268 87.617 60.2909 87.6111C60.7765 86.0375 61.7078 84.639 62.9717 83.5856C64.2356 82.5321 65.7777 81.8691 67.4106 81.6769C69.0435 81.4848 70.6969 81.7719 72.1701 82.5033C73.6432 83.2347 74.8726 84.379 75.709 85.797C75.8988 85.7822 76.085 85.7748 76.264 85.7748C78.0803 85.7797 79.8278 86.4716 81.1568 87.7119C82.4857 88.9523 83.2981 90.6497 83.4314 92.4644C83.4331 92.4897 83.4299 92.5151 83.4219 92.5392C83.4139 92.5633 83.4012 92.5855 83.3846 92.6047C83.3679 92.6239 83.3477 92.6396 83.325 92.6509C83.3024 92.6622 83.2777 92.669 83.2524 92.6707C83.2478 92.6711 83.2432 92.6712 83.2387 92.6712Z" fill="#CBCBCB"/>
<path d="M80.9425 95.1495H49.299C49.2736 95.1496 49.2485 95.1447 49.225 95.135C49.2015 95.1253 49.1802 95.1111 49.1622 95.0931C49.1442 95.0752 49.1299 95.0538 49.1202 95.0303C49.1105 95.0069 49.1055 94.9817 49.1055 94.9562C49.1055 94.9308 49.1105 94.9056 49.1202 94.8821C49.1299 94.8586 49.1442 94.8373 49.1622 94.8193C49.1802 94.8014 49.2015 94.7872 49.225 94.7775C49.2485 94.7678 49.2736 94.7629 49.299 94.7629H80.9425C80.9937 94.7629 81.0427 94.7833 81.0789 94.8196C81.1151 94.8558 81.1354 94.905 81.1354 94.9562C81.1354 95.0075 81.1151 95.0567 81.0789 95.0929C81.0427 95.1292 80.9937 95.1495 80.9425 95.1495Z" fill="#CBCBCB"/>
<path d="M57.0166 97.9523H46.4045C46.3791 97.9524 46.3539 97.9474 46.3305 97.9377C46.307 97.928 46.2856 97.9138 46.2677 97.8959C46.2497 97.8779 46.2354 97.8566 46.2257 97.8331C46.2159 97.8096 46.2109 97.7844 46.2109 97.759C46.2109 97.7335 46.2159 97.7084 46.2257 97.6849C46.2354 97.6614 46.2497 97.64 46.2677 97.6221C46.2856 97.6041 46.307 97.5899 46.3305 97.5802C46.3539 97.5705 46.3791 97.5656 46.4045 97.5657H57.0166C57.042 97.5656 57.0672 97.5705 57.0907 97.5802C57.1141 97.5899 57.1355 97.6041 57.1535 97.6221C57.1714 97.64 57.1857 97.6614 57.1954 97.6849C57.2052 97.7084 57.2102 97.7335 57.2102 97.759C57.2102 97.7844 57.2052 97.8096 57.1954 97.8331C57.1857 97.8566 57.1714 97.8779 57.1535 97.8959C57.1355 97.9138 57.1141 97.928 57.0907 97.9377C57.0672 97.9474 57.042 97.9524 57.0166 97.9523V97.9523Z" fill="#CBCBCB"/>
</g>
<defs>
<clipPath id="clip0_176_6763">
<rect width="164" height="125" fill="white"/>
</clipPath>
</defs>
</svg>
