<svg width="16" height="16" viewBox="0 0 16 16" fill="none" xmlns="http://www.w3.org/2000/svg">
<path d="M13.5002 8C13.4998 7.18956 13.3203 6.38922 12.9745 5.65624C12.6288 4.92325 12.1253 4.27573 11.5002 3.76V1.5C11.5002 1.23478 11.3948 0.98043 11.2073 0.792893C11.0197 0.605357 10.7654 0.5 10.5002 0.5H5.50015C5.23493 0.5 4.98058 0.605357 4.79304 0.792893C4.60551 0.98043 4.50015 1.23478 4.50015 1.5V3.76C3.87205 4.27594 3.36611 4.92468 3.01875 5.65956C2.67138 6.39443 2.49121 7.19716 2.49121 8.01C2.49121 8.82284 2.67138 9.62557 3.01875 10.3604C3.36611 11.0953 3.87205 11.7441 4.50015 12.26V14.5C4.50015 14.7652 4.60551 15.0196 4.79304 15.2071C4.98058 15.3946 5.23493 15.5 5.50015 15.5H10.5002C10.7654 15.5 11.0197 15.3946 11.2073 15.2071C11.3948 15.0196 11.5002 14.7652 11.5002 14.5V12.24C12.1253 11.7243 12.6288 11.0767 12.9745 10.3438C13.3203 9.61077 13.4998 8.81044 13.5002 8ZM5.50015 1.5H10.5002V3.105C9.72673 2.70758 8.8697 2.50027 8.00015 2.50027C7.1306 2.50027 6.27357 2.70758 5.50015 3.105V1.5ZM3.50015 8C3.50015 7.10998 3.76407 6.23995 4.25854 5.49993C4.753 4.75991 5.45581 4.18314 6.27808 3.84254C7.10034 3.50195 8.00514 3.41283 8.87806 3.58647C9.75097 3.7601 10.5528 4.18868 11.1821 4.81802C11.8115 5.44736 12.2401 6.24918 12.4137 7.12209C12.5873 7.99501 12.4982 8.89981 12.1576 9.72208C11.817 10.5443 11.2402 11.2471 10.5002 11.7416C9.7602 12.2361 8.89017 12.5 8.00015 12.5C6.80668 12.5 5.66208 12.0259 4.81817 11.182C3.97426 10.3381 3.50015 9.19347 3.50015 8ZM10.5002 14.5H5.50015V12.895C6.27357 13.2924 7.1306 13.4997 8.00015 13.4997C8.8697 13.4997 9.72673 13.2924 10.5002 12.895V14.5Z" fill="#66789C"/>
<path d="M9.06001 9.765C9.15369 9.85813 9.28042 9.9104 9.41251 9.9104C9.5446 9.9104 9.67133 9.85813 9.76501 9.765C9.85813 9.67132 9.9104 9.54459 9.9104 9.4125C9.9104 9.28041 9.85813 9.15368 9.76501 9.06L8.50001 7.795V6C8.50001 5.86739 8.44733 5.74021 8.35356 5.64645C8.25979 5.55268 8.13262 5.5 8.00001 5.5C7.8674 5.5 7.74022 5.55268 7.64646 5.64645C7.55269 5.74021 7.50001 5.86739 7.50001 6V8C7.49963 8.0658 7.51224 8.13103 7.53712 8.19195C7.56201 8.25287 7.59867 8.30828 7.64501 8.355L9.06001 9.765Z" fill="#66789C"/>
</svg>
