<svg width="20" height="20" viewBox="0 0 20 20" fill="none" xmlns="http://www.w3.org/2000/svg">
<path d="M18.3331 10.2015C18.3331 9.63854 18.2775 9.05746 18.1849 8.5127H10.1641V11.7268H14.758C14.5727 12.7618 13.9615 13.6698 13.0538 14.2509L15.7953 16.3391C17.4069 14.8683 18.3331 12.7255 18.3331 10.2015Z" fill="#4280EF"/>
<path d="M10.1631 18.3367C12.4601 18.3367 14.3866 17.5922 15.7944 16.321L13.0529 14.2509C12.2934 14.7594 11.3116 15.0499 10.1631 15.0499C7.94028 15.0499 6.06937 13.5791 5.38398 11.6179L2.56836 13.7425C4.01322 16.5571 6.93999 18.3367 10.1631 18.3367Z" fill="#34A353"/>
<path d="M5.38468 11.5997C5.03273 10.5646 5.03273 9.43877 5.38468 8.40372L2.56905 6.26099C1.365 8.62163 1.365 11.3999 2.56905 13.7424L5.38468 11.5997Z" fill="#F6B704"/>
<path d="M10.1631 4.97172C11.3672 4.95356 12.5527 5.40753 13.4233 6.22467L15.85 3.82772C14.3125 2.41133 12.2749 1.64866 10.1631 1.66682C6.93999 1.66682 4.01322 3.44638 2.56836 6.26099L5.38399 8.40373C6.06937 6.42442 7.94028 4.97172 10.1631 4.97172Z" fill="#E54335"/>
</svg>
