<svg width="16" height="16" viewBox="0 0 16 16" fill="none" xmlns="http://www.w3.org/2000/svg">
<path d="M10.25 7.99999C9.54291 7.68054 8.7759 7.51532 8 7.51532C7.2241 7.51532 6.45709 7.68054 5.75 7.99999C4.78486 8.43267 3.96496 9.13447 3.38853 10.0213C2.8121 10.9081 2.5036 11.9423 2.5 13V14C2.5 14.3978 2.65804 14.7793 2.93934 15.0606C3.22064 15.342 3.60218 15.5 4 15.5H12C12.3978 15.5 12.7794 15.342 13.0607 15.0606C13.342 14.7793 13.5 14.3978 13.5 14V13C13.4964 11.9423 13.1879 10.9081 12.6115 10.0213C12.035 9.13447 11.2151 8.43267 10.25 7.99999ZM9.14 8.64999L8 9.79499L6.86 8.64999C7.60683 8.44989 8.39317 8.44989 9.14 8.64999ZM8 14.22L7.33 13.415L8 11.8L8.67 13.415L8 14.22ZM3.5 14V13C3.50008 12.1917 3.71788 11.3983 4.13052 10.7032C4.54316 10.0082 5.1354 9.43708 5.845 9.04999L7.41 10.615L6.29 13.31C6.25694 13.3925 6.24646 13.4823 6.25964 13.5702C6.27283 13.658 6.30919 13.7408 6.365 13.81L6.935 14.5H4C3.86739 14.5 3.74021 14.4473 3.64645 14.3535C3.55268 14.2598 3.5 14.1326 3.5 14ZM12.5 14C12.5 14.1326 12.4473 14.2598 12.3536 14.3535C12.2598 14.4473 12.1326 14.5 12 14.5H9.065L9.635 13.82C9.69081 13.7508 9.72717 13.668 9.74036 13.5802C9.75354 13.4923 9.74306 13.4025 9.71 13.32L8.59 10.625L10.155 9.05999C10.8631 9.44627 11.4544 10.0158 11.8669 10.7089C12.2795 11.4021 12.4981 12.1934 12.5 13V14Z" fill="#66789C"/>
<path d="M8 6.5C8.59334 6.5 9.17336 6.32405 9.66671 5.99441C10.1601 5.66477 10.5446 5.19623 10.7716 4.64805C10.9987 4.09987 11.0581 3.49667 10.9424 2.91473C10.8266 2.33279 10.5409 1.79824 10.1213 1.37868C9.70176 0.959123 9.16721 0.673401 8.58527 0.557646C8.00333 0.44189 7.40013 0.5013 6.85195 0.728363C6.30377 0.955426 5.83524 1.33994 5.50559 1.83329C5.17595 2.32664 5 2.90666 5 3.5C5 4.29565 5.31607 5.05871 5.87868 5.62132C6.44129 6.18393 7.20435 6.5 8 6.5ZM8 1.5C8.39556 1.5 8.78224 1.6173 9.11114 1.83706C9.44004 2.05682 9.69638 2.36918 9.84776 2.73463C9.99913 3.10009 10.0387 3.50222 9.96157 3.89018C9.8844 4.27814 9.69392 4.63451 9.41421 4.91422C9.13451 5.19392 8.77814 5.3844 8.39018 5.46157C8.00222 5.53874 7.60009 5.49914 7.23463 5.34776C6.86918 5.19639 6.55682 4.94004 6.33706 4.61114C6.1173 4.28224 6 3.89556 6 3.5C6 2.96957 6.21071 2.46086 6.58579 2.08579C6.96086 1.71071 7.46957 1.5 8 1.5Z" fill="#66789C"/>
</svg>
