<svg width="539" height="232" viewBox="0 0 539 232" fill="none" xmlns="http://www.w3.org/2000/svg">
<g clip-path="url(#clip0_176_6595)">
<path d="M15.0605 203.142C15.0623 200.805 15.9921 198.564 17.6454 196.912C19.2988 195.26 21.5405 194.332 23.8778 194.332C26.2152 194.332 28.4568 195.26 30.1102 196.912C31.7636 198.564 32.6933 200.805 32.6951 203.142" fill="#F2F2F2"/>
<path d="M23.8789 203.142C23.8157 203.142 23.7551 203.117 23.7104 203.072C23.6657 203.028 23.6406 202.967 23.6406 202.904V198.257C23.6406 198.194 23.6657 198.133 23.7104 198.088C23.7551 198.044 23.8157 198.019 23.8789 198.019C23.9421 198.019 24.0027 198.044 24.0474 198.088C24.0921 198.133 24.1172 198.194 24.1172 198.257V202.904C24.1172 202.967 24.0921 203.028 24.0474 203.072C24.0027 203.117 23.9421 203.142 23.8789 203.142V203.142Z" fill="#CCCCCC"/>
<path d="M23.8788 201.545C23.8218 201.545 23.7668 201.525 23.7236 201.488L20.864 199.034C20.8399 199.013 20.8201 198.988 20.8057 198.96C20.7913 198.932 20.7826 198.902 20.7801 198.871C20.7775 198.839 20.7812 198.808 20.791 198.778C20.8007 198.748 20.8163 198.72 20.8368 198.696C20.8573 198.672 20.8823 198.653 20.9104 198.639C20.9385 198.624 20.9692 198.616 21.0006 198.614C21.0319 198.611 21.0635 198.615 21.0933 198.625C21.1232 198.635 21.1507 198.651 21.1744 198.672L24.0341 201.126C24.071 201.158 24.0974 201.2 24.1096 201.247C24.1218 201.295 24.1193 201.344 24.1023 201.39C24.0854 201.436 24.0549 201.475 24.0149 201.503C23.975 201.531 23.9274 201.545 23.8787 201.545L23.8788 201.545Z" fill="#CCCCCC"/>
<path d="M42.2266 203.142C42.2283 200.805 43.1581 198.564 44.8115 196.912C46.4648 195.26 48.7065 194.332 51.0438 194.332C53.3812 194.332 55.6229 195.26 57.2762 196.912C58.9296 198.564 59.8593 200.805 59.8611 203.142" fill="#F2F2F2"/>
<path d="M51.0449 203.142C50.9817 203.142 50.9211 203.117 50.8764 203.072C50.8317 203.028 50.8066 202.967 50.8066 202.904V198.257C50.8066 198.194 50.8317 198.133 50.8764 198.088C50.9211 198.044 50.9817 198.019 51.0449 198.019C51.1081 198.019 51.1688 198.044 51.2135 198.088C51.2581 198.133 51.2833 198.194 51.2833 198.257V202.904C51.2832 202.967 51.2581 203.028 51.2134 203.072C51.1687 203.117 51.1081 203.142 51.0449 203.142V203.142Z" fill="#CCCCCC"/>
<path d="M51.045 201.545C50.988 201.545 50.933 201.525 50.8898 201.488L48.0302 199.033C48.0061 199.013 47.9862 198.988 47.9718 198.96C47.9574 198.932 47.9486 198.902 47.9461 198.87C47.9435 198.839 47.9473 198.807 47.957 198.777C47.9667 198.748 47.9823 198.72 48.0028 198.696C48.0233 198.672 48.0484 198.652 48.0765 198.638C48.1046 198.624 48.1353 198.616 48.1667 198.613C48.1981 198.611 48.2296 198.615 48.2595 198.625C48.2894 198.635 48.3169 198.651 48.3406 198.672L51.2003 201.126C51.2372 201.158 51.2636 201.2 51.2758 201.247C51.288 201.294 51.2855 201.344 51.2685 201.39C51.2516 201.436 51.2211 201.475 51.1811 201.503C51.1412 201.53 51.0936 201.545 51.0449 201.545L51.045 201.545Z" fill="#CCCCCC"/>
<path d="M403.123 34.5744C412.485 34.5744 420.074 26.9852 420.074 17.6234C420.074 8.26159 412.485 0.672363 403.123 0.672363C393.761 0.672363 386.172 8.26159 386.172 17.6234C386.172 26.9852 393.761 34.5744 403.123 34.5744Z" fill="#F2F2F2"/>
<path d="M55.8846 222.063C64.3953 222.063 71.2946 220.453 71.2946 218.467C71.2946 216.481 64.3953 214.872 55.8846 214.872C47.3739 214.872 40.4746 216.481 40.4746 218.467C40.4746 220.453 47.3739 222.063 55.8846 222.063Z" fill="#F2F2F2"/>
<path d="M48.0187 70.8666C52.0602 58.2466 61.9287 48.4593 73.6321 42.6381C87.5181 35.7313 103.475 34.9493 118.552 37.6374C134.828 40.5393 150.04 47.2288 164.764 54.5291C179.207 61.6896 193.417 69.2506 208.437 75.168C238.423 86.9647 270.205 93.5481 302.41 94.6337C331.397 95.6007 362.389 92.4246 387.209 76.1324C409.95 61.2043 424.421 36.5772 431.958 10.9061C432.923 7.61963 433.781 4.30489 434.531 0.96188C434.75 -0.00377366 433.265 -0.416072 433.045 0.552222C426.966 27.3593 414.001 53.8539 391.85 70.9421C367.892 89.4239 336.449 93.6964 307.025 93.2075C274.468 92.6391 242.257 86.4231 211.826 74.8366C196.42 68.9714 181.881 61.3553 167.158 54.0025C152.758 46.8112 137.953 40.0795 122.118 36.7628C107.659 33.7342 92.1776 33.5497 78.2366 38.9389C66.7572 43.3765 56.2904 51.2863 50.165 62.1066C48.6714 64.7583 47.4543 67.5564 46.5327 70.457C46.2296 71.4037 47.7169 71.8089 48.0187 70.8666V70.8666Z" fill="#F2F2F2"/>
<path d="M268.023 188.865C268.159 188.865 268.29 188.811 268.386 188.714C268.483 188.618 268.537 188.487 268.537 188.351C268.537 188.215 268.483 188.084 268.386 187.988C268.29 187.891 268.159 187.837 268.023 187.837H263.143V185.783H268.023C268.159 185.783 268.29 185.729 268.386 185.632C268.483 185.536 268.537 185.405 268.537 185.269C268.537 185.133 268.483 185.002 268.386 184.906C268.29 184.809 268.159 184.755 268.023 184.755H226.416C226.28 184.755 226.149 184.809 226.053 184.906C225.956 185.002 225.902 185.133 225.902 185.269C225.902 185.405 225.956 185.536 226.053 185.632C226.149 185.729 226.28 185.783 226.416 185.783H231.296V187.837H226.416C226.28 187.837 226.149 187.891 226.053 187.988C225.956 188.084 225.902 188.215 225.902 188.351C225.902 188.487 225.956 188.618 226.053 188.714C226.149 188.811 226.28 188.865 226.416 188.865H231.296V190.919H226.416C226.28 190.919 226.149 190.974 226.053 191.07C225.956 191.166 225.902 191.297 225.902 191.433C225.902 191.569 225.956 191.7 226.053 191.796C226.149 191.893 226.28 191.947 226.416 191.947H231.296V194.001H226.93C226.657 194.001 226.396 194.11 226.203 194.302C226.011 194.495 225.902 194.756 225.902 195.029C225.902 195.301 226.011 195.563 226.203 195.755C226.396 195.948 226.657 196.056 226.93 196.056H231.086C231.056 196.138 231.04 196.225 231.039 196.313V203.504C231.039 203.709 231.12 203.905 231.265 204.049C231.409 204.194 231.605 204.275 231.81 204.275C232.014 204.275 232.21 204.194 232.354 204.049C232.499 203.905 232.58 203.709 232.58 203.504V196.313C232.579 196.225 232.563 196.138 232.533 196.056H261.906C261.876 196.138 261.86 196.225 261.859 196.313V203.504C261.859 203.709 261.94 203.905 262.085 204.049C262.229 204.194 262.425 204.275 262.63 204.275C262.834 204.275 263.03 204.194 263.174 204.049C263.319 203.905 263.4 203.709 263.4 203.504V196.313C263.399 196.225 263.383 196.138 263.353 196.056H267.509C267.782 196.056 268.043 195.948 268.236 195.755C268.428 195.563 268.537 195.301 268.537 195.029C268.537 194.756 268.428 194.495 268.236 194.302C268.043 194.11 267.782 194.001 267.509 194.001H263.143V191.947H268.023C268.159 191.947 268.29 191.893 268.386 191.796C268.483 191.7 268.537 191.569 268.537 191.433C268.537 191.297 268.483 191.166 268.386 191.07C268.29 190.974 268.159 190.919 268.023 190.919H263.143V188.865H268.023ZM232.323 185.783H262.116V187.837H232.323V185.783ZM262.116 194.001H232.323V191.947H262.116V194.001ZM262.116 190.919H232.323V188.865H262.116V190.919Z" fill="#3F3D56"/>
<path d="M111.361 167.305C111.361 158.233 104.002 136.706 94.9237 136.706C85.8456 136.706 78.4863 158.233 78.4863 167.305C78.4863 171.665 80.2181 175.845 83.3007 178.928C86.3833 182.011 90.5642 183.742 94.9237 183.742C99.2832 183.742 103.464 182.011 106.547 178.928C109.629 175.845 111.361 171.665 111.361 167.305H111.361Z" fill="#E6E6E6"/>
<path d="M107.252 167.305C107.252 158.233 99.8924 136.706 90.8143 136.706C81.7362 136.706 74.377 158.233 74.377 167.305C74.377 171.665 76.1087 175.845 79.1913 178.928C82.2739 182.011 86.4549 183.742 90.8143 183.742C95.1738 183.742 99.3547 182.011 102.437 178.928C105.52 175.845 107.252 171.665 107.252 167.305H107.252Z" fill="#F2F2F2"/>
<path d="M91.3281 204.058C91.1919 204.058 91.0612 204.004 90.9649 203.908C90.8686 203.812 90.8145 203.681 90.8145 203.545V157.756C90.8145 157.62 90.8686 157.489 90.9649 157.393C91.0612 157.297 91.1919 157.242 91.3281 157.242C91.4644 157.242 91.595 157.297 91.6913 157.393C91.7877 157.489 91.8418 157.62 91.8418 157.756V203.545C91.8418 203.681 91.7877 203.812 91.6913 203.908C91.595 204.004 91.4644 204.058 91.3281 204.058Z" fill="#CCCCCC"/>
<path d="M91.328 165.262C91.2264 165.262 91.1271 165.232 91.0427 165.176C90.9582 165.119 90.8924 165.039 90.8536 164.945C90.8147 164.851 90.8045 164.748 90.8243 164.649C90.8441 164.549 90.893 164.457 90.9649 164.386L97.6824 157.668C97.7787 157.571 97.9094 157.517 98.0456 157.517C98.1818 157.517 98.3124 157.571 98.4088 157.668C98.5051 157.764 98.5592 157.895 98.5592 158.031C98.5592 158.167 98.5051 158.298 98.4088 158.394L91.6912 165.112C91.6436 165.16 91.587 165.198 91.5246 165.223C91.4623 165.249 91.3955 165.263 91.328 165.262V165.262Z" fill="#CCCCCC"/>
<path d="M280.357 204.058C280.221 204.058 280.091 204.004 279.994 203.908C279.898 203.812 279.844 203.681 279.844 203.545V157.756C279.844 157.62 279.898 157.489 279.994 157.393C280.091 157.297 280.221 157.242 280.357 157.242C280.494 157.242 280.624 157.297 280.721 157.393C280.817 157.489 280.871 157.62 280.871 157.756V203.545C280.871 203.681 280.817 203.812 280.721 203.908C280.624 204.004 280.494 204.058 280.357 204.058Z" fill="#3F3D56"/>
<path d="M335.32 167.305C335.32 158.233 327.961 136.706 318.883 136.706C309.805 136.706 302.445 158.233 302.445 167.305C302.445 171.665 304.177 175.845 307.26 178.928C310.342 182.011 314.523 183.742 318.883 183.742C323.242 183.742 327.423 182.011 330.506 178.928C333.588 175.845 335.32 171.665 335.32 167.305H335.32Z" fill="#E6E6E6"/>
<path d="M331.211 167.305C331.211 158.233 323.851 136.706 314.773 136.706C305.695 136.706 298.336 158.233 298.336 167.305C298.336 171.665 300.068 175.845 303.15 178.928C306.233 182.011 310.414 183.742 314.773 183.742C319.133 183.742 323.314 182.011 326.396 178.928C329.479 175.845 331.211 171.665 331.211 167.305H331.211Z" fill="#F2F2F2"/>
<path d="M315.287 204.058C315.151 204.058 315.02 204.004 314.924 203.908C314.828 203.812 314.773 203.681 314.773 203.545V157.756C314.773 157.62 314.828 157.489 314.924 157.393C315.02 157.297 315.151 157.242 315.287 157.242C315.423 157.242 315.554 157.297 315.65 157.393C315.747 157.489 315.801 157.62 315.801 157.756V203.545C315.801 203.681 315.747 203.812 315.65 203.908C315.554 204.004 315.423 204.058 315.287 204.058Z" fill="#CCCCCC"/>
<path d="M315.287 165.262C315.185 165.262 315.086 165.232 315.002 165.176C314.917 165.119 314.851 165.039 314.813 164.945C314.774 164.851 314.763 164.748 314.783 164.649C314.803 164.549 314.852 164.457 314.924 164.386L321.641 157.668C321.738 157.571 321.868 157.517 322.005 157.517C322.141 157.517 322.271 157.571 322.368 157.668C322.464 157.764 322.518 157.895 322.518 158.031C322.518 158.167 322.464 158.298 322.368 158.394L315.65 165.112C315.603 165.16 315.546 165.198 315.484 165.223C315.421 165.249 315.354 165.263 315.287 165.262Z" fill="#CCCCCC"/>
<path d="M145.776 26.6126H137.558C136.945 26.6119 136.357 26.3681 135.924 25.9348C135.491 25.5015 135.247 24.9139 135.246 24.3011V5.29539C135.247 4.68255 135.491 4.09501 135.924 3.66166C136.357 3.22832 136.945 2.98457 137.558 2.98389H145.776C146.389 2.98457 146.977 3.22832 147.41 3.66166C147.843 4.09501 148.087 4.68255 148.088 5.29539V24.3011C148.087 24.9139 147.843 25.5015 147.41 25.9348C146.977 26.3681 146.389 26.6119 145.776 26.6126V26.6126Z" fill="#E6E6E6"/>
<path d="M178.137 203.828H136.017C134.859 203.826 133.749 203.366 132.931 202.547C132.112 201.729 131.652 200.619 131.65 199.462V29.4377C131.652 28.2801 132.112 27.1703 132.931 26.3518C133.749 25.5333 134.859 25.0728 136.017 25.0715H178.137C179.295 25.0728 180.405 25.5332 181.223 26.3518C182.042 27.1703 182.502 28.2801 182.503 29.4377V199.462C182.502 200.619 182.042 201.729 181.223 202.547C180.405 203.366 179.295 203.826 178.137 203.828V203.828Z" fill="#E6E6E6"/>
<path d="M152.967 203.828H110.847C109.689 203.826 108.579 203.366 107.761 202.547C106.942 201.729 106.482 200.619 106.48 199.462V29.4377C106.482 28.2801 106.942 27.1703 107.761 26.3518C108.579 25.5333 109.689 25.0728 110.847 25.0715H152.967C154.125 25.0728 155.235 25.5333 156.053 26.3518C156.872 27.1703 157.332 28.2801 157.334 29.4377V199.462C157.332 200.619 156.872 201.729 156.053 202.547C155.235 203.366 154.125 203.826 152.967 203.828V203.828Z" fill="#F2F2F2"/>
<path d="M138.071 26.6126H129.853C129.24 26.6119 128.652 26.3681 128.219 25.9348C127.785 25.5015 127.542 24.9139 127.541 24.3011V5.29539C127.542 4.68255 127.785 4.09501 128.219 3.66166C128.652 3.22832 129.24 2.98457 129.853 2.98389H138.071C138.684 2.98457 139.272 3.22832 139.705 3.66166C140.138 4.09501 140.382 4.68255 140.383 5.29539V24.3011C140.382 24.9139 140.138 25.5015 139.705 25.9348C139.272 26.3681 138.684 26.6119 138.071 26.6126V26.6126Z" fill="#F2F2F2"/>
<path d="M127.284 63.5965H117.524C117.184 63.5961 116.858 63.4607 116.617 63.22C116.376 62.9792 116.241 62.6528 116.24 62.3124V47.416C116.241 47.0755 116.376 46.7491 116.617 46.5084C116.858 46.2676 117.184 46.1322 117.524 46.1318H127.284C127.625 46.1322 127.951 46.2676 128.192 46.5084C128.432 46.7491 128.568 47.0755 128.568 47.416V62.3124C128.568 62.6528 128.432 62.9792 128.192 63.22C127.951 63.4607 127.625 63.5961 127.284 63.5965V63.5965Z" fill="white"/>
<path d="M146.29 63.5965H136.53C136.19 63.5961 135.863 63.4607 135.623 63.22C135.382 62.9792 135.246 62.6528 135.246 62.3124V47.416C135.246 47.0755 135.382 46.7491 135.623 46.5084C135.863 46.2676 136.19 46.1322 136.53 46.1318H146.29C146.63 46.1322 146.957 46.2676 147.198 46.5084C147.438 46.7491 147.574 47.0755 147.574 47.416V62.3124C147.574 62.6528 147.438 62.9792 147.198 63.22C146.957 63.4607 146.63 63.5961 146.29 63.5965V63.5965Z" fill="white"/>
<path d="M127.284 90.8209H117.524C117.184 90.8205 116.858 90.6851 116.617 90.4443C116.376 90.2036 116.241 89.8772 116.24 89.5367V74.6404C116.241 74.2999 116.376 73.9735 116.617 73.7328C116.858 73.492 117.184 73.3566 117.524 73.3562H127.284C127.625 73.3566 127.951 73.492 128.192 73.7328C128.432 73.9735 128.568 74.2999 128.568 74.6404V89.5367C128.568 89.8772 128.432 90.2036 128.192 90.4443C127.951 90.6851 127.625 90.8205 127.284 90.8209V90.8209Z" fill="white"/>
<path d="M146.29 90.8209H136.53C136.19 90.8205 135.863 90.6851 135.623 90.4443C135.382 90.2036 135.246 89.8772 135.246 89.5367V74.6404C135.246 74.2999 135.382 73.9735 135.623 73.7328C135.863 73.492 136.19 73.3566 136.53 73.3562H146.29C146.63 73.3566 146.957 73.492 147.198 73.7328C147.438 73.9735 147.574 74.2999 147.574 74.6404V89.5367C147.574 89.8772 147.438 90.2036 147.198 90.4443C146.957 90.6851 146.63 90.8205 146.29 90.8209V90.8209Z" fill="white"/>
<path d="M127.284 118.045H117.524C117.184 118.045 116.858 117.909 116.617 117.669C116.376 117.428 116.241 117.102 116.24 116.761V101.865C116.241 101.524 116.376 101.198 116.617 100.957C116.858 100.716 117.184 100.581 117.524 100.581H127.284C127.625 100.581 127.951 100.716 128.192 100.957C128.432 101.198 128.568 101.524 128.568 101.865V116.761C128.568 117.102 128.432 117.428 128.192 117.669C127.951 117.909 127.625 118.045 127.284 118.045V118.045Z" fill="white"/>
<path d="M146.29 118.045H136.53C136.19 118.045 135.863 117.909 135.623 117.669C135.382 117.428 135.246 117.102 135.246 116.761V101.865C135.246 101.524 135.382 101.198 135.623 100.957C135.863 100.716 136.19 100.581 136.53 100.581H146.29C146.63 100.581 146.957 100.716 147.198 100.957C147.438 101.198 147.574 101.524 147.574 101.865V116.761C147.574 117.102 147.438 117.428 147.198 117.669C146.957 117.909 146.63 118.045 146.29 118.045V118.045Z" fill="white"/>
<path d="M127.284 145.27H117.524C117.184 145.269 116.858 145.134 116.617 144.893C116.376 144.652 116.241 144.326 116.24 143.985V129.089C116.241 128.749 116.376 128.422 116.617 128.181C116.858 127.941 117.184 127.805 117.524 127.805H127.284C127.625 127.805 127.951 127.941 128.192 128.181C128.432 128.422 128.568 128.749 128.568 129.089V143.985C128.568 144.326 128.432 144.652 128.192 144.893C127.951 145.134 127.625 145.269 127.284 145.27V145.27Z" fill="white"/>
<path d="M146.29 145.27H136.53C136.19 145.269 135.863 145.134 135.623 144.893C135.382 144.652 135.246 144.326 135.246 143.985V129.089C135.246 128.749 135.382 128.422 135.623 128.181C135.863 127.941 136.19 127.805 136.53 127.805H146.29C146.63 127.805 146.957 127.941 147.198 128.181C147.438 128.422 147.574 128.749 147.574 129.089V143.985C147.574 144.326 147.438 144.652 147.198 144.893C146.957 145.134 146.63 145.269 146.29 145.27V145.27Z" fill="white"/>
<path d="M127.284 172.494H117.524C117.184 172.494 116.858 172.358 116.617 172.117C116.376 171.877 116.241 171.55 116.24 171.21V156.313C116.241 155.973 116.376 155.647 116.617 155.406C116.858 155.165 117.184 155.03 117.524 155.029H127.284C127.625 155.03 127.951 155.165 128.192 155.406C128.432 155.647 128.568 155.973 128.568 156.313V171.21C128.568 171.55 128.432 171.877 128.192 172.117C127.951 172.358 127.625 172.494 127.284 172.494V172.494Z" fill="white"/>
<path d="M146.29 172.494H136.53C136.19 172.494 135.863 172.358 135.623 172.117C135.382 171.877 135.246 171.55 135.246 171.21V156.313C135.246 155.973 135.382 155.647 135.623 155.406C135.863 155.165 136.19 155.03 136.53 155.029H146.29C146.63 155.03 146.957 155.165 147.198 155.406C147.438 155.647 147.574 155.973 147.574 156.313V171.21C147.574 171.55 147.438 171.877 147.198 172.117C146.957 172.358 146.63 172.494 146.29 172.494V172.494Z" fill="white"/>
<path d="M357.921 116.504H349.702C349.089 116.504 348.502 116.26 348.068 115.826C347.635 115.393 347.391 114.806 347.391 114.193V103.406C347.391 102.793 347.635 102.205 348.068 101.772C348.502 101.339 349.089 101.095 349.702 101.094H357.921C358.534 101.095 359.121 101.339 359.555 101.772C359.988 102.205 360.232 102.793 360.232 103.406V114.193C360.232 114.806 359.988 115.393 359.555 115.826C359.121 116.26 358.534 116.504 357.921 116.504Z" fill="#E6E6E6"/>
<path d="M427.266 204.341H385.145C383.988 204.34 382.878 203.88 382.06 203.061C381.241 202.243 380.781 201.133 380.779 199.975V118.302C380.781 117.145 381.241 116.035 382.06 115.216C382.878 114.398 383.988 113.937 385.145 113.936H427.266C428.424 113.937 429.534 114.398 430.352 115.216C431.171 116.035 431.631 117.145 431.632 118.302V199.975C431.631 201.133 431.171 202.243 430.352 203.061C429.534 203.88 428.424 204.34 427.266 204.341V204.341Z" fill="#E6E6E6"/>
<path d="M402.096 204.341H329.155C327.998 204.34 326.888 203.88 326.069 203.061C325.251 202.243 324.79 201.133 324.789 199.975V118.302C324.79 117.145 325.251 116.035 326.069 115.216C326.888 114.398 327.998 113.937 329.155 113.936H402.096C403.254 113.937 404.363 114.398 405.182 115.216C406 116.035 406.461 117.145 406.462 118.302V199.975C406.461 201.133 406 202.243 405.182 203.061C404.363 203.88 403.254 204.34 402.096 204.341V204.341Z" fill="#F2F2F2"/>
<path d="M350.216 116.504H341.997C341.384 116.504 340.797 116.26 340.363 115.826C339.93 115.393 339.686 114.806 339.686 114.193V103.406C339.686 102.793 339.93 102.205 340.363 101.772C340.797 101.339 341.384 101.095 341.997 101.094H350.216C350.829 101.095 351.416 101.339 351.849 101.772C352.283 102.205 352.527 102.793 352.527 103.406V114.193C352.527 114.806 352.283 115.393 351.849 115.826C351.416 116.26 350.829 116.504 350.216 116.504V116.504Z" fill="#F2F2F2"/>
<path d="M361.003 154.259H351.243C350.903 154.258 350.576 154.123 350.336 153.882C350.095 153.642 349.959 153.315 349.959 152.975V138.078C349.959 137.738 350.095 137.411 350.336 137.171C350.576 136.93 350.903 136.795 351.243 136.794H361.003C361.343 136.795 361.67 136.93 361.91 137.171C362.151 137.411 362.287 137.738 362.287 138.078V152.975C362.287 153.315 362.151 153.642 361.91 153.882C361.67 154.123 361.343 154.258 361.003 154.259V154.259Z" fill="white"/>
<path d="M380.009 154.259H370.249C369.909 154.258 369.582 154.123 369.341 153.882C369.101 153.642 368.965 153.315 368.965 152.975V138.078C368.965 137.738 369.101 137.411 369.341 137.171C369.582 136.93 369.909 136.795 370.249 136.794H380.009C380.349 136.795 380.676 136.93 380.916 137.171C381.157 137.411 381.292 137.738 381.293 138.078V152.975C381.292 153.315 381.157 153.642 380.916 153.882C380.676 154.123 380.349 154.258 380.009 154.259V154.259Z" fill="white"/>
<path d="M361.003 181.483H351.243C350.903 181.483 350.576 181.347 350.336 181.107C350.095 180.866 349.959 180.54 349.959 180.199V165.303C349.959 164.962 350.095 164.636 350.336 164.395C350.576 164.154 350.903 164.019 351.243 164.019H361.003C361.343 164.019 361.67 164.154 361.91 164.395C362.151 164.636 362.287 164.962 362.287 165.303V180.199C362.287 180.54 362.151 180.866 361.91 181.107C361.67 181.347 361.343 181.483 361.003 181.483V181.483Z" fill="white"/>
<path d="M380.009 181.483H370.249C369.909 181.483 369.582 181.347 369.341 181.107C369.101 180.866 368.965 180.54 368.965 180.199V165.303C368.965 164.962 369.101 164.636 369.341 164.395C369.582 164.154 369.909 164.019 370.249 164.019H380.009C380.349 164.019 380.676 164.154 380.916 164.395C381.157 164.636 381.292 164.962 381.293 165.303V180.199C381.292 180.54 381.157 180.866 380.916 181.107C380.676 181.347 380.349 181.483 380.009 181.483Z" fill="white"/>
<path d="M537.704 204.598H0.513667C0.377434 204.598 0.246781 204.544 0.150449 204.448C0.054118 204.351 0 204.221 0 204.084C0 203.948 0.054118 203.818 0.150449 203.721C0.246781 203.625 0.377434 203.571 0.513667 203.571H537.704C537.841 203.571 537.971 203.625 538.068 203.721C538.164 203.818 538.218 203.948 538.218 204.084C538.218 204.221 538.164 204.351 538.068 204.448C537.971 204.544 537.841 204.598 537.704 204.598Z" fill="#E6E6E6"/>
<path d="M186.355 222.577H138.584C138.448 222.577 138.317 222.523 138.221 222.426C138.124 222.33 138.07 222.199 138.07 222.063C138.07 221.927 138.124 221.796 138.221 221.7C138.317 221.603 138.448 221.549 138.584 221.549H186.355C186.491 221.549 186.622 221.603 186.718 221.7C186.815 221.796 186.869 221.927 186.869 222.063C186.869 222.199 186.815 222.33 186.718 222.426C186.622 222.523 186.491 222.577 186.355 222.577Z" fill="#E6E6E6"/>
<path d="M305.013 222.577H257.242C257.106 222.577 256.975 222.523 256.879 222.426C256.783 222.33 256.729 222.199 256.729 222.063C256.729 221.927 256.783 221.796 256.879 221.7C256.975 221.603 257.106 221.549 257.242 221.549H305.013C305.149 221.549 305.28 221.603 305.376 221.7C305.473 221.796 305.527 221.927 305.527 222.063C305.527 222.199 305.473 222.33 305.376 222.426C305.28 222.523 305.149 222.577 305.013 222.577Z" fill="#E6E6E6"/>
<path d="M423.669 222.577H375.898C375.762 222.577 375.632 222.523 375.535 222.426C375.439 222.33 375.385 222.199 375.385 222.063C375.385 221.927 375.439 221.796 375.535 221.7C375.632 221.603 375.762 221.549 375.898 221.549H423.669C423.806 221.549 423.936 221.603 424.033 221.7C424.129 221.796 424.183 221.927 424.183 222.063C424.183 222.199 424.129 222.33 424.033 222.426C423.936 222.523 423.806 222.577 423.669 222.577Z" fill="#E6E6E6"/>
<path d="M213.58 167.305C213.58 158.233 206.221 136.706 197.142 136.706C188.064 136.706 180.705 158.233 180.705 167.305C180.705 171.665 182.437 175.845 185.519 178.928C188.602 182.011 192.783 183.742 197.142 183.742C201.502 183.742 205.683 182.011 208.765 178.928C211.848 175.845 213.58 171.665 213.58 167.305H213.58Z" fill="#E6E6E6"/>
<path d="M209.47 167.305C209.47 158.233 202.111 136.706 193.033 136.706C183.955 136.706 176.596 158.233 176.596 167.305C176.596 171.665 178.327 175.845 181.41 178.928C184.493 182.011 188.674 183.742 193.033 183.742C197.393 183.742 201.573 182.011 204.656 178.928C207.739 175.845 209.47 171.665 209.47 167.305H209.47Z" fill="#F2F2F2"/>
<path d="M193.547 204.058C193.411 204.058 193.28 204.004 193.184 203.908C193.087 203.812 193.033 203.681 193.033 203.545V157.756C193.033 157.62 193.087 157.489 193.184 157.393C193.28 157.297 193.411 157.242 193.547 157.242C193.683 157.242 193.814 157.297 193.91 157.393C194.006 157.489 194.061 157.62 194.061 157.756V203.545C194.061 203.681 194.006 203.812 193.91 203.908C193.814 204.004 193.683 204.058 193.547 204.058Z" fill="#CCCCCC"/>
<path d="M193.547 165.262C193.445 165.262 193.346 165.232 193.261 165.176C193.177 165.119 193.111 165.039 193.072 164.945C193.033 164.851 193.023 164.748 193.043 164.649C193.063 164.549 193.112 164.457 193.184 164.386L199.901 157.668C199.997 157.571 200.128 157.517 200.264 157.517C200.401 157.517 200.531 157.571 200.628 157.668C200.724 157.764 200.778 157.895 200.778 158.031C200.778 158.167 200.724 158.298 200.628 158.394L193.91 165.112C193.862 165.16 193.806 165.198 193.743 165.223C193.681 165.249 193.614 165.263 193.547 165.262Z" fill="#CCCCCC"/>
<path d="M476.064 167.305C476.064 158.233 468.705 136.706 459.627 136.706C450.549 136.706 443.189 158.233 443.189 167.305C443.189 171.665 444.921 175.845 448.004 178.928C451.086 182.011 455.267 183.742 459.627 183.742C463.986 183.742 468.167 182.011 471.25 178.928C474.332 175.845 476.064 171.665 476.064 167.305H476.064Z" fill="#E6E6E6"/>
<path d="M471.955 167.305C471.955 158.233 464.596 136.706 455.517 136.706C446.439 136.706 439.08 158.233 439.08 167.305C439.08 171.665 440.812 175.845 443.894 178.928C446.977 182.011 451.158 183.742 455.517 183.742C459.877 183.742 464.058 182.011 467.14 178.928C470.223 175.845 471.955 171.665 471.955 167.305H471.955Z" fill="#F2F2F2"/>
<path d="M456.031 204.058C455.895 204.058 455.764 204.004 455.668 203.908C455.572 203.812 455.518 203.681 455.518 203.545V157.756C455.518 157.62 455.572 157.489 455.668 157.393C455.764 157.297 455.895 157.242 456.031 157.242C456.167 157.242 456.298 157.297 456.394 157.393C456.491 157.489 456.545 157.62 456.545 157.756V203.545C456.545 203.681 456.491 203.812 456.394 203.908C456.298 204.004 456.167 204.058 456.031 204.058Z" fill="#CCCCCC"/>
<path d="M456.031 165.262C455.93 165.262 455.83 165.232 455.746 165.176C455.661 165.119 455.596 165.039 455.557 164.945C455.518 164.851 455.508 164.748 455.527 164.649C455.547 164.549 455.596 164.457 455.668 164.386L462.386 157.668C462.482 157.571 462.612 157.517 462.749 157.517C462.885 157.517 463.016 157.571 463.112 157.668C463.208 157.764 463.262 157.895 463.262 158.031C463.262 158.167 463.208 158.298 463.112 158.394L456.394 165.112C456.347 165.16 456.29 165.198 456.228 165.223C456.165 165.249 456.099 165.263 456.031 165.262V165.262Z" fill="#CCCCCC"/>
<path d="M286.007 173.008H274.706C274.366 173.007 274.039 172.872 273.798 172.631C273.558 172.39 273.422 172.064 273.422 171.724V160.423C273.422 160.082 273.558 159.756 273.798 159.515C274.039 159.274 274.366 159.139 274.706 159.139H286.007C286.347 159.139 286.674 159.274 286.914 159.515C287.155 159.756 287.291 160.082 287.291 160.423V171.724C287.291 172.064 287.155 172.39 286.914 172.631C286.674 172.872 286.347 173.007 286.007 173.008Z" fill="#3F3D56"/>
<path d="M395.71 178.511C395.833 178.543 395.948 178.602 396.046 178.684C396.144 178.765 396.224 178.868 396.278 178.983C396.332 179.099 396.361 179.224 396.361 179.352C396.362 179.48 396.334 179.606 396.281 179.722L398.514 181.876L396.941 182.228L395.061 180.129C394.872 180.026 394.728 179.858 394.655 179.655C394.583 179.453 394.587 179.231 394.667 179.032C394.747 178.832 394.897 178.669 395.089 178.573C395.282 178.477 395.502 178.455 395.71 178.511H395.71Z" fill="#FFB8B8"/>
<path d="M398.849 184.177L396.094 181.592C396.056 181.556 396.026 181.513 396.004 181.466C395.983 181.418 395.972 181.367 395.971 181.315C395.97 181.262 395.979 181.211 395.999 181.162C396.018 181.114 396.047 181.07 396.083 181.033L396.646 180.463C396.713 180.395 396.802 180.354 396.897 180.348C396.992 180.341 397.086 180.369 397.161 180.427L399.47 182.191L400.911 178.698C400.968 178.56 401.052 178.435 401.159 178.331C401.266 178.227 401.393 178.147 401.533 178.094C401.672 178.041 401.821 178.017 401.97 178.024C402.119 178.031 402.265 178.069 402.399 178.134V178.134C402.61 178.237 402.782 178.404 402.889 178.613C402.997 178.821 403.034 179.059 402.995 179.29C402.734 180.879 401.15 182.98 400.229 184.091C400.104 184.242 399.934 184.351 399.744 184.402C399.554 184.453 399.353 184.443 399.168 184.375C399.05 184.331 398.941 184.264 398.849 184.177V184.177Z" fill="#3C65F5"/>
<path d="M397.303 181.669L395.275 178.727C395.249 178.689 395.239 178.642 395.247 178.597C395.255 178.552 395.281 178.512 395.319 178.486L395.401 178.429C395.419 178.416 395.441 178.407 395.463 178.403C395.485 178.398 395.508 178.397 395.531 178.402C395.553 178.406 395.574 178.414 395.594 178.427C395.613 178.439 395.629 178.455 395.642 178.474L397.671 181.416C397.684 181.435 397.693 181.456 397.697 181.478C397.702 181.501 397.703 181.524 397.698 181.546C397.694 181.568 397.686 181.59 397.673 181.609C397.661 181.628 397.645 181.645 397.626 181.658L397.545 181.714C397.507 181.74 397.46 181.75 397.415 181.741C397.37 181.733 397.329 181.707 397.303 181.669V181.669Z" fill="white"/>
<path d="M396.736 181.691L395.053 179.249C394.981 179.145 394.954 179.016 394.977 178.892C395 178.767 395.071 178.657 395.175 178.585L395.347 178.467L397.572 181.695L397.401 181.813C397.296 181.885 397.168 181.913 397.043 181.89C396.919 181.867 396.808 181.795 396.736 181.691V181.691Z" fill="#3F3D56"/>
<path d="M396.94 202.767L395.883 202.645L396.023 198.528L397.411 198.689L396.94 202.767Z" fill="#FFB8B8"/>
<path d="M397.091 203.823L393.682 203.43L393.687 203.387C393.707 203.212 393.761 203.044 393.846 202.89C393.932 202.737 394.046 202.602 394.184 202.493C394.321 202.384 394.479 202.303 394.647 202.255C394.816 202.207 394.993 202.193 395.167 202.213H395.167L397.25 202.453L397.091 203.823Z" fill="#05264E"/>
<path d="M409.236 201.985L408.219 202.3L406.523 198.526L408.024 198.062L409.236 201.985Z" fill="#FFB8B8"/>
<path d="M409.801 202.891L406.522 203.904L406.509 203.863C406.457 203.695 406.439 203.519 406.455 203.344C406.471 203.17 406.522 203 406.604 202.845C406.686 202.689 406.797 202.552 406.932 202.44C407.067 202.328 407.223 202.244 407.391 202.192H407.391L409.394 201.573L409.801 202.891Z" fill="#05264E"/>
<path d="M395.76 201.818C395.653 201.785 395.562 201.711 395.508 201.613C395.454 201.514 395.441 201.398 395.47 201.29L396.108 193.952C396.137 193.617 396.243 193.294 396.416 193.006L400.274 186.602L403.727 187.222L403.75 187.232C405.428 188.26 406.918 193.243 408.358 198.063C408.583 198.812 408.814 199.587 409.04 200.328C409.082 200.434 409.082 200.552 409.038 200.657C408.994 200.762 408.911 200.846 408.806 200.89L407.761 201.33C407.662 201.372 407.55 201.376 407.449 201.341C407.347 201.305 407.263 201.233 407.211 201.138L401.836 191.298C401.83 191.286 401.82 191.275 401.809 191.268C401.797 191.26 401.784 191.255 401.77 191.254C401.756 191.252 401.742 191.254 401.729 191.259C401.716 191.264 401.704 191.272 401.695 191.282L398.576 194.812L397.43 201.539L397.425 201.553C397.384 201.65 397.309 201.728 397.214 201.773C397.12 201.818 397.013 201.828 396.912 201.801L395.787 201.822L395.78 201.822L395.76 201.818Z" fill="#05264E"/>
<path d="M400.087 187.304L400.065 187.297L400.059 187.275C400.043 187.222 398.464 181.881 399.887 178.476L399.888 178.473C399.93 178.392 400.922 176.486 402.074 176.295L402.105 176.29L402.48 176.991C402.598 177.109 404.626 179.214 403.705 182.834C403.788 183.131 404.908 187.205 404.299 187.814C404.077 187.968 403.807 188.035 403.539 188.005C402.365 187.905 401.207 187.669 400.087 187.304V187.304Z" fill="#3C65F5"/>
<path d="M401.836 175.628C403.323 175.628 404.528 174.422 404.528 172.936C404.528 171.449 403.323 170.244 401.836 170.244C400.35 170.244 399.145 171.449 399.145 172.936C399.145 174.422 400.35 175.628 401.836 175.628Z" fill="#05264E"/>
<path d="M400.767 175.615C401.945 175.615 402.9 174.66 402.9 173.482C402.9 172.304 401.945 171.349 400.767 171.349C399.59 171.349 398.635 172.304 398.635 173.482C398.635 174.66 399.59 175.615 400.767 175.615Z" fill="#FFB8B8"/>
<path d="M402.14 175.554C401.945 175.623 401.706 175.683 401.553 175.54C401.49 175.458 401.452 175.358 401.446 175.254C401.44 175.15 401.466 175.046 401.519 174.957C401.63 174.781 401.719 174.593 401.786 174.396C401.806 174.249 401.787 174.098 401.732 173.96C401.676 173.821 401.586 173.699 401.469 173.606C401.238 173.43 400.976 173.298 400.697 173.218L399.204 172.687C398.816 172.596 398.471 172.372 398.229 172.056C398.104 171.792 398.083 171.491 398.169 171.212C398.255 170.933 398.443 170.696 398.694 170.549C398.948 170.421 399.227 170.351 399.511 170.346C399.795 170.34 400.076 170.399 400.335 170.516C400.619 170.649 400.911 170.766 401.209 170.866C401.807 171.024 402.486 170.882 403.012 171.219C403.233 171.388 403.409 171.609 403.523 171.862C403.638 172.116 403.687 172.394 403.666 172.672C403.621 173.23 403.472 173.774 403.226 174.277C403.112 174.587 402.948 174.877 402.739 175.133C402.637 175.258 402.506 175.357 402.358 175.421C402.21 175.484 402.048 175.512 401.887 175.5L402.14 175.554Z" fill="#05264E"/>
<path d="M404.094 173.37C405.053 173.37 405.831 172.592 405.831 171.633C405.831 170.674 405.053 169.897 404.094 169.897C403.135 169.897 402.357 170.674 402.357 171.633C402.357 172.592 403.135 173.37 404.094 173.37Z" fill="#05264E"/>
<path d="M401.229 174.151C401.228 174.12 401.237 174.089 401.253 174.062C401.269 174.035 401.293 174.013 401.321 173.998C401.348 173.983 401.38 173.976 401.411 173.978C401.443 173.979 401.473 173.99 401.499 174.007C401.525 174.025 401.546 174.049 401.56 174.078C401.573 174.106 401.578 174.138 401.575 174.169C401.572 174.201 401.56 174.23 401.541 174.256C401.522 174.281 401.497 174.3 401.467 174.312V174.694C401.467 174.703 401.466 174.711 401.463 174.719C401.459 174.727 401.455 174.734 401.448 174.741C401.442 174.747 401.435 174.751 401.427 174.755C401.419 174.758 401.411 174.76 401.402 174.76C401.394 174.76 401.385 174.758 401.377 174.755C401.369 174.751 401.362 174.747 401.356 174.741C401.35 174.734 401.345 174.727 401.342 174.719C401.339 174.711 401.337 174.703 401.337 174.694V174.312C401.305 174.299 401.278 174.277 401.258 174.248C401.239 174.22 401.229 174.186 401.229 174.151V174.151Z" fill="white"/>
<path d="M395.814 180.334C395.941 180.321 396.069 180.336 396.19 180.379C396.31 180.421 396.42 180.489 396.511 180.578C396.603 180.668 396.673 180.776 396.718 180.895C396.763 181.015 396.781 181.143 396.771 181.27L399.615 182.51L398.264 183.389L395.77 182.077C395.557 182.046 395.363 181.938 395.225 181.774C395.086 181.61 395.012 181.4 395.018 181.186C395.023 180.971 395.107 180.765 395.254 180.608C395.401 180.451 395.6 180.354 395.814 180.334Z" fill="#FFB8B8"/>
<path d="M400.733 184.55L397.249 183.087C397.201 183.067 397.158 183.037 397.121 183C397.085 182.963 397.056 182.919 397.037 182.87C397.018 182.822 397.009 182.77 397.01 182.718C397.011 182.665 397.023 182.614 397.044 182.566L397.373 181.836C397.412 181.75 397.481 181.68 397.568 181.641C397.655 181.602 397.752 181.595 397.843 181.623L400.623 182.472L400.755 178.696C400.76 178.547 400.796 178.4 400.86 178.266C400.924 178.131 401.015 178.011 401.127 177.913C401.24 177.815 401.371 177.741 401.513 177.695C401.655 177.65 401.805 177.634 401.953 177.649V177.649C402.187 177.671 402.407 177.768 402.58 177.926C402.753 178.084 402.871 178.294 402.915 178.524C403.224 180.105 402.472 182.626 401.996 183.988C401.931 184.173 401.81 184.334 401.65 184.448C401.489 184.562 401.297 184.624 401.101 184.625C400.974 184.624 400.849 184.599 400.733 184.55Z" fill="#3C65F5"/>
<path d="M43.5557 183.656H38.2207V182.036C39.9065 180.863 41.4002 180.965 43.3651 182.132L43.5557 183.656Z" fill="#3C65F5"/>
<path d="M36.9853 212.422H35.8172L35.6426 207.917H36.9853V212.422Z" fill="#FFB8B8"/>
<path d="M37.2835 213.555L33.5176 213.554V213.507C33.5176 213.314 33.5555 213.124 33.6292 212.946C33.7028 212.768 33.8108 212.606 33.9469 212.47C34.083 212.334 34.2446 212.226 34.4225 212.153C34.6003 212.079 34.7909 212.041 34.9834 212.041H34.9835L37.2836 212.041L37.2835 213.555Z" fill="#05264E"/>
<path d="M43.563 212.422H44.7306L44.9052 207.917H43.5625L43.563 212.422Z" fill="#FFB8B8"/>
<path d="M43.2656 212.041L45.5657 212.041H45.5658C45.7583 212.041 45.9489 212.079 46.1268 212.153C46.3046 212.226 46.4662 212.334 46.6023 212.47C46.7384 212.606 46.8464 212.768 46.9201 212.946C46.9937 213.124 47.0316 213.314 47.0316 213.507V213.554L43.2657 213.555L43.2656 212.041Z" fill="#05264E"/>
<path d="M43.5941 211.845C43.4966 211.845 43.4022 211.811 43.3261 211.75C43.2501 211.689 43.197 211.605 43.1755 211.51L40.2806 198.883C40.2743 198.851 40.2568 198.822 40.2313 198.802C40.2058 198.781 40.1739 198.77 40.1412 198.771H40.1405C40.1076 198.771 40.0756 198.782 40.0502 198.802C40.0247 198.823 40.0074 198.852 40.0013 198.884L37.343 211.426C37.3222 211.522 37.2694 211.608 37.1931 211.669C37.1168 211.731 37.0217 211.765 36.9236 211.766H35.6572C35.5988 211.766 35.541 211.754 35.4873 211.73C35.4337 211.707 35.3853 211.673 35.3453 211.631C35.3052 211.588 35.2742 211.538 35.2543 211.483C35.2343 211.428 35.2258 211.37 35.2293 211.312L36.1725 195.416L36.552 195.303L36.5592 195.304L44.0145 195.369L45.6024 211.247C45.6079 211.304 45.6021 211.361 45.5854 211.415C45.5686 211.47 45.5411 211.52 45.5046 211.564C45.4681 211.607 45.4233 211.643 45.3727 211.669C45.3222 211.696 45.2669 211.711 45.2102 211.716L43.6284 211.844C43.6169 211.845 43.6055 211.845 43.5941 211.845Z" fill="#05264E"/>
<path d="M40.5156 180.753C41.8079 180.753 42.8555 179.706 42.8555 178.414C42.8555 177.121 41.8079 176.074 40.5156 176.074C39.2234 176.074 38.1758 177.121 38.1758 178.414C38.1758 179.706 39.2234 180.753 40.5156 180.753Z" fill="#FFB8B8"/>
<path d="M39.0821 197.159C38.6716 197.164 38.2627 197.106 37.8696 196.988C37.5199 196.883 37.1955 196.707 36.9163 196.471C36.6372 196.236 36.4092 195.945 36.2464 195.619C36.1948 195.52 36.1833 195.406 36.2145 195.299C36.4725 194.418 37.7195 189.84 36.9239 186.201C36.8116 185.695 36.8022 185.172 36.8964 184.663C36.9906 184.154 37.1864 183.669 37.4722 183.237C37.7512 182.808 38.1138 182.44 38.5381 182.155C38.9625 181.869 39.44 181.672 39.9421 181.575V181.575C40.0741 181.549 40.2068 181.528 40.3365 181.512C40.8916 181.444 41.4549 181.499 41.9861 181.674C42.5174 181.849 43.0035 182.139 43.4096 182.523C43.8277 182.916 44.154 183.395 44.365 183.928C44.5761 184.461 44.6668 185.034 44.6305 185.606L44.019 195.419C44.0148 195.493 43.9915 195.564 43.9514 195.626C43.9114 195.688 43.856 195.738 43.7906 195.772C43.0863 196.141 40.9707 197.159 39.0821 197.159Z" fill="#3F3D56"/>
<path d="M43.1586 176.691C42.9155 176.08 42.4703 175.571 41.8972 175.249C41.3242 174.927 40.6579 174.811 40.0097 174.921L40.7475 175.517C39.8309 175.548 38.866 175.482 38.2115 176.125C38.4199 176.119 38.693 176.564 38.9013 176.559C38.7063 176.572 38.5186 176.638 38.3577 176.749C38.1968 176.86 38.0686 177.012 37.9865 177.19C37.8271 177.549 37.7899 177.95 37.8804 178.333C38.1165 178.895 38.391 179.441 38.7022 179.965C38.675 179.035 40.5074 176.815 41.4022 177.046C40.9476 177.215 40.5531 177.514 40.2685 177.907C40.8772 177.6 41.5657 177.487 42.2406 177.584C42.3947 177.62 42.5537 177.629 42.7108 177.611C42.807 177.592 42.8968 177.548 42.9715 177.485C43.0463 177.421 43.1034 177.339 43.1375 177.247C43.1717 177.155 43.1816 177.056 43.1665 176.959C43.1514 176.862 43.1116 176.771 43.0511 176.693L43.1586 176.691Z" fill="#05264E"/>
<path d="M38.92 196.569C38.8609 196.569 38.8024 196.557 38.7483 196.533L34.3088 194.595C34.2145 194.555 34.138 194.482 34.0933 194.389C34.0486 194.297 34.0388 194.192 34.0656 194.093L37.0045 182.99C37.0592 182.784 37.1545 182.59 37.2849 182.421C37.4152 182.252 37.5781 182.11 37.7639 182.004C37.9496 181.899 38.1546 181.831 38.3668 181.806C38.5789 181.78 38.794 181.798 38.9995 181.856L40.1747 182.192L39.3474 196.166C39.3431 196.234 39.3223 196.301 39.2867 196.361C39.2512 196.42 39.2018 196.47 39.1429 196.506C39.0759 196.547 38.9988 196.569 38.92 196.569V196.569Z" fill="#3C65F5"/>
<path d="M47.1378 194.092L46.9425 193.356L46.6596 192.285L46.5233 191.772L46.2404 190.704L44.1988 182.99C44.1444 182.783 44.0492 182.59 43.9188 182.42C43.7885 182.251 43.6256 182.109 43.4398 182.004C43.254 181.898 43.049 181.831 42.8367 181.805C42.6245 181.78 42.4094 181.797 42.2039 181.856L41.0293 182.192L41.6114 192.02L41.6714 193.046L41.7095 193.693V193.694L41.7705 194.714L41.8562 196.165C41.8632 196.274 41.9112 196.377 41.9906 196.451C42.07 196.526 42.1748 196.569 42.284 196.569C42.343 196.569 42.4013 196.557 42.4555 196.533L46.8948 194.595C46.9892 194.555 47.0658 194.482 47.1104 194.389C47.1551 194.297 47.1648 194.191 47.1378 194.092Z" fill="#3C65F5"/>
<path d="M46.5235 191.772L41.6714 193.046L41.6113 192.021L46.2405 190.704L46.5235 191.772Z" fill="#CCCCCC"/>
<path d="M46.9422 193.356L41.7701 194.715L41.709 193.694V193.693L46.6592 192.285L46.9422 193.356Z" fill="#CCCCCC"/>
<path d="M39.5336 192.242L39.4735 193.248L34.7148 191.831L34.9938 190.777L39.5336 192.242Z" fill="#CCCCCC"/>
<path d="M39.434 193.911L34.5783 192.344L34.2988 193.401L39.3749 194.913L39.434 193.911Z" fill="#CCCCCC"/>
<path d="M34.6624 194.965C34.8072 194.927 34.9419 194.858 35.0571 194.762C35.1723 194.667 35.2651 194.547 35.3291 194.412C35.3931 194.277 35.4266 194.129 35.4274 193.98C35.4281 193.83 35.3961 193.682 35.3334 193.546L37.6162 186.38L35.9975 186.041L33.9046 193.067C33.6833 193.187 33.5138 193.384 33.4283 193.621C33.3428 193.858 33.3471 194.118 33.4406 194.352C33.534 194.586 33.7099 194.778 33.9351 194.891C34.1603 195.003 34.4191 195.03 34.6624 194.965V194.965Z" fill="#FFB8B8"/>
<path d="M37.6808 182.856C38.1456 182.904 38.407 183.426 38.2914 184.077L37.7369 187.2C37.6953 187.434 37.5027 187.619 37.3426 187.579L35.4667 187.11C35.3224 187.074 35.2692 186.869 35.351 186.664L36.4771 183.839C36.5533 183.572 36.7095 183.334 36.9247 183.159C37.1399 182.983 37.4038 182.877 37.6808 182.856Z" fill="#3F3D56"/>
<path d="M40.5075 174.034C41.2994 174.034 42.0602 174.343 42.6288 174.894C43.1973 175.445 43.529 176.196 43.5536 176.987H44.1277C44.1782 176.987 44.2266 177.008 44.2624 177.043C44.2981 177.079 44.3182 177.127 44.3182 177.178V177.94C44.3182 177.991 44.2981 178.039 44.2624 178.075C44.2266 178.111 44.1782 178.131 44.1277 178.131H37.6495C37.599 178.131 37.5505 178.111 37.5148 178.075C37.4791 178.039 37.459 177.991 37.459 177.94V177.083C37.459 176.682 37.5378 176.286 37.691 175.916C37.8442 175.546 38.0688 175.21 38.3519 174.927C38.635 174.644 38.971 174.419 39.3409 174.266C39.7108 174.113 40.1072 174.034 40.5075 174.034V174.034Z" fill="#3C65F5"/>
<path d="M40.8712 192.878H39.5246C39.4814 192.878 39.4397 192.862 39.4077 192.833C39.3756 192.804 39.3556 192.764 39.3516 192.721L39.082 189.958H41.3138L41.0442 192.721C41.0402 192.764 41.0202 192.804 40.9882 192.833C40.9562 192.862 40.9144 192.878 40.8712 192.878Z" fill="#E6E6E6"/>
<path d="M41.3105 190.306H39.0859C39.0398 190.306 38.9957 190.288 38.9631 190.255C38.9305 190.223 38.9122 190.178 38.9121 190.132V189.715C38.9122 189.669 38.9305 189.625 38.9631 189.592C38.9957 189.56 39.0398 189.542 39.0859 189.542H41.3105C41.3566 189.542 41.4007 189.56 41.4333 189.592C41.4659 189.625 41.4842 189.669 41.4843 189.715V190.132C41.4842 190.178 41.4659 190.223 41.4333 190.255C41.4007 190.288 41.3566 190.306 41.3105 190.306V190.306Z" fill="#CCCCCC"/>
<path d="M40.2272 191.396C40.2796 191.403 40.3314 191.413 40.3822 191.427L43.9686 188.351L43.7589 187.223L45.4207 186.684L45.9859 188.646C46.0316 188.804 46.0246 188.973 45.9661 189.127C45.9075 189.281 45.8005 189.412 45.6611 189.501L41.1191 192.375C41.1223 192.578 41.0636 192.777 40.9508 192.946C40.8381 193.115 40.6766 193.245 40.4878 193.32C40.299 193.395 40.0919 193.411 39.8941 193.365C39.6962 193.319 39.5169 193.214 39.3801 193.064C39.2433 192.914 39.1554 192.726 39.1282 192.525C39.1009 192.324 39.1356 192.119 39.2276 191.938C39.3195 191.757 39.4644 191.608 39.643 191.511C39.8216 191.415 40.0254 191.375 40.2272 191.396H40.2272Z" fill="#FFB8B8"/>
<path d="M43.9785 183.114C44.475 182.975 44.9711 183.353 45.1373 183.997L45.935 187.087C45.9948 187.318 45.8787 187.564 45.6973 187.59L43.5722 187.896C43.4087 187.92 43.2646 187.752 43.2586 187.531L43.1761 184.491C43.1445 184.206 43.2055 183.918 43.3499 183.67C43.4944 183.422 43.7148 183.227 43.9785 183.114Z" fill="#3F3D56"/>
<path d="M68.132 191.473H66.5141C66.4622 191.473 66.4121 191.454 66.3736 191.419C66.3352 191.384 66.3112 191.336 66.3063 191.284L65.9824 187.965H68.6637L68.3399 191.284C68.335 191.336 68.311 191.384 68.2725 191.419C68.2341 191.453 68.184 191.473 68.132 191.473V191.473Z" fill="#E6E6E6"/>
<path d="M68.6608 188.382H65.9881C65.9327 188.382 65.8797 188.36 65.8405 188.321C65.8014 188.282 65.7794 188.229 65.7793 188.173V187.672C65.7794 187.617 65.8014 187.564 65.8405 187.525C65.8797 187.485 65.9327 187.463 65.9881 187.463H68.6608C68.7162 187.463 68.7693 187.485 68.8084 187.525C68.8475 187.564 68.8696 187.617 68.8696 187.672V188.173C68.8696 188.229 68.8475 188.282 68.8084 188.321C68.7693 188.36 68.7162 188.382 68.6608 188.382V188.382Z" fill="#CCCCCC"/>
<path d="M84.0281 210.966C82.8526 209.403 81.9233 207.668 81.2725 205.823C81.2348 205.713 81.2375 205.593 81.2801 205.484C81.3227 205.376 81.4024 205.286 81.5051 205.231L85.5277 203.075C85.5928 203.04 85.665 203.02 85.7389 203.017C85.8128 203.014 85.8864 203.028 85.9541 203.058C86.0231 203.088 86.0843 203.133 86.1331 203.19C86.182 203.248 86.2171 203.315 86.2358 203.388C86.704 205.166 87.5841 206.808 88.8049 208.183C88.8551 208.239 88.892 208.305 88.9126 208.378C88.9332 208.45 88.937 208.526 88.9237 208.6C88.911 208.673 88.8818 208.742 88.8384 208.802C88.7949 208.862 88.7384 208.911 88.6731 208.945L84.6505 211.101C84.5476 211.156 84.4286 211.172 84.3146 211.148C84.2007 211.123 84.0991 211.059 84.0281 210.966Z" fill="#CCCCCC"/>
<path d="M84.3012 210.76C84.3229 210.787 84.3532 210.806 84.3871 210.813C84.421 210.82 84.4563 210.815 84.4869 210.798L88.5095 208.643C88.529 208.633 88.546 208.618 88.5589 208.6C88.5719 208.583 88.5805 208.562 88.5842 208.54C88.5884 208.517 88.5872 208.494 88.5808 208.471C88.5743 208.449 88.5628 208.428 88.547 208.411C87.2903 206.996 86.3843 205.305 85.9023 203.475C85.8967 203.453 85.886 203.432 85.8709 203.414C85.8558 203.396 85.8369 203.382 85.8155 203.373C85.7954 203.364 85.7734 203.36 85.7513 203.36C85.7293 203.361 85.7078 203.367 85.6884 203.378L81.6659 205.533C81.6354 205.55 81.6116 205.576 81.5987 205.609C81.5857 205.641 81.5844 205.676 81.5949 205.709C82.2341 207.521 83.1467 209.224 84.3012 210.76V210.76Z" fill="white"/>
<path d="M85.7914 206.151L83.6006 207.118C83.5172 207.155 83.4228 207.157 83.3379 207.124C83.253 207.091 83.1846 207.026 83.1478 206.943L83.0936 206.82C83.0569 206.737 83.0548 206.642 83.0877 206.557C83.1206 206.473 83.1858 206.404 83.269 206.367L85.4599 205.4C85.5433 205.364 85.6377 205.361 85.7226 205.394C85.8075 205.427 85.8759 205.492 85.9127 205.576L85.9669 205.698C86.0036 205.782 86.0057 205.876 85.9728 205.961C85.9399 206.046 85.8747 206.114 85.7914 206.151V206.151Z" fill="#CCCCCC"/>
<path d="M86.5922 207.639L84.4013 208.606C84.318 208.643 84.2235 208.645 84.1387 208.612C84.0538 208.579 83.9854 208.514 83.9485 208.431L83.8944 208.308C83.8577 208.225 83.8556 208.13 83.8885 208.045C83.9214 207.961 83.9866 207.892 84.0698 207.855L86.2607 206.888C86.344 206.852 86.4385 206.849 86.5234 206.882C86.6083 206.915 86.6766 206.98 86.7135 207.064L86.7677 207.187C86.8044 207.27 86.8065 207.364 86.7736 207.449C86.7407 207.534 86.6755 207.602 86.5922 207.639V207.639Z" fill="#CCCCCC"/>
<path d="M81.4549 206.4C81.3037 206.302 81.1757 206.173 81.0799 206.021C80.984 205.869 80.9227 205.698 80.9002 205.519C80.8777 205.341 80.8946 205.16 80.9496 204.989C81.0047 204.818 81.0966 204.661 81.2189 204.529L80.2949 191.417L82.9564 191.675L83.0295 204.516C83.2372 204.736 83.357 205.024 83.3661 205.327C83.3752 205.629 83.2731 205.925 83.079 206.157C82.8849 206.389 82.6124 206.542 82.313 206.587C82.0137 206.632 81.7084 206.565 81.4549 206.4V206.4Z" fill="#A0616A"/>
<path d="M80.8962 195.823C80.8339 195.778 80.7824 195.72 80.7456 195.652C80.7088 195.585 80.6876 195.51 80.6835 195.434L80.4885 191.9C80.4692 191.549 80.5802 191.205 80.8001 190.931C81.02 190.658 81.3333 190.476 81.6795 190.42C82.0256 190.365 82.3802 190.439 82.6749 190.629C82.9695 190.819 83.1833 191.112 83.2751 191.45L84.1318 194.61C84.1673 194.741 84.1492 194.882 84.0813 195.001C84.0133 195.119 83.9012 195.206 83.7694 195.242L81.3326 195.902C81.2585 195.922 81.1809 195.926 81.1054 195.912C81.0299 195.898 80.9584 195.868 80.8962 195.823Z" fill="#3F3D56"/>
<path d="M76.3616 222.52L74.9588 222.519L74.291 217.107H76.3621L76.3616 222.52Z" fill="#A0616A"/>
<path d="M73.6425 222.118H76.6621V223.822H72.252V223.509C72.252 223.326 72.2879 223.146 72.3578 222.977C72.4277 222.808 72.5301 222.655 72.6592 222.526C72.7884 222.397 72.9416 222.294 73.1103 222.224C73.2791 222.154 73.4599 222.118 73.6425 222.118V222.118Z" fill="#05264E"/>
<path d="M81.6253 222.52L80.2225 222.519L79.5547 217.107H81.6258L81.6253 222.52Z" fill="#A0616A"/>
<path d="M78.9062 222.118H81.9257V223.822H77.5156V223.509C77.5156 223.326 77.5516 223.146 77.6215 222.977C77.6913 222.808 77.7938 222.655 77.9229 222.526C78.052 222.397 78.2053 222.294 78.374 222.224C78.5427 222.154 78.7236 222.118 78.9062 222.118V222.118Z" fill="#05264E"/>
<path d="M76.2933 219.793L74.7486 219.719C74.617 219.713 74.4928 219.656 74.4015 219.561C74.3103 219.466 74.2589 219.34 74.258 219.208C73.8508 212.922 73.2867 206.182 74.1502 203.578C74.1497 203.504 74.1652 203.431 74.1957 203.363C74.2262 203.295 74.271 203.235 74.3269 203.186C74.3828 203.138 74.4486 203.102 74.5198 203.081C74.591 203.06 74.6658 203.054 74.7392 203.065L80.9192 203.962C81.0413 203.979 81.1531 204.04 81.2342 204.133C81.3152 204.226 81.36 204.345 81.3602 204.468C82.1492 207.551 82.1849 213.142 82.1551 218.951C82.1556 219.019 82.1426 219.086 82.117 219.149C82.0913 219.212 82.0535 219.269 82.0056 219.317C81.9577 219.366 81.9008 219.404 81.838 219.43C81.7753 219.456 81.708 219.47 81.64 219.47H79.9747C79.8518 219.47 79.7328 219.426 79.6395 219.347C79.5461 219.267 79.4845 219.156 79.4659 219.035L78.4384 212.503C78.4234 212.407 78.3743 212.32 78.3002 212.258C78.2261 212.196 78.132 212.163 78.0352 212.164C77.9385 212.166 77.8457 212.203 77.774 212.268C77.7022 212.333 77.6563 212.421 77.6449 212.517L76.8292 219.339C76.8139 219.464 76.7534 219.579 76.6593 219.663C76.5651 219.747 76.4437 219.793 76.3178 219.793C76.3097 219.793 76.3015 219.793 76.2933 219.793Z" fill="#05264E"/>
<path d="M77.3826 204.469C76.4805 203.939 75.4808 203.596 74.4433 203.462C74.3751 203.455 74.309 203.435 74.2489 203.402C74.1889 203.369 74.1361 203.324 74.0938 203.271C74.0506 203.216 74.0189 203.154 74.0006 203.087C73.9823 203.02 73.9778 202.95 73.9873 202.881L75.468 191.888C75.5533 191.244 75.8017 190.634 76.1896 190.114C76.5776 189.594 77.0921 189.182 77.6843 188.917C78.2576 188.653 78.8887 188.541 79.5177 188.59C80.1467 188.639 80.7526 188.849 81.2778 189.198C81.3285 189.232 81.3783 189.266 81.4272 189.302C82.032 189.745 82.492 190.357 82.7494 191.061C83.0068 191.765 83.05 192.53 82.8735 193.259C81.9654 196.974 81.6535 203.063 81.6002 204.247C81.596 204.347 81.5621 204.445 81.5026 204.526C81.4432 204.608 81.3609 204.67 81.2662 204.705C80.7075 204.908 80.118 205.013 79.5235 205.015C78.7748 205.02 78.0375 204.832 77.3826 204.469V204.469Z" fill="#3F3D56"/>
<path d="M78.6217 187.424C80.1743 187.424 81.4329 186.165 81.4329 184.613C81.4329 183.06 80.1743 181.802 78.6217 181.802C77.0692 181.802 75.8105 183.06 75.8105 184.613C75.8105 186.165 77.0692 187.424 78.6217 187.424Z" fill="#A0616A"/>
<path d="M80.6102 186.837C80.4927 186.963 80.3414 187.054 80.1742 187.098C80.0069 187.142 79.8307 187.137 79.6662 187.084C79.5016 187.031 79.3556 186.932 79.2453 186.799C79.135 186.666 79.065 186.504 79.0435 186.332C79.0381 186.273 79.0385 186.213 79.0446 186.154C79.147 185.829 79.2088 185.493 79.2284 185.152C79.2179 185.064 79.1848 184.979 79.1323 184.906C78.7144 184.347 77.7334 185.157 77.339 184.65C77.0971 184.339 77.3814 183.85 77.1958 183.503C76.9509 183.045 76.2253 183.271 75.7704 183.02C75.2642 182.741 75.2944 181.964 75.6277 181.492C75.8446 181.213 76.1203 180.985 76.4354 180.824C76.7504 180.664 77.0969 180.575 77.4502 180.564C78.1577 180.547 78.8603 180.684 79.5095 180.966C80.2763 181.215 80.9529 181.684 81.4554 182.315C81.7154 182.728 81.8801 183.195 81.9377 183.68C81.9953 184.165 81.9443 184.656 81.7884 185.119C81.5134 185.764 81.1129 186.348 80.6102 186.837Z" fill="#05264E"/>
<path d="M82.837 189.57C82.7877 189.339 82.3654 189.023 81.7611 188.765C80.7897 188.372 79.7391 188.213 78.6949 188.303C77.6507 188.392 76.6424 188.727 75.7521 189.28C75.69 189.284 75.6307 189.307 75.5833 189.348C75.536 189.388 75.5032 189.443 75.49 189.503L73.4572 198.494L73.1928 199.665L73.0177 200.44L72.7533 201.607L72.6125 202.231C72.6035 202.271 72.6031 202.312 72.6114 202.352C72.6197 202.392 72.6364 202.43 72.6604 202.463C72.6845 202.496 72.7153 202.524 72.7509 202.544C72.7865 202.564 72.8259 202.576 72.8666 202.58L81.6443 203.338C81.6523 203.338 81.6615 203.339 81.6695 203.339C81.7419 203.339 81.8115 203.311 81.8642 203.261C81.9168 203.211 81.9487 203.143 81.9533 203.071L82.0369 201.8L82.1262 200.44L82.1651 199.85L82.2532 198.494L82.8381 189.585V189.577L82.837 189.57Z" fill="#3C65F5"/>
<path d="M68.4334 190.136C68.4474 190.197 68.4566 190.26 68.4607 190.323L73.3775 193.16L74.5726 192.472L75.8467 194.14L73.29 195.962L67.6807 191.537C67.4519 191.621 67.2028 191.634 66.9665 191.574C66.7301 191.514 66.5177 191.383 66.3576 191.199C66.1975 191.015 66.0971 190.786 66.07 190.544C66.0428 190.301 66.0901 190.056 66.2055 189.842C66.321 189.627 66.4991 189.452 66.7162 189.341C66.9333 189.23 67.1792 189.187 67.421 189.219C67.6629 189.251 67.8892 189.356 68.0701 189.52C68.2509 189.683 68.3776 189.898 68.4334 190.136V190.136Z" fill="#A0616A"/>
<path d="M73.5537 192.919C73.5455 192.842 73.5546 192.765 73.5802 192.693C73.6058 192.62 73.6473 192.555 73.7017 192.5L76.2041 189.997C76.4521 189.75 76.783 189.602 77.1332 189.584C77.4834 189.565 77.828 189.677 78.1005 189.898C78.3731 190.119 78.5543 190.432 78.6092 190.779C78.6642 191.125 78.589 191.479 78.3981 191.773L76.616 194.52C76.5415 194.634 76.4247 194.714 76.2911 194.743C76.1575 194.771 76.0182 194.745 75.9035 194.671L73.7856 193.297C73.7211 193.255 73.6668 193.199 73.6267 193.134C73.5866 193.069 73.5616 192.995 73.5537 192.919Z" fill="#3F3D56"/>
<path d="M82.252 198.494L82.1641 199.851L73.1914 199.665L73.4559 198.494H82.252Z" fill="#CCCCCC"/>
<path d="M82.1268 200.439L82.0374 201.799L72.7539 201.607L73.0184 200.439H82.1268Z" fill="#CCCCCC"/>
<path d="M78.6759 179.151C77.7245 179.151 76.8105 179.521 76.1274 180.183C75.4443 180.846 75.0458 181.748 75.0162 182.699H74.3266C74.2659 182.699 74.2076 182.723 74.1647 182.766C74.1218 182.809 74.0977 182.867 74.0977 182.928V183.843C74.0977 183.904 74.1218 183.962 74.1647 184.005C74.2076 184.048 74.2659 184.072 74.3266 184.072H82.1097C82.1704 184.072 82.2286 184.048 82.2715 184.005C82.3145 183.962 82.3386 183.904 82.3386 183.843V182.813C82.3386 182.332 82.2438 181.856 82.0598 181.412C81.8757 180.967 81.6059 180.563 81.2658 180.223C80.9257 179.883 80.5219 179.613 80.0776 179.429C79.6332 179.245 79.1569 179.151 78.6759 179.151Z" fill="#3C65F5"/>
<path d="M99.2899 216.413H98.5049C98.4999 216.318 97.446 213.844 97.446 213.844L96.8089 212.303L96.3878 211.276L95.7507 209.735L95.0213 207.963C95.0027 207.883 94.9575 207.812 94.8932 207.76C94.8288 207.709 94.7491 207.682 94.6669 207.682C94.5848 207.682 94.5051 207.709 94.4407 207.76C94.3764 207.812 94.3312 207.883 94.3125 207.963L93.5832 209.735L92.9461 211.276L92.525 212.303L91.8879 213.844C91.8879 213.844 90.834 216.318 90.829 216.413H90.0439C89.8396 216.413 89.6436 216.494 89.4991 216.638C89.3546 216.783 89.2734 216.979 89.2734 217.183C89.2734 217.388 89.3546 217.584 89.4991 217.728C89.6436 217.873 89.8396 217.954 90.0439 217.954H99.2899C99.4943 217.954 99.6903 217.873 99.8348 217.728C99.9793 217.584 100.06 217.388 100.06 217.183C100.06 216.979 99.9793 216.783 99.8348 216.638C99.6903 216.494 99.4943 216.413 99.2899 216.413Z" fill="#FF6584"/>
<path d="M98.7763 229.768H98.472C98.4999 229.702 97.148 226.244 97.148 226.244L96.3363 224.267L95.7918 222.941L94.9802 220.964L94.0968 218.822C94.072 218.721 94.0139 218.631 93.932 218.566C93.85 218.502 93.7489 218.467 93.6447 218.467C93.5406 218.467 93.4395 218.502 93.3575 218.566C93.2756 218.631 93.2175 218.721 93.1926 218.822L92.3093 220.964L91.4976 222.941L90.9479 224.267L90.1365 226.244C90.1365 226.244 88.7896 229.702 88.8174 229.768H88.5029C88.2986 229.768 88.1026 229.849 87.9581 229.994C87.8136 230.138 87.7324 230.334 87.7324 230.538C87.7324 230.743 87.8136 230.939 87.9581 231.083C88.1026 231.228 88.2986 231.309 88.5029 231.309H98.7763C98.9806 231.309 99.1766 231.228 99.3211 231.083C99.4656 230.939 99.5468 230.743 99.5468 230.538C99.5468 230.334 99.4656 230.138 99.3211 229.994C99.1766 229.849 98.9806 229.768 98.7763 229.768Z" fill="#FF6584"/>
<path d="M96.3869 211.276H92.9453L93.5823 209.735H95.7499L96.3869 211.276Z" fill="#F2F2F2"/>
<path d="M97.4446 213.844H91.8867L92.5237 212.303H96.8077L97.4446 213.844Z" fill="#F2F2F2"/>
<path d="M95.7904 222.941H91.4961L92.3077 220.964H94.9788L95.7904 222.941Z" fill="#F2F2F2"/>
<path d="M97.1463 226.244H90.1348L90.9464 224.267H96.3347L97.1463 226.244Z" fill="#F2F2F2"/>
<path d="M212.133 187.003C212.213 186.925 212.274 186.83 212.313 186.725C212.351 186.621 212.367 186.509 212.357 186.397C212.348 186.286 212.315 186.178 212.259 186.082C212.204 185.985 212.128 185.901 212.037 185.837L211.651 183.296L210.068 183.795L210.936 186.061C210.838 186.222 210.802 186.412 210.835 186.597C210.869 186.782 210.968 186.948 211.116 187.064C211.264 187.18 211.449 187.238 211.636 187.227C211.824 187.216 212.001 187.136 212.133 187.003V187.003Z" fill="#FFB8B8"/>
<path d="M210.503 185.808L209.527 181.247C209.431 180.811 209.45 180.357 209.581 179.929C209.711 179.501 209.949 179.114 210.272 178.805C211.522 177.601 213.129 176.083 213.684 175.69C214.204 175.319 214.835 175.133 215.474 175.162L215.487 175.163L216.327 175.957L214.497 178.969L211.719 180.71L212.028 185.179L210.503 185.808Z" fill="#3C65F5"/>
<path d="M213.923 179.611H209.825C209.648 179.611 209.504 179.754 209.504 179.932C209.504 180.11 209.648 180.253 209.825 180.253H213.923C214.101 180.253 214.245 180.11 214.245 179.932C214.245 179.754 214.101 179.611 213.923 179.611Z" fill="#CCCCCC"/>
<path d="M213.923 186.601H209.825C209.648 186.601 209.504 186.745 209.504 186.922C209.504 187.1 209.648 187.244 209.825 187.244H213.923C214.101 187.244 214.245 187.1 214.245 186.922C214.245 186.745 214.101 186.601 213.923 186.601Z" fill="#CCCCCC"/>
<path d="M211.914 204.117C211.874 204.117 211.836 204.102 211.806 204.075C211.776 204.048 211.758 204.011 211.754 203.971L209.706 179.946C209.704 179.925 209.706 179.904 209.712 179.884C209.719 179.863 209.729 179.845 209.742 179.828C209.756 179.812 209.773 179.799 209.791 179.789C209.81 179.779 209.831 179.773 209.852 179.771C209.873 179.769 209.894 179.772 209.914 179.778C209.934 179.784 209.953 179.795 209.969 179.808C209.985 179.822 209.999 179.839 210.008 179.857C210.018 179.876 210.024 179.897 210.026 179.918L211.912 202.114L213.745 179.918C213.746 179.897 213.752 179.876 213.762 179.858C213.772 179.839 213.785 179.822 213.801 179.808C213.817 179.795 213.836 179.784 213.856 179.778C213.876 179.772 213.898 179.769 213.919 179.771C213.94 179.773 213.96 179.779 213.979 179.789C213.998 179.798 214.014 179.812 214.028 179.828C214.042 179.844 214.052 179.863 214.058 179.883C214.065 179.903 214.067 179.925 214.065 179.946L212.075 203.97C212.071 204.01 212.053 204.048 212.023 204.075C211.994 204.102 211.955 204.117 211.915 204.117L211.914 204.117Z" fill="#CCCCCC"/>
<path d="M216.513 174.2C217.677 174.2 218.621 173.256 218.621 172.092C218.621 170.927 217.677 169.983 216.513 169.983C215.348 169.983 214.404 170.927 214.404 172.092C214.404 173.256 215.348 174.2 216.513 174.2Z" fill="#FFB8B8"/>
<path d="M210.229 203.154L209.227 202.834L209.982 198.815L211.462 199.286L210.229 203.154Z" fill="#FFB8B8"/>
<path d="M210.175 204.043L206.947 203.014L206.974 202.93C207.077 202.61 207.302 202.343 207.601 202.188C207.901 202.034 208.249 202.004 208.57 202.106L210.587 202.749L210.175 204.043Z" fill="#05264E"/>
<path d="M217.526 203.133H216.473L215.973 199.074H217.526V203.133Z" fill="#FFB8B8"/>
<path d="M214.482 204.07H217.71V202.873H215.672C215.357 202.873 215.054 202.998 214.831 203.221C214.608 203.445 214.483 203.747 214.482 204.062V204.07Z" fill="#05264E"/>
<path d="M217.496 201.816L217.14 201.763C216.694 201.736 216.253 201.654 215.828 201.517C215.74 201.479 215.734 200.899 215.787 197.64C215.825 195.248 215.873 192.27 215.78 190.672C215.776 190.609 215.751 190.549 215.709 190.502C215.667 190.455 215.61 190.423 215.548 190.412C215.486 190.401 215.422 190.411 215.366 190.441C215.31 190.471 215.266 190.519 215.241 190.577C214.44 192.428 213.095 196.57 212.205 199.311C211.896 200.265 211.651 201.018 211.496 201.469C211.467 201.555 211.406 201.626 211.326 201.669C211.247 201.712 211.154 201.724 211.066 201.702C210.334 201.519 210.383 201.441 209.34 201.172C209.25 201.149 209.172 201.092 209.123 201.012C209.074 200.933 209.057 200.838 209.076 200.747C209.265 199.858 212.717 185.433 212.981 184.061C212.99 184.014 213.009 183.97 213.035 183.93C213.061 183.89 213.095 183.856 213.135 183.829C213.174 183.802 213.219 183.784 213.266 183.774C213.313 183.765 213.361 183.765 213.408 183.774C214.185 183.931 214.658 184.097 215.426 184.258C216.255 184.431 217.112 184.61 217.948 184.778C218.031 184.795 218.106 184.84 218.158 184.907C218.391 185.156 218.678 185.349 218.997 185.47C219.216 185.575 218.72 185.565 218.91 185.716C219.682 186.327 218.572 198.74 217.901 201.543C217.88 201.631 217.826 201.708 217.751 201.758C217.676 201.808 217.585 201.829 217.496 201.816V201.816Z" fill="#05264E"/>
<path d="M217.413 173.936C217.29 173.414 217.912 172.29 217.789 171.768C217.706 171.414 216.874 171.655 216.68 171.348C216.59 171.189 216.462 171.055 216.308 170.958C216.154 170.86 215.979 170.802 215.797 170.787C215.38 170.783 214.969 171.093 214.573 170.959C214.479 170.912 214.396 170.848 214.327 170.769C214.259 170.69 214.207 170.598 214.174 170.499C214.142 170.4 214.129 170.295 214.137 170.191C214.145 170.086 214.174 169.985 214.222 169.892C214.434 169.523 214.762 169.234 215.156 169.073C215.777 168.694 216.519 168.569 217.229 168.724C217.636 168.882 218.008 169.116 218.327 169.414C218.646 169.65 218.926 169.934 219.157 170.257C219.354 170.593 219.46 170.974 219.467 171.364C219.473 171.753 219.379 172.138 219.193 172.48C218.809 173.163 218.197 173.69 217.464 173.968" fill="#05264E"/>
<path d="M212.236 186.091C212.464 185.711 212.809 183.93 213.235 180.94C213.525 178.899 213.778 176.826 213.903 175.766C213.913 175.681 213.944 175.599 213.994 175.529C214.044 175.458 214.111 175.402 214.189 175.365C214.271 175.325 214.351 175.288 214.432 175.253C215.397 174.811 216.469 174.655 217.52 174.803C218.572 174.95 219.559 175.396 220.365 176.087L220.375 176.096L220.377 176.108C220.382 176.132 220.817 178.478 219.925 180.064C219.045 181.628 219.035 185.771 219.035 185.813V185.866L218.984 185.851C217.615 185.46 212.329 186.144 212.276 186.151L212.193 186.162L212.236 186.091Z" fill="#3C65F5"/>
<path d="M220.191 180.655H216.093C215.915 180.655 215.771 180.799 215.771 180.976C215.771 181.154 215.915 181.298 216.093 181.298H220.191C220.368 181.298 220.512 181.154 220.512 180.976C220.512 180.799 220.368 180.655 220.191 180.655Z" fill="#CCCCCC"/>
<path d="M220.191 187.646H216.093C215.915 187.646 215.771 187.789 215.771 187.967C215.771 188.144 215.915 188.288 216.093 188.288H220.191C220.368 188.288 220.512 188.144 220.512 187.967C220.512 187.789 220.368 187.646 220.191 187.646Z" fill="#CCCCCC"/>
<path d="M218.182 204.198C218.142 204.198 218.103 204.183 218.073 204.155C218.044 204.128 218.025 204.091 218.022 204.051L215.973 180.991C215.97 180.948 215.983 180.906 216.01 180.873C216.037 180.841 216.077 180.82 216.119 180.816C216.162 180.813 216.204 180.826 216.237 180.853C216.269 180.881 216.29 180.92 216.293 180.962L218.18 202.195L220.012 180.963C220.014 180.942 220.02 180.921 220.03 180.902C220.039 180.883 220.053 180.867 220.069 180.853C220.085 180.839 220.104 180.829 220.124 180.823C220.144 180.816 220.165 180.814 220.186 180.816C220.207 180.818 220.228 180.824 220.247 180.833C220.265 180.843 220.282 180.856 220.296 180.873C220.309 180.889 220.319 180.908 220.326 180.928C220.332 180.948 220.334 180.969 220.332 180.99L218.342 204.051C218.339 204.091 218.32 204.128 218.291 204.155C218.261 204.182 218.222 204.198 218.182 204.198L218.182 204.198Z" fill="#CCCCCC"/>
<path d="M216.858 187.747C216.834 187.638 216.834 187.525 216.858 187.417C216.883 187.308 216.931 187.206 216.999 187.117C217.067 187.029 217.154 186.957 217.253 186.905C217.352 186.854 217.461 186.825 217.572 186.821L219.276 184.897L220.335 186.176L218.375 187.607C218.37 187.795 218.296 187.975 218.168 188.112C218.04 188.249 217.865 188.334 217.678 188.351C217.491 188.369 217.305 188.317 217.153 188.205C217.002 188.094 216.897 187.931 216.858 187.747H216.858Z" fill="#FFB8B8"/>
<path d="M217.852 186.409L220.54 182.824L219.154 179.854L219.254 176.331L220.391 176.121L220.403 176.127C220.955 176.45 221.383 176.948 221.618 177.543C221.871 178.174 222.394 180.322 222.789 182.012C222.892 182.447 222.882 182.901 222.759 183.331C222.637 183.761 222.406 184.152 222.088 184.467L218.791 187.765L217.852 186.409Z" fill="#3C65F5"/>
<path d="M206.581 203.201L210.259 204.086C210.331 204.105 210.406 204.098 210.473 204.067C210.54 204.036 210.594 203.982 210.625 203.915L213.785 195.516C213.798 195.483 213.806 195.448 213.806 195.413C213.806 195.378 213.799 195.343 213.785 195.311C213.769 195.275 213.746 195.242 213.717 195.215C213.688 195.188 213.654 195.167 213.617 195.153L210.851 194.097C210.808 194.081 210.761 194.073 210.714 194.076C210.667 194.079 210.622 194.091 210.58 194.112C210.544 194.13 210.512 194.156 210.487 194.187C210.461 194.218 210.443 194.254 210.432 194.293L210.432 194.294L208.481 201.697L208.452 201.699C207.846 201.734 207.27 201.974 206.818 202.38C206.724 202.493 206.655 202.624 206.614 202.765C206.573 202.907 206.562 203.055 206.581 203.201Z" fill="#CCCCCC"/>
<path d="M209.245 198.492L209.229 198.652L212.582 199.007L212.599 198.847L209.245 198.492Z" fill="#B3B3B3"/>
<path d="M208.953 199.816L208.887 199.963L211.585 201.177L211.651 201.03L208.953 199.816Z" fill="#B3B3B3"/>
<path d="M212.952 197.722L209.771 196.668L209.838 196.522L213.018 197.575L212.952 197.722Z" fill="#B3B3B3"/>
<path d="M213.274 196.999L210.094 195.463L210.159 195.316L213.34 196.852L213.274 196.999Z" fill="#B3B3B3"/>
<path d="M208.673 201.074L208.568 201.196L210.861 203.155L210.966 203.033L208.673 201.074Z" fill="#B3B3B3"/>
<path d="M208.021 201.724L207.875 201.79L208.796 203.82L208.942 203.754L208.021 201.724Z" fill="#B3B3B3"/>
<path d="M297.656 187.676C297.52 187.644 297.392 187.583 297.282 187.497C297.172 187.41 297.082 187.301 297.019 187.176C296.956 187.051 296.92 186.914 296.916 186.774C296.911 186.635 296.938 186.495 296.993 186.367L293.465 178.396L295.483 177.888L298.316 185.883C298.526 185.99 298.69 186.17 298.776 186.389C298.862 186.608 298.864 186.851 298.783 187.073C298.701 187.294 298.542 187.477 298.334 187.588C298.126 187.7 297.885 187.731 297.656 187.676V187.676Z" fill="#A0616A"/>
<path d="M294.119 180.894C294.062 180.869 294.012 180.831 293.972 180.785C293.931 180.739 293.901 180.684 293.883 180.625L293.266 178.562C293.131 178.276 293.116 177.948 293.222 177.651C293.329 177.353 293.55 177.11 293.836 176.975C294.122 176.841 294.449 176.825 294.747 176.932C295.044 177.038 295.287 177.259 295.422 177.545L296.615 179.346C296.649 179.398 296.671 179.456 296.681 179.517C296.69 179.578 296.687 179.64 296.67 179.699C296.653 179.759 296.624 179.814 296.584 179.861C296.544 179.908 296.495 179.946 296.439 179.972L294.476 180.891C294.42 180.917 294.359 180.931 294.298 180.931C294.236 180.932 294.175 180.919 294.119 180.894V180.894Z" fill="#3C65F5"/>
<path d="M301.302 179.866L299.138 181.398C299.11 181.418 299.077 181.429 299.043 181.429C299.008 181.429 298.975 181.418 298.947 181.398L298.363 180.959C298.343 180.944 298.327 180.926 298.316 180.905C298.304 180.884 298.298 180.86 298.297 180.836C298.296 180.812 298.3 180.788 298.31 180.766C298.319 180.744 298.334 180.724 298.352 180.708L300.017 179.223C300.039 179.204 300.066 179.191 300.094 179.186C300.123 179.18 300.152 179.182 300.18 179.192L301.263 179.58C301.291 179.59 301.316 179.607 301.334 179.631C301.353 179.654 301.365 179.682 301.369 179.711C301.373 179.74 301.369 179.77 301.357 179.798C301.345 179.825 301.326 179.848 301.302 179.866V179.866Z" fill="#3F3D56"/>
<path d="M301.125 179.721C301.131 179.706 301.13 179.69 301.124 179.676C301.117 179.663 301.106 179.652 301.092 179.646L300.116 179.297C300.106 179.293 300.095 179.293 300.085 179.294C300.075 179.296 300.066 179.301 300.058 179.308L298.556 180.647L298.548 180.656C298.543 180.662 298.54 180.669 298.539 180.676C298.537 180.683 298.537 180.69 298.538 180.698C298.539 180.705 298.542 180.712 298.546 180.718C298.549 180.724 298.555 180.73 298.561 180.734L299.087 181.129C299.096 181.136 299.108 181.14 299.121 181.14C299.133 181.14 299.145 181.136 299.155 181.128L301.105 179.748C301.114 179.741 301.121 179.731 301.125 179.721Z" fill="white"/>
<path d="M293.414 202.707H294.506L295.026 198.495H293.414V202.707Z" fill="#A0616A"/>
<path d="M293.135 202.351L295.286 202.351H295.286C295.466 202.351 295.644 202.386 295.81 202.455C295.977 202.524 296.128 202.625 296.255 202.752C296.382 202.88 296.483 203.031 296.552 203.197C296.621 203.363 296.656 203.542 296.656 203.722V203.766L293.135 203.766L293.135 202.351Z" fill="#05264E"/>
<path d="M289.762 202.707H290.854L291.374 198.495H289.762V202.707Z" fill="#A0616A"/>
<path d="M289.482 202.351L291.633 202.351H291.633C291.813 202.351 291.992 202.386 292.158 202.455C292.324 202.524 292.475 202.625 292.603 202.752C292.73 202.88 292.831 203.031 292.9 203.197C292.969 203.363 293.004 203.542 293.004 203.722V203.766L289.482 203.766L289.482 202.351Z" fill="#05264E"/>
<path d="M289.53 201.42C289.455 201.334 289.414 201.225 289.412 201.111C289.152 198.433 289.86 184.353 291.497 183.15L291.507 183.14L296.298 182.313L296.387 182.402C296.394 182.526 297.265 194.868 294.86 201.167C294.83 201.242 294.779 201.307 294.712 201.352C294.646 201.398 294.567 201.422 294.486 201.422H293.53C293.474 201.422 293.42 201.411 293.369 201.388C293.318 201.366 293.273 201.334 293.235 201.293C293.198 201.253 293.169 201.205 293.151 201.152C293.133 201.1 293.126 201.045 293.13 200.99L293.904 189.196C293.907 189.162 293.897 189.128 293.876 189.102C293.855 189.075 293.824 189.058 293.791 189.053C293.757 189.048 293.723 189.056 293.695 189.075C293.667 189.094 293.648 189.123 293.641 189.157L291.46 201.127C291.441 201.211 291.396 201.287 291.331 201.344C291.265 201.401 291.184 201.435 291.098 201.442L289.842 201.535C289.832 201.535 289.822 201.536 289.812 201.536C289.707 201.536 289.605 201.494 289.53 201.42V201.42Z" fill="#05264E"/>
<path d="M295.834 175.093C297.043 175.093 298.022 174.114 298.022 172.905C298.022 171.697 297.043 170.717 295.834 170.717C294.626 170.717 293.646 171.697 293.646 172.905C293.646 174.114 294.626 175.093 295.834 175.093Z" fill="#A0616A"/>
<path d="M290.563 185.066C290.47 184.972 290.417 184.846 290.414 184.714L291.308 180.531C290.595 177.503 291.544 176.935 292.615 176.361L292.608 176.357L293.055 175.147C293.069 175.093 293.095 175.043 293.131 175C293.166 174.958 293.211 174.923 293.262 174.9C293.312 174.877 293.367 174.865 293.423 174.865C293.479 174.865 293.534 174.878 293.584 174.902L295.864 176.114C295.967 176.171 296.043 176.267 296.076 176.38C296.115 176.5 296.112 176.63 296.069 176.748L295.9 177.204C296.336 177.785 297.009 180.086 296.296 180.977L296.834 183.946C296.846 184.055 296.819 184.165 296.758 184.256C296.697 184.347 296.606 184.414 296.5 184.445L290.881 185.166C290.859 185.171 290.837 185.173 290.815 185.173C290.72 185.172 290.629 185.133 290.563 185.066V185.066Z" fill="#3C65F5"/>
<path d="M298.744 180.269C298.708 180.303 298.675 180.339 298.645 180.378L294.237 180.074L293.764 179.11L292.217 179.634L292.888 181.421C292.942 181.565 293.042 181.688 293.172 181.771C293.302 181.854 293.455 181.892 293.609 181.881L298.621 181.501C298.732 181.655 298.887 181.771 299.066 181.835C299.245 181.899 299.439 181.907 299.622 181.857C299.806 181.808 299.97 181.704 300.093 181.559C300.216 181.415 300.292 181.236 300.31 181.047C300.329 180.858 300.29 180.668 300.198 180.502C300.106 180.335 299.966 180.201 299.796 180.117C299.626 180.032 299.434 180.002 299.246 180.029C299.058 180.056 298.883 180.14 298.744 180.269V180.269Z" fill="#A0616A"/>
<path d="M294.072 180.089L292.151 180.729C292.097 180.747 292.039 180.753 291.981 180.747C291.924 180.741 291.869 180.722 291.819 180.693C291.77 180.663 291.727 180.623 291.695 180.576C291.662 180.528 291.64 180.475 291.63 180.418L291.28 178.43C291.188 178.15 291.211 177.845 291.344 177.581C291.477 177.318 291.709 177.119 291.989 177.026C292.269 176.934 292.575 176.957 292.838 177.089C293.101 177.221 293.301 177.453 293.394 177.733L294.303 179.528C294.329 179.579 294.344 179.636 294.346 179.693C294.348 179.751 294.338 179.808 294.316 179.861C294.294 179.915 294.261 179.962 294.219 180.002C294.177 180.041 294.127 180.071 294.072 180.089V180.089Z" fill="#3C65F5"/>
<path d="M294.604 171.178C295.588 171.178 296.386 170.38 296.386 169.396C296.386 168.412 295.588 167.614 294.604 167.614C293.62 167.614 292.822 168.412 292.822 169.396C292.822 170.38 293.62 171.178 294.604 171.178Z" fill="#05264E"/>
<path d="M297.905 173.176C298.078 173.21 298.257 173.195 298.421 173.133C298.505 173.085 298.576 173.018 298.629 172.938C298.682 172.858 298.716 172.766 298.727 172.671C299.059 170.465 297.184 170.646 296.962 170.551C296.822 170.469 296.69 170.373 296.569 170.265C296.257 170.091 295.901 170.013 295.545 170.039C295.124 170 294.699 170.052 294.3 170.191C293.952 170.354 293.663 170.621 293.472 170.954C293.283 171.286 293.145 171.645 293.061 172.017C292.93 172.439 292.906 172.887 292.992 173.321C293.083 173.644 293.273 173.931 293.535 174.141C293.797 174.351 294.119 174.474 294.454 174.493C294.401 174.233 294.434 173.963 294.549 173.725C294.664 173.486 294.854 173.292 295.091 173.172C295.467 172.987 295.895 172.936 296.304 173.028C296.569 173.081 296.838 173.115 297.108 173.128C297.374 173.138 297.692 173.153 297.905 173.176Z" fill="#05264E"/>
<path d="M469.143 203.142C469.144 200.805 470.074 198.564 471.727 196.912C473.381 195.26 475.623 194.332 477.96 194.332C480.297 194.332 482.539 195.26 484.192 196.912C485.846 198.564 486.775 200.805 486.777 203.142" fill="#F2F2F2"/>
<path d="M477.959 203.142C477.896 203.142 477.835 203.117 477.791 203.072C477.746 203.028 477.721 202.967 477.721 202.904V198.257C477.721 198.194 477.746 198.133 477.79 198.088C477.835 198.044 477.896 198.019 477.959 198.019C478.022 198.019 478.083 198.044 478.128 198.088C478.172 198.133 478.197 198.194 478.197 198.257V202.904C478.197 202.967 478.172 203.028 478.127 203.072C478.083 203.117 478.022 203.142 477.959 203.142V203.142Z" fill="#CCCCCC"/>
<path d="M477.959 201.545C477.902 201.545 477.847 201.525 477.804 201.488L474.944 199.034C474.92 199.013 474.9 198.988 474.886 198.96C474.871 198.932 474.863 198.902 474.86 198.871C474.858 198.839 474.861 198.808 474.871 198.778C474.881 198.748 474.896 198.72 474.917 198.696C474.937 198.672 474.962 198.653 474.99 198.639C475.019 198.624 475.049 198.616 475.081 198.614C475.112 198.611 475.144 198.615 475.173 198.625C475.203 198.635 475.231 198.651 475.254 198.672L478.114 201.126C478.151 201.158 478.177 201.2 478.19 201.247C478.202 201.295 478.199 201.344 478.182 201.39C478.165 201.436 478.135 201.475 478.095 201.503C478.055 201.531 478.007 201.545 477.959 201.545L477.959 201.545Z" fill="#CCCCCC"/>
<path d="M496.309 203.142C496.31 200.805 497.24 198.564 498.893 196.912C500.547 195.26 502.789 194.332 505.126 194.332C507.463 194.332 509.705 195.26 511.358 196.912C513.012 198.564 513.941 200.805 513.943 203.142" fill="#F2F2F2"/>
<path d="M505.125 203.142C505.062 203.142 505.001 203.117 504.957 203.072C504.912 203.028 504.887 202.967 504.887 202.904V198.257C504.887 198.194 504.912 198.133 504.957 198.088C505.001 198.044 505.062 198.019 505.125 198.019C505.188 198.019 505.249 198.044 505.294 198.088C505.338 198.133 505.363 198.194 505.363 198.257V202.904C505.363 202.967 505.338 203.028 505.294 203.072C505.249 203.117 505.188 203.142 505.125 203.142V203.142Z" fill="#CCCCCC"/>
<path d="M505.127 201.545C505.07 201.545 505.015 201.525 504.972 201.488L502.112 199.033C502.088 199.013 502.068 198.988 502.054 198.96C502.039 198.932 502.031 198.902 502.028 198.87C502.026 198.839 502.029 198.807 502.039 198.777C502.049 198.748 502.064 198.72 502.085 198.696C502.105 198.672 502.13 198.652 502.159 198.638C502.187 198.624 502.217 198.616 502.249 198.613C502.28 198.611 502.312 198.615 502.342 198.625C502.371 198.635 502.399 198.651 502.423 198.672L505.282 201.126C505.319 201.158 505.346 201.2 505.358 201.247C505.37 201.294 505.368 201.344 505.351 201.39C505.334 201.436 505.303 201.475 505.263 201.503C505.223 201.53 505.176 201.545 505.127 201.545V201.545Z" fill="#CCCCCC"/>
</g>
<defs>
<clipPath id="clip0_176_6595">
<rect width="538.218" height="231.309" fill="white"/>
</clipPath>
</defs>
</svg>
