<svg width="41" height="40" viewBox="0 0 41 40" fill="none" xmlns="http://www.w3.org/2000/svg">
<circle cx="20.3335" cy="20" r="20" fill="#FF4500" fill-opacity="0.1"/>
<path d="M27.2402 18.2817C26.6781 18.2817 26.1835 18.514 25.8201 18.8774C24.4824 17.9519 22.6801 17.3561 20.6829 17.2924L21.7209 12.6162L25.0257 13.3581C25.0257 14.1675 25.6852 14.8269 26.4945 14.8269C27.3189 14.8269 27.9821 14.1487 27.9821 13.3394C27.9821 12.53 27.3226 11.8518 26.4945 11.8518C25.9175 11.8518 25.4191 12.2003 25.1718 12.6761L21.5223 11.8668C21.3387 11.8181 21.1588 11.9492 21.1101 12.1328L19.971 17.2887C17.9889 17.3711 16.2053 17.9669 14.8639 18.8924C14.5004 18.514 13.9871 18.2817 13.425 18.2817C11.3417 18.2817 10.6597 21.0769 12.5669 22.0324C12.4995 22.3284 12.4695 22.6432 12.4695 22.9579C12.4695 26.0979 16.0067 28.6421 20.3495 28.6421C24.711 28.6421 28.2481 26.0979 28.2481 22.9579C28.2481 22.6432 28.2144 22.3134 28.132 22.0174C30.0017 21.0582 29.3123 18.2817 27.2402 18.2817ZM15.5908 22.231C15.5908 21.4067 16.2502 20.7434 17.0783 20.7434C17.8877 20.7434 18.5472 21.4029 18.5472 22.231C18.5472 23.0403 17.8877 23.6998 17.0783 23.6998C16.254 23.7036 15.5908 23.0403 15.5908 22.231ZM23.6206 25.7344C22.2567 27.0983 18.4085 27.0983 17.0446 25.7344C16.8947 25.6033 16.8947 25.371 17.0446 25.2211C17.1758 25.09 17.4081 25.09 17.5392 25.2211C18.5809 26.289 22.0356 26.3077 23.1222 25.2211C23.2534 25.09 23.4857 25.09 23.6168 25.2211C23.7705 25.371 23.7705 25.6033 23.6206 25.7344ZM23.5906 23.7036C22.7813 23.7036 22.1218 23.0441 22.1218 22.2347C22.1218 21.4104 22.7813 20.7472 23.5906 20.7472C24.415 20.7472 25.0782 21.4067 25.0782 22.2347C25.0744 23.0403 24.415 23.7036 23.5906 23.7036Z" fill="#FF4500"/>
</svg>
