<svg width="168" height="183" viewBox="0 0 168 183" fill="none" xmlns="http://www.w3.org/2000/svg">
<g opacity="0.5" clip-path="url(#clip0_171_6247)">
<path d="M116.657 37.1266C105.011 35.2828 91.749 34.2989 77.9375 34.2989C65.2974 34.2989 53.1196 35.1217 42.2207 36.6731C42.2233 36.507 42.2257 36.341 42.2331 36.175C42.5221 26.5366 46.5996 17.3926 53.5942 10.6975C60.5887 4.00237 69.9455 0.287241 79.6645 0.346149C89.3835 0.405057 98.6938 4.23333 105.605 11.0127C112.517 17.7921 116.482 26.9848 116.652 36.626C116.654 36.7946 116.657 36.9606 116.657 37.1266Z" fill="#3C65F5"/>
<g opacity="0.1">
<path d="M84.3212 0.332428C79.152 -0.360286 73.8938 0.0323241 68.8874 1.48481C63.8809 2.9373 59.2379 5.41725 55.2593 8.76394C51.2808 12.1106 48.0553 16.2494 45.7922 20.9119C43.529 25.5745 42.2785 30.6568 42.1218 35.8295C42.1143 35.9956 42.1118 36.1616 42.1094 36.3277C45.3473 35.8668 48.7004 35.4718 52.1427 35.142C52.5637 26.5244 56.0123 18.3251 61.8902 11.9667C67.768 5.6083 75.704 1.49213 84.3212 0.332428V0.332428Z" fill="white"/>
</g>
<path d="M132.94 40.0561C127.579 38.6143 122.142 37.4692 116.653 36.6261C107.656 35.2429 98.5866 34.3782 89.4893 34.0362C85.6997 33.8825 81.8403 33.8032 77.9383 33.8032C74.8458 33.8032 71.7782 33.8528 68.7531 33.9519C59.8791 34.212 51.0262 34.9542 42.2341 36.175C35.7257 37.0641 29.2804 38.3604 22.9368 40.0561C8.14601 44.1132 0 49.5507 0 55.3649C0 61.1791 8.14602 66.6166 22.9368 70.6737C33.3386 73.5287 46.1634 75.4742 60.1375 76.3664C65.9054 76.7382 71.8682 76.9265 77.9383 76.9265C84.0285 76.9265 90.0113 76.7357 95.7968 76.364C108.514 75.5486 120.28 73.8608 130.127 71.4073C130.18 71.3924 130.23 71.38 130.282 71.3676C130.946 71.204 131.601 71.033 132.248 70.862C132.48 70.7976 132.71 70.7356 132.94 70.6737C132.953 70.6684 132.966 70.6643 132.98 70.6613C133.2 70.6018 133.417 70.5398 133.634 70.4804C134.069 70.3564 134.499 70.235 134.921 70.1086C134.941 70.1036 134.958 70.0987 134.976 70.0937C135.343 69.9847 135.703 69.8756 136.06 69.7666C136.352 69.6749 136.642 69.5857 136.929 69.494C137.139 69.427 137.346 69.3601 137.551 69.2932C137.701 69.2437 137.848 69.1966 137.993 69.147C138.191 69.0826 138.388 69.0156 138.583 68.9487C138.665 68.9215 138.748 68.8942 138.828 68.8645C139.015 68.8025 139.197 68.7381 139.38 68.6736C139.577 68.6042 139.774 68.5324 139.969 68.463C140.132 68.406 140.294 68.3465 140.454 68.287C140.589 68.235 140.721 68.1854 140.856 68.1358C141.223 67.9995 141.583 67.8582 141.938 67.7195C142.115 67.6476 142.292 67.5782 142.467 67.5063C142.64 67.4369 142.815 67.3651 142.984 67.2932C143.264 67.1767 143.539 67.0602 143.809 66.9437C143.939 66.8843 144.071 66.8273 144.198 66.7727C144.296 66.7281 144.391 66.686 144.488 66.6414C144.558 66.6117 144.628 66.5794 144.696 66.5472C144.948 66.4332 145.198 66.3167 145.442 66.2002C146.382 65.7541 147.259 65.2981 148.073 64.8322C153.181 61.9301 155.877 58.7107 155.877 55.3649C155.877 49.5507 147.731 44.1132 132.94 40.0561ZM132.805 70.1978C122.391 73.0554 109.531 75.0009 95.5194 75.8856C89.8214 76.245 83.9312 76.4309 77.9384 76.4309C71.9656 76.4309 66.0952 76.2475 60.4147 75.8881C46.3808 75.0058 33.501 73.0603 23.0717 70.1978C8.51573 66.2027 0.499605 60.9362 0.499605 55.3649C0.500418 54.8726 0.562525 54.3823 0.684517 53.9051C1.95841 48.879 9.79474 44.1751 23.0717 40.5319C29.3674 38.8495 35.7632 37.5607 42.2216 36.6732C51.0667 35.4454 59.9731 34.7008 68.9005 34.4426C71.8782 34.346 74.8908 34.2981 77.9384 34.2989C81.7879 34.2989 85.5948 34.3757 89.3368 34.5244C98.4871 34.8634 107.61 35.7323 116.658 37.1267C122.099 37.966 127.49 39.1029 132.805 40.5319C146.08 44.1751 153.913 48.8766 155.19 53.9002C155.314 54.3787 155.377 54.8708 155.377 55.3649C155.377 60.9362 147.361 66.2027 132.805 70.1978V70.1978Z" fill="#3F3D56"/>
<path d="M155.735 55.5905C155.735 58.9015 152.984 62.0342 148.073 64.8322C147.256 65.2982 146.377 65.7542 145.443 66.2003C145.198 66.3168 144.948 66.4332 144.696 66.5472C144.628 66.5795 144.558 66.6117 144.488 66.6414C144.391 66.686 144.296 66.7282 144.199 66.7728C144.071 66.8273 143.939 66.8843 143.809 66.9438C143.539 67.0603 143.264 67.1767 142.985 67.2932C142.815 67.3651 142.64 67.437 142.467 67.5064C142.293 67.5782 142.115 67.6476 141.938 67.7195C141.583 67.8583 141.223 67.9995 140.856 68.1359C140.721 68.1854 140.589 68.235 140.454 68.287C140.294 68.3465 140.132 68.406 139.969 68.463C139.775 68.5324 139.577 68.6043 139.38 68.6737C139.198 68.7381 139.015 68.8025 138.828 68.8645C138.748 68.8942 138.666 68.9215 138.583 68.9488C138.388 69.0157 138.191 69.0826 137.994 69.147C137.849 69.1966 137.701 69.2437 137.551 69.2932C137.346 69.3602 137.139 69.4271 136.929 69.494C136.642 69.5857 136.352 69.6749 136.06 69.7666C135.703 69.8757 135.343 69.9847 134.976 70.0938C134.958 70.0987 134.941 70.1037 134.921 70.1086C134.499 70.235 134.069 70.3565 133.634 70.4804C133.417 70.5399 133.2 70.6018 132.98 70.6613C132.966 70.6643 132.953 70.6684 132.94 70.6737C132.71 70.7357 132.48 70.7976 132.248 70.862C131.604 71.0306 130.947 71.2016 130.282 71.3676C130.23 71.38 130.18 71.3924 130.127 71.4073C120.547 73.7815 108.794 75.5114 95.7869 76.3466C90.0889 76.711 84.1486 76.9043 78.046 76.9043C71.8884 76.9043 65.898 76.7085 60.1551 76.3367C25.8722 74.1186 0.357422 65.6724 0.357422 55.5904C0.360121 54.977 0.454372 54.3673 0.637108 53.7812C0.652111 53.8234 0.667112 53.863 0.684678 53.9052C4.24924 63.194 29.5469 70.701 62.3709 72.5325C67.3994 72.815 72.6078 72.9612 77.9385 72.9612C83.2918 72.9612 88.5201 72.8125 93.5686 72.53C126.365 70.691 151.638 63.1816 155.19 53.9002C155.25 53.7515 155.302 53.6028 155.347 53.4541C155.601 54.1385 155.732 54.8614 155.735 55.5905V55.5905Z" fill="#3F3D56"/>
<path d="M22.9001 52.9228C18.7427 52.9228 14.3242 52.0354 14.3242 50.3907C14.3242 48.746 18.7427 47.8586 22.9001 47.8586C27.0575 47.8586 31.476 48.746 31.476 50.3907C31.476 52.0354 27.0575 52.9228 22.9001 52.9228ZM22.9001 48.3543C18.1406 48.3543 14.8238 49.4276 14.8238 50.3907C14.8238 51.3539 18.1406 52.4271 22.9001 52.4271C27.6596 52.4271 30.9764 51.3539 30.9764 50.3907C30.9764 49.4276 27.6596 48.3543 22.9001 48.3543V48.3543Z" fill="#3F3D56"/>
<path d="M40.6345 64.571C36.4771 64.571 32.0586 63.6836 32.0586 62.0389C32.0586 60.3942 36.4771 59.5068 40.6345 59.5068C44.7919 59.5068 49.2104 60.3942 49.2104 62.0389C49.2104 63.6836 44.7919 64.571 40.6345 64.571ZM40.6345 60.0025C35.875 60.0025 32.5582 61.0758 32.5582 62.0389C32.5582 63.0021 35.875 64.0753 40.6345 64.0753C45.3939 64.0753 48.7108 63.0021 48.7108 62.0389C48.7108 61.0758 45.3939 60.0025 40.6345 60.0025V60.0025Z" fill="#3F3D56"/>
<path d="M132.812 52.9228C128.655 52.9228 124.236 52.0354 124.236 50.3907C124.236 48.746 128.655 47.8586 132.812 47.8586C136.97 47.8586 141.388 48.746 141.388 50.3907C141.388 52.0354 136.97 52.9228 132.812 52.9228ZM132.812 48.3543C128.053 48.3543 124.736 49.4276 124.736 50.3907C124.736 51.3539 128.053 52.4271 132.812 52.4271C137.572 52.4271 140.889 51.3539 140.889 50.3907C140.889 49.4276 137.572 48.3543 132.812 48.3543V48.3543Z" fill="#3F3D56"/>
<path d="M115.076 64.571C110.919 64.571 106.5 63.6836 106.5 62.0389C106.5 60.3942 110.919 59.5068 115.076 59.5068C119.233 59.5068 123.652 60.3942 123.652 62.0389C123.652 63.6836 119.233 64.571 115.076 64.571ZM115.076 60.0025C110.316 60.0025 107 61.0758 107 62.0389C107 63.0021 110.316 64.0753 115.076 64.0753C119.835 64.0753 123.152 63.0021 123.152 62.0389C123.152 61.0758 119.835 60.0025 115.076 60.0025V60.0025Z" fill="#3F3D56"/>
<path d="M77.8552 70.0234C73.6978 70.0234 69.2793 69.136 69.2793 67.4913C69.2793 65.8466 73.6978 64.9592 77.8552 64.9592C82.0126 64.9592 86.4311 65.8466 86.4311 67.4913C86.4311 69.136 82.0126 70.0234 77.8552 70.0234ZM77.8552 65.4549C73.0957 65.4549 69.7789 66.5282 69.7789 67.4913C69.7789 68.4545 73.0957 69.5277 77.8552 69.5277C82.6146 69.5277 85.9315 68.4545 85.9315 67.4913C85.9315 66.5282 82.6146 65.4549 77.8552 65.4549V65.4549Z" fill="#3F3D56"/>
<path d="M84.1784 122.113C89.9745 122.113 94.6732 117.451 94.6732 111.7C94.6732 105.95 89.9745 101.288 84.1784 101.288C78.3823 101.288 73.6836 105.95 73.6836 111.7C73.6836 117.451 78.3823 122.113 84.1784 122.113Z" fill="#2F2E41"/>
<path d="M80.1878 118.541L75.0801 121.079L76.5077 123.907L81.6154 121.369L80.1878 118.541Z" fill="#2F2E41"/>
<path d="M77.1801 123.62C77.483 123.164 76.7354 122.145 75.5104 121.344C74.2853 120.543 73.0467 120.262 72.7438 120.718C72.4409 121.174 73.1884 122.193 74.4135 122.994C75.6385 123.796 76.8772 124.076 77.1801 123.62Z" fill="#2F2E41"/>
<path d="M88.1679 118.541L86.7402 121.37L91.8479 123.907L93.2756 121.079L88.1679 118.541Z" fill="#2F2E41"/>
<path d="M93.942 122.994C95.167 122.193 95.9146 121.174 95.6117 120.718C95.3088 120.262 94.0701 120.543 92.8451 121.344C91.6201 122.145 90.8725 123.164 91.1754 123.62C91.4783 124.076 92.717 123.796 93.942 122.994Z" fill="#2F2E41"/>
<path d="M83.4423 112.712C85.4232 112.712 87.0291 111.119 87.0291 109.154C87.0291 107.188 85.4232 105.595 83.4423 105.595C81.4613 105.595 79.8555 107.188 79.8555 109.154C79.8555 111.119 81.4613 112.712 83.4423 112.712Z" fill="white"/>
<path d="M84.315 108.471C84.7799 108.01 84.7772 107.259 84.309 106.795C83.8407 106.33 83.0842 106.328 82.6192 106.789C82.1543 107.25 82.1569 108.001 82.6252 108.465C83.0935 108.93 83.85 108.933 84.315 108.471Z" fill="#3F3D56"/>
<path d="M92.456 100.373C92.6138 96.5184 89.2652 93.2535 84.9767 93.0806C80.6882 92.9078 77.0837 95.8926 76.9259 99.7473C76.7681 103.602 79.7492 104.478 84.0377 104.651C88.3262 104.824 92.2982 104.228 92.456 100.373Z" fill="#3C65F5"/>
<path d="M98.5058 117.153C99.1962 116.565 98.2255 114.32 96.3378 112.138C94.45 109.956 92.3601 108.664 91.6698 109.252C90.9795 109.84 91.9502 112.085 93.8379 114.267C95.7256 116.449 97.8155 117.741 98.5058 117.153Z" fill="#2F2E41"/>
<path d="M74.5467 114.267C76.4345 112.085 77.4051 109.84 76.7148 109.252C76.0245 108.664 73.9346 109.956 72.0469 112.138C70.1592 114.319 69.1885 116.565 69.8788 117.152C70.5691 117.74 72.659 116.448 74.5467 114.267Z" fill="#2F2E41"/>
<path d="M87.0606 115.804C87.1742 116.423 87.0352 117.061 86.6744 117.578C86.3135 118.096 85.7602 118.45 85.1363 118.563C84.5124 118.675 83.8689 118.537 83.3474 118.179C82.8259 117.821 82.4691 117.272 82.3555 116.653L82.3546 116.649C82.1194 115.36 83.1241 114.903 84.4236 114.67C85.7231 114.437 86.8253 114.514 87.0606 115.804Z" fill="white"/>
<path d="M66.4469 122.776C66.3144 122.776 66.1873 122.724 66.0936 122.631C65.9999 122.538 65.9473 122.412 65.9473 122.28V93.0357C65.9473 92.9042 65.9999 92.7782 66.0936 92.6852C66.1873 92.5923 66.3144 92.54 66.4469 92.54C66.5794 92.54 66.7064 92.5923 66.8001 92.6852C66.8938 92.7782 66.9465 92.9042 66.9465 93.0357V122.28C66.9465 122.412 66.8938 122.538 66.8001 122.631C66.7064 122.724 66.5794 122.776 66.4469 122.776Z" fill="#CCCCCC"/>
<path d="M58.9527 149.047C58.8202 149.047 58.6932 148.994 58.5995 148.901C58.5058 148.808 58.4531 148.682 58.4531 148.551V127.237C58.4531 127.106 58.5058 126.98 58.5995 126.887C58.6931 126.794 58.8202 126.741 58.9527 126.741C59.0852 126.741 59.2123 126.794 59.306 126.887C59.3997 126.98 59.4523 127.106 59.4523 127.237V148.551C59.4523 148.682 59.3997 148.808 59.306 148.901C59.2123 148.994 59.0852 149.047 58.9527 149.047V149.047Z" fill="#CCCCCC"/>
<path d="M78.1891 131.45C78.0566 131.45 77.9295 131.398 77.8358 131.305C77.7421 131.212 77.6895 131.086 77.6895 130.955V101.71C77.6895 101.579 77.7421 101.452 77.8358 101.36C77.9295 101.267 78.0566 101.214 78.1891 101.214C78.3216 101.214 78.4486 101.267 78.5423 101.36C78.636 101.452 78.6887 101.579 78.6887 101.71V130.955C78.6887 131.086 78.636 131.212 78.5423 131.305C78.4486 131.398 78.3216 131.45 78.1891 131.45Z" fill="#CCCCCC"/>
<path d="M70.943 152.516C70.8105 152.516 70.6834 152.464 70.5897 152.371C70.496 152.278 70.4434 152.152 70.4434 152.021V140.125C70.4434 139.993 70.496 139.867 70.5897 139.774C70.6834 139.681 70.8105 139.629 70.943 139.629C71.0755 139.629 71.2025 139.681 71.2962 139.774C71.3899 139.867 71.4426 139.993 71.4426 140.125V152.021C71.4426 152.152 71.3899 152.278 71.2962 152.371C71.2025 152.464 71.0755 152.516 70.943 152.516V152.516Z" fill="#CCCCCC"/>
<path d="M81.1852 91.5488C81.0527 91.5488 80.9256 91.4966 80.8319 91.4036C80.7382 91.3107 80.6856 91.1846 80.6855 91.0531V79.157C80.6855 79.0256 80.7382 78.8995 80.8319 78.8066C80.9256 78.7136 81.0526 78.6614 81.1852 78.6614C81.3177 78.6614 81.4447 78.7136 81.5384 78.8066C81.6321 78.8995 81.6848 79.0256 81.6848 79.157V91.0531C81.6847 91.1846 81.6321 91.3107 81.5384 91.4036C81.4447 91.4966 81.3177 91.5488 81.1852 91.5488V91.5488Z" fill="#CCCCCC"/>
<path d="M56.2047 96.7534C56.0722 96.7534 55.9451 96.7012 55.8514 96.6082C55.7577 96.5153 55.7051 96.3892 55.7051 96.2577V84.3616C55.7051 84.2302 55.7577 84.1041 55.8514 84.0111C55.9451 83.9182 56.0722 83.866 56.2047 83.866C56.3372 83.866 56.4643 83.9182 56.558 84.0111C56.6517 84.1041 56.7043 84.2302 56.7043 84.3616V96.2577C56.7043 96.3892 56.6516 96.5153 56.5579 96.6082C56.4643 96.7012 56.3372 96.7534 56.2047 96.7534V96.7534Z" fill="#CCCCCC"/>
<path d="M99.6715 97.9927C99.539 97.9926 99.4119 97.9404 99.3182 97.8475C99.2245 97.7545 99.1719 97.6284 99.1719 97.497V85.6009C99.1719 85.4694 99.2245 85.3434 99.3182 85.2504C99.4119 85.1574 99.539 85.1052 99.6715 85.1052C99.804 85.1052 99.9311 85.1574 100.025 85.2504C100.118 85.3434 100.171 85.4694 100.171 85.6009V97.497C100.171 97.6284 100.118 97.7545 100.025 97.8475C99.9311 97.9404 99.804 97.9926 99.6715 97.9927Z" fill="#CCCCCC"/>
<path d="M98.6715 135.168C98.539 135.168 98.4119 135.116 98.3182 135.023C98.2245 134.93 98.1719 134.804 98.1719 134.672V120.298C98.1719 120.166 98.2245 120.04 98.3182 119.947C98.4119 119.854 98.539 119.802 98.6715 119.802C98.804 119.802 98.9311 119.854 99.0247 119.947C99.1184 120.04 99.1711 120.166 99.1711 120.298V134.672C99.1711 134.804 99.1184 134.93 99.0247 135.023C98.9311 135.116 98.804 135.168 98.6715 135.168Z" fill="#CCCCCC"/>
<path d="M88.6793 147.807C88.5468 147.807 88.4197 147.755 88.326 147.662C88.2323 147.569 88.1797 147.443 88.1797 147.312V125.998C88.1797 125.866 88.2323 125.74 88.326 125.647C88.4197 125.554 88.5468 125.502 88.6793 125.502C88.8118 125.502 88.9389 125.554 89.0326 125.647C89.1263 125.74 89.1789 125.866 89.1789 125.998V147.312C89.1789 147.443 89.1263 147.569 89.0326 147.662C88.9389 147.755 88.8118 147.807 88.6793 147.807Z" fill="#CCCCCC"/>
<path d="M90.6773 111.376C90.5448 111.376 90.4178 111.323 90.3241 111.23C90.2304 111.137 90.1777 111.011 90.1777 110.88V81.6353C90.1777 81.5039 90.2304 81.3778 90.3241 81.2848C90.4178 81.1919 90.5448 81.1396 90.6773 81.1396C90.8098 81.1396 90.9369 81.1919 91.0306 81.2848C91.1243 81.3778 91.1769 81.5039 91.1769 81.6353V110.88C91.1769 111.011 91.1243 111.137 91.0306 111.23C90.9369 111.323 90.8098 111.376 90.6773 111.376Z" fill="#CCCCCC"/>
<path d="M151.928 173.606C152.643 173.012 151.677 170.699 149.769 168.439C147.862 166.179 145.736 164.829 145.021 165.423C144.306 166.017 145.273 168.33 147.18 170.59C149.087 172.85 151.213 174.2 151.928 173.606Z" fill="#2F2E41"/>
<path d="M147.238 171.036C149.117 165.444 146.071 159.399 140.434 157.535C134.797 155.671 128.705 158.693 126.826 164.286C124.947 169.878 127.993 175.923 133.63 177.787C139.267 179.651 145.359 176.629 147.238 171.036Z" fill="#2F2E41"/>
<path d="M141.587 176.038H138.318V181.848H141.587V176.038Z" fill="#2F2E41"/>
<path d="M135.05 176.038H131.781V181.848H135.05V176.038Z" fill="#2F2E41"/>
<path d="M138.862 182.928C140.367 182.928 141.586 182.475 141.586 181.915C141.586 181.356 140.367 180.902 138.862 180.902C137.358 180.902 136.139 181.356 136.139 181.915C136.139 182.475 137.358 182.928 138.862 182.928Z" fill="#2F2E41"/>
<path d="M132.325 182.793C133.829 182.793 135.049 182.34 135.049 181.78C135.049 181.22 133.829 180.767 132.325 180.767C130.821 180.767 129.602 181.22 129.602 181.78C129.602 182.34 130.821 182.793 132.325 182.793Z" fill="#2F2E41"/>
<path d="M133.654 154.244C134.615 150.406 138.855 148.147 143.125 149.199C147.395 150.251 150.078 154.215 149.118 158.054C148.157 161.892 144.97 161.904 140.7 160.852C136.43 159.8 132.693 158.082 133.654 154.244Z" fill="#CCCCCC"/>
<path d="M129.774 164.996C130.174 164.159 128.322 162.458 125.638 161.195C122.953 159.932 120.453 159.586 120.054 160.422C119.654 161.258 121.506 162.959 124.19 164.222C126.875 165.485 129.375 165.832 129.774 164.996Z" fill="#2F2E41"/>
<path d="M135.425 168.967C137.406 168.967 139.012 167.374 139.012 165.409C139.012 163.444 137.406 161.85 135.425 161.85C133.444 161.85 131.838 163.444 131.838 165.409C131.838 167.374 133.444 168.967 135.425 168.967Z" fill="white"/>
<path d="M133.95 165.319C134.61 165.319 135.145 164.788 135.145 164.133C135.145 163.478 134.61 162.947 133.95 162.947C133.289 162.947 132.754 163.478 132.754 164.133C132.754 164.788 133.289 165.319 133.95 165.319Z" fill="#3F3D56"/>
<path d="M135.393 174.326C136.221 174.326 136.892 173.66 136.892 172.839C136.892 172.018 136.221 171.352 135.393 171.352C134.566 171.352 133.895 172.018 133.895 172.839C133.895 173.66 134.566 174.326 135.393 174.326Z" fill="white"/>
<path d="M167.75 183H108.797C108.73 183 108.667 182.974 108.62 182.927C108.573 182.881 108.547 182.818 108.547 182.752C108.547 182.686 108.573 182.623 108.62 182.577C108.667 182.53 108.73 182.504 108.797 182.504H167.75C167.816 182.504 167.88 182.53 167.927 182.577C167.974 182.623 168 182.686 168 182.752C168 182.818 167.974 182.881 167.927 182.927C167.88 182.974 167.816 183 167.75 183Z" fill="#3F3D56"/>
</g>
<defs>
<clipPath id="clip0_171_6247">
<rect width="168" height="183" fill="white"/>
</clipPath>
</defs>
</svg>
