<svg width="16" height="16" viewBox="0 0 16 16" fill="none" xmlns="http://www.w3.org/2000/svg">
<path d="M8 0.5C6.51664 0.5 5.0666 0.939867 3.83323 1.76398C2.59986 2.58809 1.63856 3.75943 1.07091 5.12987C0.50325 6.50032 0.354725 8.00832 0.644114 9.46318C0.933503 10.918 1.64781 12.2544 2.6967 13.3033C3.7456 14.3522 5.08197 15.0665 6.53683 15.3559C7.99168 15.6453 9.49968 15.4968 10.8701 14.9291C12.2406 14.3614 13.4119 13.4001 14.236 12.1668C15.0601 10.9334 15.5 9.48336 15.5 8C15.5 6.01088 14.7098 4.10322 13.3033 2.6967C11.8968 1.29018 9.98913 0.5 8 0.5ZM8 14.5C6.71442 14.5 5.45772 14.1188 4.3888 13.4046C3.31988 12.6903 2.48676 11.6752 1.99479 10.4874C1.50282 9.29972 1.3741 7.99279 1.6249 6.73191C1.8757 5.47104 2.49477 4.31285 3.40381 3.40381C4.31285 2.49476 5.47104 1.8757 6.73192 1.6249C7.99279 1.37409 9.29973 1.50281 10.4874 1.99478C11.6752 2.48675 12.6903 3.31987 13.4046 4.38879C14.1188 5.45771 14.5 6.71442 14.5 8C14.5 9.72391 13.8152 11.3772 12.5962 12.5962C11.3772 13.8152 9.72391 14.5 8 14.5Z" fill="#66789C"/>
<path d="M8 2.5C6.91221 2.5 5.84884 2.82257 4.94437 3.42692C4.0399 4.03126 3.33495 4.89025 2.91867 5.89524C2.50238 6.90023 2.39346 8.0061 2.60568 9.073C2.8179 10.1399 3.34173 11.1199 4.11092 11.8891C4.8801 12.6583 5.86011 13.1821 6.92701 13.3943C7.9939 13.6065 9.09977 13.4976 10.1048 13.0813C11.1098 12.6651 11.9687 11.9601 12.5731 11.0556C13.1774 10.1512 13.5 9.0878 13.5 8C13.5 6.54131 12.9205 5.14236 11.8891 4.11091C10.8576 3.07946 9.45869 2.5 8 2.5ZM8 12.5C7.10999 12.5 6.23996 12.2361 5.49994 11.7416C4.75991 11.2471 4.18314 10.5443 3.84254 9.72208C3.50195 8.89981 3.41284 7.99501 3.58647 7.12209C3.7601 6.24918 4.18869 5.44736 4.81802 4.81802C5.44736 4.18868 6.24918 3.7601 7.1221 3.58647C7.99501 3.41283 8.89981 3.50195 9.72208 3.84254C10.5443 4.18314 11.2471 4.75991 11.7416 5.49993C12.2361 6.23995 12.5 7.10998 12.5 8C12.5 9.19347 12.0259 10.3381 11.182 11.182C10.3381 12.0259 9.19348 12.5 8 12.5Z" fill="#66789C"/>
<path d="M9.71501 9C9.86803 8.73435 9.95793 8.43708 9.97777 8.13115C9.9976 7.82522 9.94685 7.51883 9.82941 7.23564C9.71198 6.95246 9.53102 6.70006 9.30051 6.49794C9.07 6.29583 8.79612 6.14941 8.50001 6.07V4.5C8.50001 4.36739 8.44733 4.24021 8.35356 4.14645C8.2598 4.05268 8.13262 4 8.00001 4C7.8674 4 7.74023 4.05268 7.64646 4.14645C7.55269 4.24021 7.50001 4.36739 7.50001 4.5V6.07C7.21552 6.1334 6.94832 6.25822 6.71713 6.43572C6.48593 6.61321 6.29633 6.8391 6.16159 7.09756C6.02685 7.35602 5.95023 7.6408 5.93709 7.93198C5.92396 8.22316 5.97462 8.51369 6.08554 8.78323C6.19647 9.05277 6.36496 9.29481 6.57924 9.4924C6.79351 9.68999 7.04839 9.83836 7.32601 9.92712C7.60364 10.0159 7.89732 10.0429 8.18648 10.0062C8.47564 9.9696 8.7533 9.8702 9.00001 9.715L10.11 10.83C10.1565 10.8769 10.2118 10.9141 10.2727 10.9394C10.3337 10.9648 10.399 10.9779 10.465 10.9779C10.531 10.9779 10.5964 10.9648 10.6573 10.9394C10.7182 10.9141 10.7735 10.8769 10.82 10.83C10.8669 10.7835 10.9041 10.7282 10.9295 10.6673C10.9548 10.6064 10.9679 10.541 10.9679 10.475C10.9679 10.409 10.9548 10.3436 10.9295 10.2827C10.9041 10.2218 10.8669 10.1665 10.82 10.12L9.71501 9ZM7.00001 8C7.00001 7.73478 7.10537 7.48043 7.2929 7.29289C7.48044 7.10536 7.73479 7 8.00001 7C8.26523 7 8.51958 7.10536 8.70712 7.29289C8.89465 7.48043 9.00001 7.73478 9.00001 8C8.99889 8.26479 8.89281 8.51832 8.70501 8.705C8.51834 8.89279 8.2648 8.99888 8.00001 9C7.73479 9 7.48044 8.89464 7.2929 8.70711C7.10537 8.51957 7.00001 8.26522 7.00001 8Z" fill="#66789C"/>
</svg>
