<svg width="41" height="40" viewBox="0 0 41 40" fill="none" xmlns="http://www.w3.org/2000/svg">
<circle cx="20.3335" cy="20" r="20" fill="#25D366" fill-opacity="0.1"/>
<path d="M26.5599 13.6944C24.8972 12.0278 22.6829 11.1111 20.3297 11.1111C15.4726 11.1111 11.5202 15.0635 11.5202 19.9206C11.5202 21.4722 11.925 22.9881 12.6948 24.3254L11.4448 28.8889L16.1155 27.6627C17.4012 28.3651 18.8496 28.7341 20.3258 28.7341H20.3297C25.1829 28.7341 29.2226 24.7817 29.2226 19.9246C29.2226 17.5714 28.2226 15.3611 26.5599 13.6944ZM20.3297 27.25C19.0123 27.25 17.7226 26.8968 16.5996 26.2301L16.3337 26.0714L13.5639 26.7976L14.302 24.0952L14.1274 23.8174C13.3932 22.6508 13.0083 21.3055 13.0083 19.9206C13.0083 15.8849 16.294 12.5992 20.3337 12.5992C22.2901 12.5992 24.1274 13.3611 25.5083 14.746C26.8893 16.1309 27.7385 17.9682 27.7345 19.9246C27.7345 23.9643 24.3655 27.25 20.3297 27.25ZM24.3456 21.7658C24.1274 21.6547 23.044 21.123 22.8417 21.0516C22.6393 20.9762 22.4924 20.9404 22.3456 21.1627C22.1988 21.3849 21.7782 21.877 21.6472 22.0278C21.5202 22.1746 21.3893 22.1944 21.171 22.0833C19.8774 21.4365 19.0282 20.9285 18.175 19.4643C17.9488 19.0754 18.4012 19.1031 18.8218 18.2619C18.8932 18.1151 18.8575 17.9881 18.802 17.877C18.7464 17.7658 18.3059 16.6825 18.1234 16.242C17.9448 15.8135 17.7623 15.873 17.6274 15.8651C17.5004 15.8571 17.3536 15.8571 17.2067 15.8571C17.0599 15.8571 16.8218 15.9127 16.6194 16.1309C16.417 16.3531 15.8496 16.8849 15.8496 17.9682C15.8496 19.0516 16.6393 20.0992 16.7464 20.246C16.8575 20.3928 18.298 22.6151 20.5083 23.5714C21.9051 24.1746 22.4528 24.2262 23.1512 24.123C23.5758 24.0595 24.4528 23.5912 24.6353 23.0754C24.8178 22.5595 24.8178 22.119 24.7623 22.0278C24.7107 21.9285 24.5639 21.873 24.3456 21.7658Z" fill="#25D366"/>
</svg>
