<svg width="41" height="40" viewBox="0 0 41 40" fill="none" xmlns="http://www.w3.org/2000/svg">
<circle cx="20.3335" cy="20" r="20" fill="#1DA1F2" fill-opacity="0.1"/>
<path d="M27.3952 16.1911C27.4065 16.349 27.4065 16.5069 27.4065 16.6649C27.4065 21.4815 23.7404 27.0315 17.0399 27.0315C14.9756 27.0315 13.0579 26.4336 11.4448 25.3959C11.7381 25.4297 12.0201 25.441 12.3247 25.441C14.028 25.441 15.596 24.8657 16.8481 23.8843C15.2463 23.8504 13.9039 22.8014 13.4414 21.3575C13.6671 21.3913 13.8926 21.4139 14.1296 21.4139C14.4567 21.4139 14.7838 21.3687 15.0884 21.2898C13.4189 20.9514 12.1667 19.4849 12.1667 17.7139V17.6688C12.6518 17.9395 13.2158 18.1087 13.8137 18.1313C12.8323 17.477 12.1893 16.3603 12.1893 15.0969C12.1893 14.4201 12.3698 13.7996 12.6856 13.2582C14.4792 15.4691 17.1752 16.913 20.1983 17.0709C20.1419 16.8002 20.1081 16.5182 20.1081 16.2362C20.1081 14.2283 21.7325 12.5927 23.7516 12.5927C24.8007 12.5927 25.7483 13.0326 26.4138 13.7432C27.2372 13.5853 28.0269 13.2807 28.7263 12.8634C28.4555 13.7094 27.8802 14.4201 27.1245 14.8713C27.8577 14.7923 28.5684 14.5893 29.2226 14.3073C28.7264 15.0292 28.1059 15.6721 27.3952 16.1911Z" fill="#1DA1F2"/>
</svg>
